M48
; DRILL file {KiCad 5.1.6-c6e7f7d~87~ubuntu18.04.1} date Fri Jan  8 11:56:41 2021
; FORMAT={-:-/ absolute / inch / decimal}
; #@! TF.CreationDate,2021-01-08T11:56:41-05:00
; #@! TF.GenerationSoftware,Kicad,Pcbnew,5.1.6-c6e7f7d~87~ubuntu18.04.1
; #@! TF.FileFunction,Plated,1,2,PTH
FMAT,2
INCH
T1C0.0157
T2C0.0315
T3C0.0354
T4C0.0390
T5C0.0394
T6C0.0472
T7C0.0512
%
G90
G05
T1
X3.6339Y-2.9803
X3.694Y-3.0343
X3.7913Y-2.9055
X3.9803Y-3.1575
X3.9803Y-3.2598
X4.0315Y-3.0866
X4.1181Y-3.1535
X4.248Y-3.2598
X4.248Y-3.4685
X4.315Y-3.3071
X4.6457Y-3.2874
X4.874Y-2.626
X4.9488Y-3.5866
X4.9567Y-2.6871
X4.9685Y-2.5906
X5.1417Y-3.4764
X5.1929Y-2.8583
X5.4409Y-2.8937
X5.5039Y-2.9567
X5.5079Y-3.1339
X5.8504Y-3.2441
X5.8504Y-3.2874
X5.8504Y-3.3386
X5.8701Y-4.1654
X5.873Y-4.2313
X5.9685Y-2.7362
X5.9685Y-2.8307
X5.9892Y-4.2313
X5.9921Y-4.1693
X6.0827Y-2.7283
X6.0827Y-2.8346
X6.0827Y-3.1575
X6.189Y-2.7323
X6.189Y-2.8268
X6.2323Y-2.9567
X6.2874Y-2.7362
X6.2874Y-2.8228
X6.378Y-2.7362
X6.3799Y-2.8307
X6.3799Y-3.0177
X6.4135Y-2.9173
X6.9882Y-2.7323
X6.9882Y-2.8189
T2
X5.3976Y-3.0157
X5.3976Y-3.4157
X4.8937Y-3.0173
X4.8937Y-3.4173
X4.5669Y-3.023
X4.5669Y-3.423
X5.2047Y-3.0173
X5.2047Y-3.4173
X5.0827Y-3.0173
X5.0827Y-3.4173
X4.6833Y-3.023
X4.6833Y-3.423
T3
X5.7283Y-3.7047
X5.7283Y-3.8047
T4
X3.6624Y-3.9006
X3.6624Y-4.0778
X4.1742Y-2.5246
X4.3514Y-2.5246
T5
X3.694Y-3.6737
X3.794Y-3.6737
X3.894Y-3.6737
X3.994Y-3.6737
X4.094Y-3.6737
X4.194Y-3.6737
X4.294Y-3.6737
X4.394Y-3.6737
X4.494Y-3.6737
X4.594Y-3.6737
X4.694Y-3.6737
X4.794Y-3.6737
X4.894Y-3.6737
X4.994Y-3.6737
X5.094Y-3.6737
X5.194Y-3.6737
X5.294Y-3.6737
X5.394Y-3.6737
X3.694Y-2.7737
X3.794Y-2.7737
X3.894Y-2.7737
X3.994Y-2.7737
X4.094Y-2.7737
X4.194Y-2.7737
X4.294Y-2.7737
X4.394Y-2.7737
X4.494Y-2.7737
X4.594Y-2.7737
X4.694Y-2.7737
X4.794Y-2.7737
X4.894Y-2.7737
X4.994Y-2.7737
X5.094Y-2.7737
X5.194Y-2.7737
X5.294Y-2.7737
X5.394Y-2.7737
X5.685Y-2.4646
X5.785Y-2.4646
X5.885Y-2.4646
X5.985Y-2.4646
X6.085Y-2.4646
X6.185Y-2.4646
X6.285Y-2.4646
X6.385Y-2.4646
X6.485Y-2.4646
X6.585Y-2.4646
X6.685Y-2.4646
X6.785Y-2.4646
X6.885Y-2.4646
X6.985Y-2.4646
X4.6103Y-3.9319
X4.6103Y-4.0319
X4.6103Y-4.1319
X5.9247Y-3.6376
X6.0247Y-3.6376
X6.1247Y-3.6376
X6.2247Y-3.6376
X6.3247Y-3.6376
X6.4247Y-3.6376
X6.5247Y-3.6376
X4.822Y-2.4724
X4.922Y-2.4724
X5.022Y-2.4724
X5.122Y-2.4724
X4.7798Y-4.3224
X4.8798Y-4.3224
X4.9798Y-4.3224
X5.0798Y-4.3224
X5.1798Y-4.3224
X5.2798Y-4.3224
X5.3798Y-4.3224
X5.4798Y-4.3224
T6
X7.4094Y-2.7795
X7.4094Y-2.9173
X7.4094Y-3.0551
T7
X3.7604Y-3.851
X3.7604Y-4.127
X4.125Y-2.6226
X4.401Y-2.6226
T0
M30
