%TF.GenerationSoftware,KiCad,Pcbnew,5.1.6-c6e7f7d~87~ubuntu18.04.1*%
%TF.CreationDate,2021-01-08T11:56:29-05:00*%
%TF.ProjectId,remote,72656d6f-7465-42e6-9b69-6361645f7063,rev?*%
%TF.SameCoordinates,Original*%
%TF.FileFunction,Soldermask,Top*%
%TF.FilePolarity,Negative*%
%FSLAX46Y46*%
G04 Gerber Fmt 4.6, Leading zero omitted, Abs format (unit mm)*
G04 Created by KiCad (PCBNEW 5.1.6-c6e7f7d~87~ubuntu18.04.1) date 2021-01-08 11:56:29*
%MOMM*%
%LPD*%
G01*
G04 APERTURE LIST*
%ADD10C,2.500000*%
%ADD11R,2.500000X2.500000*%
%ADD12O,1.700000X1.700000*%
%ADD13C,1.700000*%
%ADD14R,1.800000X1.800000*%
%ADD15O,1.800000X1.800000*%
%ADD16C,2.200000*%
%ADD17C,1.850000*%
%ADD18C,1.900000*%
%ADD19R,1.900000X1.900000*%
%ADD20C,2.800000*%
G04 APERTURE END LIST*
D10*
%TO.C,J6*%
X188200000Y-70600000D03*
X188200000Y-74100000D03*
D11*
X188200000Y-77600000D03*
%TD*%
D12*
%TO.C,R1*%
X137100000Y-86760000D03*
D13*
X137100000Y-76600000D03*
%TD*%
D14*
%TO.C,J8*%
X130100000Y-62800000D03*
D15*
X127560000Y-62800000D03*
X125020000Y-62800000D03*
X122480000Y-62800000D03*
%TD*%
D14*
%TO.C,J3*%
X144400000Y-62600000D03*
D15*
X146940000Y-62600000D03*
X149480000Y-62600000D03*
X152020000Y-62600000D03*
X154560000Y-62600000D03*
X157100000Y-62600000D03*
X159640000Y-62600000D03*
X162180000Y-62600000D03*
X164720000Y-62600000D03*
X167260000Y-62600000D03*
X169800000Y-62600000D03*
X172340000Y-62600000D03*
X174880000Y-62600000D03*
X177420000Y-62600000D03*
%TD*%
D14*
%TO.C,J2*%
X93828000Y-70452000D03*
D15*
X96368000Y-70452000D03*
X98908000Y-70452000D03*
X101448000Y-70452000D03*
X103988000Y-70452000D03*
X106528000Y-70452000D03*
X109068000Y-70452000D03*
X111608000Y-70452000D03*
X114148000Y-70452000D03*
X116688000Y-70452000D03*
X119228000Y-70452000D03*
X121768000Y-70452000D03*
X124308000Y-70452000D03*
X126848000Y-70452000D03*
X129388000Y-70452000D03*
X131928000Y-70452000D03*
X134468000Y-70452000D03*
X137008000Y-70452000D03*
%TD*%
D16*
%TO.C,SW0*%
X95515000Y-97815000D03*
D17*
X93025000Y-99075000D03*
X93025000Y-103575000D03*
D16*
X95515000Y-104825000D03*
%TD*%
%TO.C,SW1*%
X104775000Y-66615000D03*
D17*
X106025000Y-64125000D03*
X110525000Y-64125000D03*
D16*
X111785000Y-66615000D03*
%TD*%
%TO.C,J5*%
G36*
G01*
X138850000Y-65450000D02*
X138850000Y-66750000D01*
G75*
G02*
X138675000Y-66925000I-175000J0D01*
G01*
X138325000Y-66925000D01*
G75*
G02*
X138150000Y-66750000I0J175000D01*
G01*
X138150000Y-65450000D01*
G75*
G02*
X138325000Y-65275000I175000J0D01*
G01*
X138675000Y-65275000D01*
G75*
G02*
X138850000Y-65450000I0J-175000D01*
G01*
G37*
G36*
G01*
X137850000Y-65450000D02*
X137850000Y-66750000D01*
G75*
G02*
X137675000Y-66925000I-175000J0D01*
G01*
X137325000Y-66925000D01*
G75*
G02*
X137150000Y-66750000I0J175000D01*
G01*
X137150000Y-65450000D01*
G75*
G02*
X137325000Y-65275000I175000J0D01*
G01*
X137675000Y-65275000D01*
G75*
G02*
X137850000Y-65450000I0J-175000D01*
G01*
G37*
G36*
G01*
X136850000Y-65450000D02*
X136850000Y-66750000D01*
G75*
G02*
X136675000Y-66925000I-175000J0D01*
G01*
X136325000Y-66925000D01*
G75*
G02*
X136150000Y-66750000I0J175000D01*
G01*
X136150000Y-65450000D01*
G75*
G02*
X136325000Y-65275000I175000J0D01*
G01*
X136675000Y-65275000D01*
G75*
G02*
X136850000Y-65450000I0J-175000D01*
G01*
G37*
G36*
G01*
X135850000Y-65450000D02*
X135850000Y-66750000D01*
G75*
G02*
X135675000Y-66925000I-175000J0D01*
G01*
X135325000Y-66925000D01*
G75*
G02*
X135150000Y-66750000I0J175000D01*
G01*
X135150000Y-65450000D01*
G75*
G02*
X135325000Y-65275000I175000J0D01*
G01*
X135675000Y-65275000D01*
G75*
G02*
X135850000Y-65450000I0J-175000D01*
G01*
G37*
G36*
G01*
X140450000Y-61545832D02*
X140450000Y-62904168D01*
G75*
G02*
X140179168Y-63175000I-270832J0D01*
G01*
X139420832Y-63175000D01*
G75*
G02*
X139150000Y-62904168I0J270832D01*
G01*
X139150000Y-61545832D01*
G75*
G02*
X139420832Y-61275000I270832J0D01*
G01*
X140179168Y-61275000D01*
G75*
G02*
X140450000Y-61545832I0J-270832D01*
G01*
G37*
G36*
G01*
X134850000Y-61545832D02*
X134850000Y-62904168D01*
G75*
G02*
X134579168Y-63175000I-270832J0D01*
G01*
X133820832Y-63175000D01*
G75*
G02*
X133550000Y-62904168I0J270832D01*
G01*
X133550000Y-61545832D01*
G75*
G02*
X133820832Y-61275000I270832J0D01*
G01*
X134579168Y-61275000D01*
G75*
G02*
X134850000Y-61545832I0J-270832D01*
G01*
G37*
%TD*%
D12*
%TO.C,R4*%
X124300000Y-76640000D03*
D13*
X124300000Y-86800000D03*
%TD*%
D18*
%TO.C,D1*%
X145500000Y-96640000D03*
D19*
X145500000Y-94100000D03*
%TD*%
D20*
%TO.C,H1*%
X99956000Y-111676000D03*
%TD*%
D15*
%TO.C,J4*%
X117102000Y-99870000D03*
X117102000Y-102410000D03*
D14*
X117102000Y-104950000D03*
%TD*%
%TO.C,J1*%
X93828000Y-93312000D03*
D15*
X96368000Y-93312000D03*
X98908000Y-93312000D03*
X101448000Y-93312000D03*
X103988000Y-93312000D03*
X106528000Y-93312000D03*
X109068000Y-93312000D03*
X111608000Y-93312000D03*
X114148000Y-93312000D03*
X116688000Y-93312000D03*
X119228000Y-93312000D03*
X121768000Y-93312000D03*
X124308000Y-93312000D03*
X126848000Y-93312000D03*
X129388000Y-93312000D03*
X131928000Y-93312000D03*
X134468000Y-93312000D03*
X137008000Y-93312000D03*
%TD*%
D13*
%TO.C,R5*%
X118956000Y-86944000D03*
D12*
X118956000Y-76784000D03*
%TD*%
D13*
%TO.C,R6*%
X116000000Y-86944000D03*
D12*
X116000000Y-76784000D03*
%TD*%
D15*
%TO.C,J11*%
X139186000Y-109788000D03*
X136646000Y-109788000D03*
X134106000Y-109788000D03*
X131566000Y-109788000D03*
X129026000Y-109788000D03*
X126486000Y-109788000D03*
X123946000Y-109788000D03*
D14*
X121406000Y-109788000D03*
%TD*%
D15*
%TO.C,J9*%
X165728000Y-92396000D03*
X163188000Y-92396000D03*
X160648000Y-92396000D03*
X158108000Y-92396000D03*
X155568000Y-92396000D03*
X153028000Y-92396000D03*
D14*
X150488000Y-92396000D03*
%TD*%
D20*
%TO.C,H4*%
X182956000Y-111676000D03*
%TD*%
%TO.C,H3*%
X99956000Y-63676000D03*
%TD*%
%TO.C,H2*%
X182956000Y-63676000D03*
%TD*%
D12*
%TO.C,R3*%
X129100000Y-76640000D03*
D13*
X129100000Y-86800000D03*
%TD*%
D12*
%TO.C,R2*%
X132200000Y-76640000D03*
D13*
X132200000Y-86800000D03*
%TD*%
M02*
