%TF.GenerationSoftware,KiCad,Pcbnew,5.1.6-c6e7f7d~87~ubuntu18.04.1*%
%TF.CreationDate,2020-12-14T21:37:13-05:00*%
%TF.ProjectId,remote,72656d6f-7465-42e6-9b69-6361645f7063,rev?*%
%TF.SameCoordinates,Original*%
%TF.FileFunction,Soldermask,Bot*%
%TF.FilePolarity,Negative*%
%FSLAX46Y46*%
G04 Gerber Fmt 4.6, Leading zero omitted, Abs format (unit mm)*
G04 Created by KiCad (PCBNEW 5.1.6-c6e7f7d~87~ubuntu18.04.1) date 2020-12-14 21:37:13*
%MOMM*%
%LPD*%
G01*
G04 APERTURE LIST*
%ADD10O,1.800000X1.800000*%
%ADD11R,1.800000X1.800000*%
%ADD12C,2.200000*%
%ADD13C,1.850000*%
%ADD14O,1.700000X1.700000*%
%ADD15C,1.700000*%
%ADD16C,1.900000*%
%ADD17R,1.900000X1.900000*%
%ADD18C,2.800000*%
G04 APERTURE END LIST*
D10*
%TO.C,J2*%
X115570000Y-76708000D03*
X113030000Y-76708000D03*
X110490000Y-76708000D03*
X107950000Y-76708000D03*
X105410000Y-76708000D03*
X102870000Y-76708000D03*
X100330000Y-76708000D03*
X97790000Y-76708000D03*
X95250000Y-76708000D03*
X92710000Y-76708000D03*
X90170000Y-76708000D03*
X87630000Y-76708000D03*
X85090000Y-76708000D03*
X82550000Y-76708000D03*
X80010000Y-76708000D03*
X77470000Y-76708000D03*
X74930000Y-76708000D03*
D11*
X72390000Y-76708000D03*
%TD*%
D12*
%TO.C,SW2*%
X68276000Y-123678000D03*
D13*
X65786000Y-122428000D03*
X65786000Y-117928000D03*
D12*
X68276000Y-116668000D03*
%TD*%
%TO.C,SW1*%
X68276000Y-113264000D03*
D13*
X65786000Y-112014000D03*
X65786000Y-107514000D03*
D12*
X68276000Y-106254000D03*
%TD*%
D10*
%TO.C,J3*%
X152908000Y-122936000D03*
X152908000Y-120396000D03*
X152908000Y-117856000D03*
X152908000Y-115316000D03*
X152908000Y-112776000D03*
X152908000Y-110236000D03*
X152908000Y-107696000D03*
X152908000Y-105156000D03*
X152908000Y-102616000D03*
X152908000Y-100076000D03*
X152908000Y-97536000D03*
X152908000Y-94996000D03*
X152908000Y-92456000D03*
X152908000Y-89916000D03*
D11*
X152908000Y-87376000D03*
%TD*%
D14*
%TO.C,RS3*%
X132842000Y-75946000D03*
D15*
X132842000Y-86106000D03*
%TD*%
D16*
%TO.C,D2*%
X143250000Y-129040000D03*
D17*
X143250000Y-126500000D03*
%TD*%
D18*
%TO.C,H1*%
X66548000Y-66802000D03*
%TD*%
D14*
%TO.C,RS2*%
X129286000Y-75946000D03*
D15*
X129286000Y-86106000D03*
%TD*%
D16*
%TO.C,D1*%
X129540000Y-94488000D03*
D17*
X129540000Y-91948000D03*
%TD*%
D10*
%TO.C,J4*%
X145034000Y-83312000D03*
X145034000Y-80772000D03*
D11*
X145034000Y-78232000D03*
%TD*%
D10*
%TO.C,J1*%
X115570000Y-99568000D03*
X113030000Y-99568000D03*
X110490000Y-99568000D03*
X107950000Y-99568000D03*
X105410000Y-99568000D03*
X102870000Y-99568000D03*
X100330000Y-99568000D03*
X97790000Y-99568000D03*
X95250000Y-99568000D03*
X92710000Y-99568000D03*
X90170000Y-99568000D03*
X87630000Y-99568000D03*
X85090000Y-99568000D03*
X82550000Y-99568000D03*
X80010000Y-99568000D03*
X77470000Y-99568000D03*
X74930000Y-99568000D03*
D11*
X72390000Y-99568000D03*
%TD*%
D15*
%TO.C,RS1*%
X105732000Y-88912000D03*
D14*
X115892000Y-88912000D03*
%TD*%
D15*
%TO.C,RS0*%
X105732000Y-85102000D03*
D14*
X115892000Y-85102000D03*
%TD*%
D10*
%TO.C,J11*%
X124968000Y-108966000D03*
X127508000Y-108966000D03*
X130048000Y-108966000D03*
X132588000Y-108966000D03*
X135128000Y-108966000D03*
X137668000Y-108966000D03*
X140208000Y-108966000D03*
D11*
X142748000Y-108966000D03*
%TD*%
%TO.C,J9*%
X78232000Y-108712000D03*
D10*
X80772000Y-108712000D03*
X83312000Y-108712000D03*
X85852000Y-108712000D03*
X88392000Y-108712000D03*
X90932000Y-108712000D03*
X93472000Y-108712000D03*
%TD*%
D18*
%TO.C,H4*%
X151630000Y-128800000D03*
%TD*%
%TO.C,H3*%
X66294000Y-128800000D03*
%TD*%
%TO.C,H2*%
X151630000Y-66802000D03*
%TD*%
D14*
%TO.C,R3*%
X108712000Y-116078000D03*
D15*
X98552000Y-116078000D03*
%TD*%
D14*
%TO.C,R2*%
X108712000Y-119380000D03*
D15*
X98552000Y-119380000D03*
%TD*%
M02*
