%TF.GenerationSoftware,KiCad,Pcbnew,5.1.6-c6e7f7d~87~ubuntu18.04.1*%
%TF.CreationDate,2020-12-14T21:37:13-05:00*%
%TF.ProjectId,remote,72656d6f-7465-42e6-9b69-6361645f7063,rev?*%
%TF.SameCoordinates,Original*%
%TF.FileFunction,Legend,Top*%
%TF.FilePolarity,Positive*%
%FSLAX46Y46*%
G04 Gerber Fmt 4.6, Leading zero omitted, Abs format (unit mm)*
G04 Created by KiCad (PCBNEW 5.1.6-c6e7f7d~87~ubuntu18.04.1) date 2020-12-14 21:37:13*
%MOMM*%
%LPD*%
G01*
G04 APERTURE LIST*
%ADD10C,0.120000*%
%ADD11C,0.150000*%
%ADD12C,0.010000*%
G04 APERTURE END LIST*
D10*
X120250000Y-131250000D02*
X120250000Y-125250000D01*
X134500000Y-131250000D02*
X120250000Y-131250000D01*
X134500000Y-125250000D02*
X134500000Y-131250000D01*
X120250000Y-125250000D02*
X134500000Y-125250000D01*
D11*
X121476071Y-126371428D02*
X121109404Y-126371428D01*
X121109404Y-126947619D02*
X121109404Y-125847619D01*
X121633214Y-125847619D01*
X122209404Y-126947619D02*
X122104642Y-126895238D01*
X122052261Y-126842857D01*
X121999880Y-126738095D01*
X121999880Y-126423809D01*
X122052261Y-126319047D01*
X122104642Y-126266666D01*
X122209404Y-126214285D01*
X122366547Y-126214285D01*
X122471309Y-126266666D01*
X122523690Y-126319047D01*
X122576071Y-126423809D01*
X122576071Y-126738095D01*
X122523690Y-126842857D01*
X122471309Y-126895238D01*
X122366547Y-126947619D01*
X122209404Y-126947619D01*
X123047500Y-126947619D02*
X123047500Y-126214285D01*
X123047500Y-126423809D02*
X123099880Y-126319047D01*
X123152261Y-126266666D01*
X123257023Y-126214285D01*
X123361785Y-126214285D01*
X125037976Y-126895238D02*
X124933214Y-126947619D01*
X124723690Y-126947619D01*
X124618928Y-126895238D01*
X124566547Y-126842857D01*
X124514166Y-126738095D01*
X124514166Y-126423809D01*
X124566547Y-126319047D01*
X124618928Y-126266666D01*
X124723690Y-126214285D01*
X124933214Y-126214285D01*
X125037976Y-126266666D01*
X125980833Y-126947619D02*
X125980833Y-126371428D01*
X125928452Y-126266666D01*
X125823690Y-126214285D01*
X125614166Y-126214285D01*
X125509404Y-126266666D01*
X125980833Y-126895238D02*
X125876071Y-126947619D01*
X125614166Y-126947619D01*
X125509404Y-126895238D01*
X125457023Y-126790476D01*
X125457023Y-126685714D01*
X125509404Y-126580952D01*
X125614166Y-126528571D01*
X125876071Y-126528571D01*
X125980833Y-126476190D01*
X126661785Y-126947619D02*
X126557023Y-126895238D01*
X126504642Y-126790476D01*
X126504642Y-125847619D01*
X127080833Y-126947619D02*
X127080833Y-126214285D01*
X127080833Y-125847619D02*
X127028452Y-125900000D01*
X127080833Y-125952380D01*
X127133214Y-125900000D01*
X127080833Y-125847619D01*
X127080833Y-125952380D01*
X127604642Y-126947619D02*
X127604642Y-125847619D01*
X127604642Y-126266666D02*
X127709404Y-126214285D01*
X127918928Y-126214285D01*
X128023690Y-126266666D01*
X128076071Y-126319047D01*
X128128452Y-126423809D01*
X128128452Y-126738095D01*
X128076071Y-126842857D01*
X128023690Y-126895238D01*
X127918928Y-126947619D01*
X127709404Y-126947619D01*
X127604642Y-126895238D01*
X128599880Y-126947619D02*
X128599880Y-126214285D01*
X128599880Y-126423809D02*
X128652261Y-126319047D01*
X128704642Y-126266666D01*
X128809404Y-126214285D01*
X128914166Y-126214285D01*
X129752261Y-126947619D02*
X129752261Y-126371428D01*
X129699880Y-126266666D01*
X129595119Y-126214285D01*
X129385595Y-126214285D01*
X129280833Y-126266666D01*
X129752261Y-126895238D02*
X129647500Y-126947619D01*
X129385595Y-126947619D01*
X129280833Y-126895238D01*
X129228452Y-126790476D01*
X129228452Y-126685714D01*
X129280833Y-126580952D01*
X129385595Y-126528571D01*
X129647500Y-126528571D01*
X129752261Y-126476190D01*
X130118928Y-126214285D02*
X130537976Y-126214285D01*
X130276071Y-125847619D02*
X130276071Y-126790476D01*
X130328452Y-126895238D01*
X130433214Y-126947619D01*
X130537976Y-126947619D01*
X130904642Y-126947619D02*
X130904642Y-126214285D01*
X130904642Y-125847619D02*
X130852261Y-125900000D01*
X130904642Y-125952380D01*
X130957023Y-125900000D01*
X130904642Y-125847619D01*
X130904642Y-125952380D01*
X131585595Y-126947619D02*
X131480833Y-126895238D01*
X131428452Y-126842857D01*
X131376071Y-126738095D01*
X131376071Y-126423809D01*
X131428452Y-126319047D01*
X131480833Y-126266666D01*
X131585595Y-126214285D01*
X131742738Y-126214285D01*
X131847500Y-126266666D01*
X131899880Y-126319047D01*
X131952261Y-126423809D01*
X131952261Y-126738095D01*
X131899880Y-126842857D01*
X131847500Y-126895238D01*
X131742738Y-126947619D01*
X131585595Y-126947619D01*
X132423690Y-126214285D02*
X132423690Y-126947619D01*
X132423690Y-126319047D02*
X132476071Y-126266666D01*
X132580833Y-126214285D01*
X132737976Y-126214285D01*
X132842738Y-126266666D01*
X132895119Y-126371428D01*
X132895119Y-126947619D01*
X121109404Y-128014285D02*
X121109404Y-129114285D01*
X121109404Y-128066666D02*
X121214166Y-128014285D01*
X121423690Y-128014285D01*
X121528452Y-128066666D01*
X121580833Y-128119047D01*
X121633214Y-128223809D01*
X121633214Y-128538095D01*
X121580833Y-128642857D01*
X121528452Y-128695238D01*
X121423690Y-128747619D01*
X121214166Y-128747619D01*
X121109404Y-128695238D01*
X122104642Y-128747619D02*
X122104642Y-128014285D01*
X122104642Y-128223809D02*
X122157023Y-128119047D01*
X122209404Y-128066666D01*
X122314166Y-128014285D01*
X122418928Y-128014285D01*
X122942738Y-128747619D02*
X122837976Y-128695238D01*
X122785595Y-128642857D01*
X122733214Y-128538095D01*
X122733214Y-128223809D01*
X122785595Y-128119047D01*
X122837976Y-128066666D01*
X122942738Y-128014285D01*
X123099880Y-128014285D01*
X123204642Y-128066666D01*
X123257023Y-128119047D01*
X123309404Y-128223809D01*
X123309404Y-128538095D01*
X123257023Y-128642857D01*
X123204642Y-128695238D01*
X123099880Y-128747619D01*
X122942738Y-128747619D01*
X124252261Y-128695238D02*
X124147500Y-128747619D01*
X123937976Y-128747619D01*
X123833214Y-128695238D01*
X123780833Y-128642857D01*
X123728452Y-128538095D01*
X123728452Y-128223809D01*
X123780833Y-128119047D01*
X123833214Y-128066666D01*
X123937976Y-128014285D01*
X124147500Y-128014285D01*
X124252261Y-128066666D01*
X125142738Y-128695238D02*
X125037976Y-128747619D01*
X124828452Y-128747619D01*
X124723690Y-128695238D01*
X124671309Y-128590476D01*
X124671309Y-128171428D01*
X124723690Y-128066666D01*
X124828452Y-128014285D01*
X125037976Y-128014285D01*
X125142738Y-128066666D01*
X125195119Y-128171428D01*
X125195119Y-128276190D01*
X124671309Y-128380952D01*
X126137976Y-128747619D02*
X126137976Y-127647619D01*
X126137976Y-128695238D02*
X126033214Y-128747619D01*
X125823690Y-128747619D01*
X125718928Y-128695238D01*
X125666547Y-128642857D01*
X125614166Y-128538095D01*
X125614166Y-128223809D01*
X125666547Y-128119047D01*
X125718928Y-128066666D01*
X125823690Y-128014285D01*
X126033214Y-128014285D01*
X126137976Y-128066666D01*
X127133214Y-128014285D02*
X127133214Y-128747619D01*
X126661785Y-128014285D02*
X126661785Y-128590476D01*
X126714166Y-128695238D01*
X126818928Y-128747619D01*
X126976071Y-128747619D01*
X127080833Y-128695238D01*
X127133214Y-128642857D01*
X127657023Y-128747619D02*
X127657023Y-128014285D01*
X127657023Y-128223809D02*
X127709404Y-128119047D01*
X127761785Y-128066666D01*
X127866547Y-128014285D01*
X127971309Y-128014285D01*
X128757023Y-128695238D02*
X128652261Y-128747619D01*
X128442738Y-128747619D01*
X128337976Y-128695238D01*
X128285595Y-128590476D01*
X128285595Y-128171428D01*
X128337976Y-128066666D01*
X128442738Y-128014285D01*
X128652261Y-128014285D01*
X128757023Y-128066666D01*
X128809404Y-128171428D01*
X128809404Y-128276190D01*
X128285595Y-128380952D01*
X130014166Y-128014285D02*
X130276071Y-128747619D01*
X130537976Y-128014285D01*
X130957023Y-128747619D02*
X130957023Y-128014285D01*
X130957023Y-127647619D02*
X130904642Y-127700000D01*
X130957023Y-127752380D01*
X131009404Y-127700000D01*
X130957023Y-127647619D01*
X130957023Y-127752380D01*
X131428452Y-128695238D02*
X131533214Y-128747619D01*
X131742738Y-128747619D01*
X131847500Y-128695238D01*
X131899880Y-128590476D01*
X131899880Y-128538095D01*
X131847500Y-128433333D01*
X131742738Y-128380952D01*
X131585595Y-128380952D01*
X131480833Y-128328571D01*
X131428452Y-128223809D01*
X131428452Y-128171428D01*
X131480833Y-128066666D01*
X131585595Y-128014285D01*
X131742738Y-128014285D01*
X131847500Y-128066666D01*
X132371309Y-128747619D02*
X132371309Y-128014285D01*
X132371309Y-127647619D02*
X132318928Y-127700000D01*
X132371309Y-127752380D01*
X132423690Y-127700000D01*
X132371309Y-127647619D01*
X132371309Y-127752380D01*
X132737976Y-128014285D02*
X133157023Y-128014285D01*
X132895119Y-127647619D02*
X132895119Y-128590476D01*
X132947500Y-128695238D01*
X133052261Y-128747619D01*
X133157023Y-128747619D01*
X133523690Y-128642857D02*
X133576071Y-128695238D01*
X133523690Y-128747619D01*
X133471309Y-128695238D01*
X133523690Y-128642857D01*
X133523690Y-128747619D01*
X133523690Y-128066666D02*
X133576071Y-128119047D01*
X133523690Y-128171428D01*
X133471309Y-128119047D01*
X133523690Y-128066666D01*
X133523690Y-128171428D01*
X121109404Y-129814285D02*
X121109404Y-130914285D01*
X121109404Y-129866666D02*
X121214166Y-129814285D01*
X121423690Y-129814285D01*
X121528452Y-129866666D01*
X121580833Y-129919047D01*
X121633214Y-130023809D01*
X121633214Y-130338095D01*
X121580833Y-130442857D01*
X121528452Y-130495238D01*
X121423690Y-130547619D01*
X121214166Y-130547619D01*
X121109404Y-130495238D01*
X121999880Y-129814285D02*
X122261785Y-130547619D01*
X122523690Y-129814285D01*
X123099880Y-130547619D02*
X122995119Y-130495238D01*
X122942738Y-130442857D01*
X122890357Y-130338095D01*
X122890357Y-130023809D01*
X122942738Y-129919047D01*
X122995119Y-129866666D01*
X123099880Y-129814285D01*
X123257023Y-129814285D01*
X123361785Y-129866666D01*
X123414166Y-129919047D01*
X123466547Y-130023809D01*
X123466547Y-130338095D01*
X123414166Y-130442857D01*
X123361785Y-130495238D01*
X123257023Y-130547619D01*
X123099880Y-130547619D01*
X123885595Y-130495238D02*
X123990357Y-130547619D01*
X124199880Y-130547619D01*
X124304642Y-130495238D01*
X124357023Y-130390476D01*
X124357023Y-130338095D01*
X124304642Y-130233333D01*
X124199880Y-130180952D01*
X124042738Y-130180952D01*
X123937976Y-130128571D01*
X123885595Y-130023809D01*
X123885595Y-129971428D01*
X123937976Y-129866666D01*
X124042738Y-129814285D01*
X124199880Y-129814285D01*
X124304642Y-129866666D01*
X124828452Y-130442857D02*
X124880833Y-130495238D01*
X124828452Y-130547619D01*
X124776071Y-130495238D01*
X124828452Y-130442857D01*
X124828452Y-130547619D01*
X125509404Y-130547619D02*
X125404642Y-130495238D01*
X125352261Y-130442857D01*
X125299880Y-130338095D01*
X125299880Y-130023809D01*
X125352261Y-129919047D01*
X125404642Y-129866666D01*
X125509404Y-129814285D01*
X125666547Y-129814285D01*
X125771309Y-129866666D01*
X125823690Y-129919047D01*
X125876071Y-130023809D01*
X125876071Y-130338095D01*
X125823690Y-130442857D01*
X125771309Y-130495238D01*
X125666547Y-130547619D01*
X125509404Y-130547619D01*
X126347500Y-130547619D02*
X126347500Y-129814285D01*
X126347500Y-130023809D02*
X126399880Y-129919047D01*
X126452261Y-129866666D01*
X126557023Y-129814285D01*
X126661785Y-129814285D01*
X127499880Y-129814285D02*
X127499880Y-130704761D01*
X127447500Y-130809523D01*
X127395119Y-130861904D01*
X127290357Y-130914285D01*
X127133214Y-130914285D01*
X127028452Y-130861904D01*
X127499880Y-130495238D02*
X127395119Y-130547619D01*
X127185595Y-130547619D01*
X127080833Y-130495238D01*
X127028452Y-130442857D01*
X126976071Y-130338095D01*
X126976071Y-130023809D01*
X127028452Y-129919047D01*
X127080833Y-129866666D01*
X127185595Y-129814285D01*
X127395119Y-129814285D01*
X127499880Y-129866666D01*
X128809404Y-129395238D02*
X127866547Y-130809523D01*
X129647500Y-130495238D02*
X129542738Y-130547619D01*
X129333214Y-130547619D01*
X129228452Y-130495238D01*
X129176071Y-130442857D01*
X129123690Y-130338095D01*
X129123690Y-130023809D01*
X129176071Y-129919047D01*
X129228452Y-129866666D01*
X129333214Y-129814285D01*
X129542738Y-129814285D01*
X129647500Y-129866666D01*
X130276071Y-130547619D02*
X130171309Y-130495238D01*
X130118928Y-130442857D01*
X130066547Y-130338095D01*
X130066547Y-130023809D01*
X130118928Y-129919047D01*
X130171309Y-129866666D01*
X130276071Y-129814285D01*
X130433214Y-129814285D01*
X130537976Y-129866666D01*
X130590357Y-129919047D01*
X130642738Y-130023809D01*
X130642738Y-130338095D01*
X130590357Y-130442857D01*
X130537976Y-130495238D01*
X130433214Y-130547619D01*
X130276071Y-130547619D01*
X131061785Y-129552380D02*
X131114166Y-129500000D01*
X131218928Y-129447619D01*
X131480833Y-129447619D01*
X131585595Y-129500000D01*
X131637976Y-129552380D01*
X131690357Y-129657142D01*
X131690357Y-129761904D01*
X131637976Y-129919047D01*
X131009404Y-130547619D01*
X131690357Y-130547619D01*
X132947500Y-129395238D02*
X132004642Y-130809523D01*
X133733214Y-130495238D02*
X133628452Y-130547619D01*
X133418928Y-130547619D01*
X133314166Y-130495238D01*
X133261785Y-130390476D01*
X133261785Y-129971428D01*
X133314166Y-129866666D01*
X133418928Y-129814285D01*
X133628452Y-129814285D01*
X133733214Y-129866666D01*
X133785595Y-129971428D01*
X133785595Y-130076190D01*
X133261785Y-130180952D01*
X125421547Y-101497619D02*
X125631071Y-101497619D01*
X125735833Y-101550000D01*
X125840595Y-101654761D01*
X125892976Y-101864285D01*
X125892976Y-102230952D01*
X125840595Y-102440476D01*
X125735833Y-102545238D01*
X125631071Y-102597619D01*
X125421547Y-102597619D01*
X125316785Y-102545238D01*
X125212023Y-102440476D01*
X125159642Y-102230952D01*
X125159642Y-101864285D01*
X125212023Y-101654761D01*
X125316785Y-101550000D01*
X125421547Y-101497619D01*
X126364404Y-101864285D02*
X126364404Y-102964285D01*
X126364404Y-101916666D02*
X126469166Y-101864285D01*
X126678690Y-101864285D01*
X126783452Y-101916666D01*
X126835833Y-101969047D01*
X126888214Y-102073809D01*
X126888214Y-102388095D01*
X126835833Y-102492857D01*
X126783452Y-102545238D01*
X126678690Y-102597619D01*
X126469166Y-102597619D01*
X126364404Y-102545238D01*
X127202500Y-101864285D02*
X127621547Y-101864285D01*
X127359642Y-101497619D02*
X127359642Y-102440476D01*
X127412023Y-102545238D01*
X127516785Y-102597619D01*
X127621547Y-102597619D01*
X127988214Y-102597619D02*
X127988214Y-101864285D01*
X127988214Y-101497619D02*
X127935833Y-101550000D01*
X127988214Y-101602380D01*
X128040595Y-101550000D01*
X127988214Y-101497619D01*
X127988214Y-101602380D01*
X128669166Y-102597619D02*
X128564404Y-102545238D01*
X128512023Y-102492857D01*
X128459642Y-102388095D01*
X128459642Y-102073809D01*
X128512023Y-101969047D01*
X128564404Y-101916666D01*
X128669166Y-101864285D01*
X128826309Y-101864285D01*
X128931071Y-101916666D01*
X128983452Y-101969047D01*
X129035833Y-102073809D01*
X129035833Y-102388095D01*
X128983452Y-102492857D01*
X128931071Y-102545238D01*
X128826309Y-102597619D01*
X128669166Y-102597619D01*
X129507261Y-101864285D02*
X129507261Y-102597619D01*
X129507261Y-101969047D02*
X129559642Y-101916666D01*
X129664404Y-101864285D01*
X129821547Y-101864285D01*
X129926309Y-101916666D01*
X129978690Y-102021428D01*
X129978690Y-102597619D01*
X130973928Y-102597619D02*
X130973928Y-102021428D01*
X130921547Y-101916666D01*
X130816785Y-101864285D01*
X130607261Y-101864285D01*
X130502500Y-101916666D01*
X130973928Y-102545238D02*
X130869166Y-102597619D01*
X130607261Y-102597619D01*
X130502500Y-102545238D01*
X130450119Y-102440476D01*
X130450119Y-102335714D01*
X130502500Y-102230952D01*
X130607261Y-102178571D01*
X130869166Y-102178571D01*
X130973928Y-102126190D01*
X131654880Y-102597619D02*
X131550119Y-102545238D01*
X131497738Y-102440476D01*
X131497738Y-101497619D01*
X132912023Y-101864285D02*
X132912023Y-102964285D01*
X132912023Y-101916666D02*
X133016785Y-101864285D01*
X133226309Y-101864285D01*
X133331071Y-101916666D01*
X133383452Y-101969047D01*
X133435833Y-102073809D01*
X133435833Y-102388095D01*
X133383452Y-102492857D01*
X133331071Y-102545238D01*
X133226309Y-102597619D01*
X133016785Y-102597619D01*
X132912023Y-102545238D01*
X133907261Y-102597619D02*
X133907261Y-101864285D01*
X133907261Y-102073809D02*
X133959642Y-101969047D01*
X134012023Y-101916666D01*
X134116785Y-101864285D01*
X134221547Y-101864285D01*
X135007261Y-102545238D02*
X134902500Y-102597619D01*
X134692976Y-102597619D01*
X134588214Y-102545238D01*
X134535833Y-102440476D01*
X134535833Y-102021428D01*
X134588214Y-101916666D01*
X134692976Y-101864285D01*
X134902500Y-101864285D01*
X135007261Y-101916666D01*
X135059642Y-102021428D01*
X135059642Y-102126190D01*
X134535833Y-102230952D01*
X135478690Y-102545238D02*
X135583452Y-102597619D01*
X135792976Y-102597619D01*
X135897738Y-102545238D01*
X135950119Y-102440476D01*
X135950119Y-102388095D01*
X135897738Y-102283333D01*
X135792976Y-102230952D01*
X135635833Y-102230952D01*
X135531071Y-102178571D01*
X135478690Y-102073809D01*
X135478690Y-102021428D01*
X135531071Y-101916666D01*
X135635833Y-101864285D01*
X135792976Y-101864285D01*
X135897738Y-101916666D01*
X136369166Y-102545238D02*
X136473928Y-102597619D01*
X136683452Y-102597619D01*
X136788214Y-102545238D01*
X136840595Y-102440476D01*
X136840595Y-102388095D01*
X136788214Y-102283333D01*
X136683452Y-102230952D01*
X136526309Y-102230952D01*
X136421547Y-102178571D01*
X136369166Y-102073809D01*
X136369166Y-102021428D01*
X136421547Y-101916666D01*
X136526309Y-101864285D01*
X136683452Y-101864285D01*
X136788214Y-101916666D01*
X137783452Y-101864285D02*
X137783452Y-102597619D01*
X137312023Y-101864285D02*
X137312023Y-102440476D01*
X137364404Y-102545238D01*
X137469166Y-102597619D01*
X137626309Y-102597619D01*
X137731071Y-102545238D01*
X137783452Y-102492857D01*
X138307261Y-102597619D02*
X138307261Y-101864285D01*
X138307261Y-102073809D02*
X138359642Y-101969047D01*
X138412023Y-101916666D01*
X138516785Y-101864285D01*
X138621547Y-101864285D01*
X139407261Y-102545238D02*
X139302500Y-102597619D01*
X139092976Y-102597619D01*
X138988214Y-102545238D01*
X138935833Y-102440476D01*
X138935833Y-102021428D01*
X138988214Y-101916666D01*
X139092976Y-101864285D01*
X139302500Y-101864285D01*
X139407261Y-101916666D01*
X139459642Y-102021428D01*
X139459642Y-102126190D01*
X138935833Y-102230952D01*
X140716785Y-102545238D02*
X140821547Y-102597619D01*
X141031071Y-102597619D01*
X141135833Y-102545238D01*
X141188214Y-102440476D01*
X141188214Y-102388095D01*
X141135833Y-102283333D01*
X141031071Y-102230952D01*
X140873928Y-102230952D01*
X140769166Y-102178571D01*
X140716785Y-102073809D01*
X140716785Y-102021428D01*
X140769166Y-101916666D01*
X140873928Y-101864285D01*
X141031071Y-101864285D01*
X141135833Y-101916666D01*
X142078690Y-102545238D02*
X141973928Y-102597619D01*
X141764404Y-102597619D01*
X141659642Y-102545238D01*
X141607261Y-102440476D01*
X141607261Y-102021428D01*
X141659642Y-101916666D01*
X141764404Y-101864285D01*
X141973928Y-101864285D01*
X142078690Y-101916666D01*
X142131071Y-102021428D01*
X142131071Y-102126190D01*
X141607261Y-102230952D01*
X142602500Y-101864285D02*
X142602500Y-102597619D01*
X142602500Y-101969047D02*
X142654880Y-101916666D01*
X142759642Y-101864285D01*
X142916785Y-101864285D01*
X143021547Y-101916666D01*
X143073928Y-102021428D01*
X143073928Y-102597619D01*
X143545357Y-102545238D02*
X143650119Y-102597619D01*
X143859642Y-102597619D01*
X143964404Y-102545238D01*
X144016785Y-102440476D01*
X144016785Y-102388095D01*
X143964404Y-102283333D01*
X143859642Y-102230952D01*
X143702500Y-102230952D01*
X143597738Y-102178571D01*
X143545357Y-102073809D01*
X143545357Y-102021428D01*
X143597738Y-101916666D01*
X143702500Y-101864285D01*
X143859642Y-101864285D01*
X143964404Y-101916666D01*
X144645357Y-102597619D02*
X144540595Y-102545238D01*
X144488214Y-102492857D01*
X144435833Y-102388095D01*
X144435833Y-102073809D01*
X144488214Y-101969047D01*
X144540595Y-101916666D01*
X144645357Y-101864285D01*
X144802500Y-101864285D01*
X144907261Y-101916666D01*
X144959642Y-101969047D01*
X145012023Y-102073809D01*
X145012023Y-102388095D01*
X144959642Y-102492857D01*
X144907261Y-102545238D01*
X144802500Y-102597619D01*
X144645357Y-102597619D01*
X145483452Y-102597619D02*
X145483452Y-101864285D01*
X145483452Y-102073809D02*
X145535833Y-101969047D01*
X145588214Y-101916666D01*
X145692976Y-101864285D01*
X145797738Y-101864285D01*
X124269166Y-103664285D02*
X124688214Y-103664285D01*
X124426309Y-103297619D02*
X124426309Y-104240476D01*
X124478690Y-104345238D01*
X124583452Y-104397619D01*
X124688214Y-104397619D01*
X125212023Y-104397619D02*
X125107261Y-104345238D01*
X125054880Y-104292857D01*
X125002500Y-104188095D01*
X125002500Y-103873809D01*
X125054880Y-103769047D01*
X125107261Y-103716666D01*
X125212023Y-103664285D01*
X125369166Y-103664285D01*
X125473928Y-103716666D01*
X125526309Y-103769047D01*
X125578690Y-103873809D01*
X125578690Y-104188095D01*
X125526309Y-104292857D01*
X125473928Y-104345238D01*
X125369166Y-104397619D01*
X125212023Y-104397619D01*
X126888214Y-104397619D02*
X126888214Y-103664285D01*
X126888214Y-103297619D02*
X126835833Y-103350000D01*
X126888214Y-103402380D01*
X126940595Y-103350000D01*
X126888214Y-103297619D01*
X126888214Y-103402380D01*
X127412023Y-104397619D02*
X127412023Y-103664285D01*
X127412023Y-103769047D02*
X127464404Y-103716666D01*
X127569166Y-103664285D01*
X127726309Y-103664285D01*
X127831071Y-103716666D01*
X127883452Y-103821428D01*
X127883452Y-104397619D01*
X127883452Y-103821428D02*
X127935833Y-103716666D01*
X128040595Y-103664285D01*
X128197738Y-103664285D01*
X128302500Y-103716666D01*
X128354880Y-103821428D01*
X128354880Y-104397619D01*
X128878690Y-103664285D02*
X128878690Y-104764285D01*
X128878690Y-103716666D02*
X128983452Y-103664285D01*
X129192976Y-103664285D01*
X129297738Y-103716666D01*
X129350119Y-103769047D01*
X129402500Y-103873809D01*
X129402500Y-104188095D01*
X129350119Y-104292857D01*
X129297738Y-104345238D01*
X129192976Y-104397619D01*
X128983452Y-104397619D01*
X128878690Y-104345238D01*
X129873928Y-104397619D02*
X129873928Y-103664285D01*
X129873928Y-103873809D02*
X129926309Y-103769047D01*
X129978690Y-103716666D01*
X130083452Y-103664285D01*
X130188214Y-103664285D01*
X130712023Y-104397619D02*
X130607261Y-104345238D01*
X130554880Y-104292857D01*
X130502500Y-104188095D01*
X130502500Y-103873809D01*
X130554880Y-103769047D01*
X130607261Y-103716666D01*
X130712023Y-103664285D01*
X130869166Y-103664285D01*
X130973928Y-103716666D01*
X131026309Y-103769047D01*
X131078690Y-103873809D01*
X131078690Y-104188095D01*
X131026309Y-104292857D01*
X130973928Y-104345238D01*
X130869166Y-104397619D01*
X130712023Y-104397619D01*
X131445357Y-103664285D02*
X131707261Y-104397619D01*
X131969166Y-103664285D01*
X132807261Y-104345238D02*
X132702500Y-104397619D01*
X132492976Y-104397619D01*
X132388214Y-104345238D01*
X132335833Y-104240476D01*
X132335833Y-103821428D01*
X132388214Y-103716666D01*
X132492976Y-103664285D01*
X132702500Y-103664285D01*
X132807261Y-103716666D01*
X132859642Y-103821428D01*
X132859642Y-103926190D01*
X132335833Y-104030952D01*
X134797738Y-104292857D02*
X134745357Y-104345238D01*
X134588214Y-104397619D01*
X134483452Y-104397619D01*
X134326309Y-104345238D01*
X134221547Y-104240476D01*
X134169166Y-104135714D01*
X134116785Y-103926190D01*
X134116785Y-103769047D01*
X134169166Y-103559523D01*
X134221547Y-103454761D01*
X134326309Y-103350000D01*
X134483452Y-103297619D01*
X134588214Y-103297619D01*
X134745357Y-103350000D01*
X134797738Y-103402380D01*
X135478690Y-103297619D02*
X135688214Y-103297619D01*
X135792976Y-103350000D01*
X135897738Y-103454761D01*
X135950119Y-103664285D01*
X135950119Y-104030952D01*
X135897738Y-104240476D01*
X135792976Y-104345238D01*
X135688214Y-104397619D01*
X135478690Y-104397619D01*
X135373928Y-104345238D01*
X135269166Y-104240476D01*
X135216785Y-104030952D01*
X135216785Y-103664285D01*
X135269166Y-103454761D01*
X135373928Y-103350000D01*
X135478690Y-103297619D01*
X136369166Y-103402380D02*
X136421547Y-103350000D01*
X136526309Y-103297619D01*
X136788214Y-103297619D01*
X136892976Y-103350000D01*
X136945357Y-103402380D01*
X136997738Y-103507142D01*
X136997738Y-103611904D01*
X136945357Y-103769047D01*
X136316785Y-104397619D01*
X136997738Y-104397619D01*
X138778690Y-104397619D02*
X138778690Y-103821428D01*
X138726309Y-103716666D01*
X138621547Y-103664285D01*
X138412023Y-103664285D01*
X138307261Y-103716666D01*
X138778690Y-104345238D02*
X138673928Y-104397619D01*
X138412023Y-104397619D01*
X138307261Y-104345238D01*
X138254880Y-104240476D01*
X138254880Y-104135714D01*
X138307261Y-104030952D01*
X138412023Y-103978571D01*
X138673928Y-103978571D01*
X138778690Y-103926190D01*
X139773928Y-104345238D02*
X139669166Y-104397619D01*
X139459642Y-104397619D01*
X139354880Y-104345238D01*
X139302500Y-104292857D01*
X139250119Y-104188095D01*
X139250119Y-103873809D01*
X139302500Y-103769047D01*
X139354880Y-103716666D01*
X139459642Y-103664285D01*
X139669166Y-103664285D01*
X139773928Y-103716666D01*
X140716785Y-104345238D02*
X140612023Y-104397619D01*
X140402500Y-104397619D01*
X140297738Y-104345238D01*
X140245357Y-104292857D01*
X140192976Y-104188095D01*
X140192976Y-103873809D01*
X140245357Y-103769047D01*
X140297738Y-103716666D01*
X140402500Y-103664285D01*
X140612023Y-103664285D01*
X140716785Y-103716666D01*
X141659642Y-103664285D02*
X141659642Y-104397619D01*
X141188214Y-103664285D02*
X141188214Y-104240476D01*
X141240595Y-104345238D01*
X141345357Y-104397619D01*
X141502500Y-104397619D01*
X141607261Y-104345238D01*
X141659642Y-104292857D01*
X142183452Y-104397619D02*
X142183452Y-103664285D01*
X142183452Y-103873809D02*
X142235833Y-103769047D01*
X142288214Y-103716666D01*
X142392976Y-103664285D01*
X142497738Y-103664285D01*
X143335833Y-104397619D02*
X143335833Y-103821428D01*
X143283452Y-103716666D01*
X143178690Y-103664285D01*
X142969166Y-103664285D01*
X142864404Y-103716666D01*
X143335833Y-104345238D02*
X143231071Y-104397619D01*
X142969166Y-104397619D01*
X142864404Y-104345238D01*
X142812023Y-104240476D01*
X142812023Y-104135714D01*
X142864404Y-104030952D01*
X142969166Y-103978571D01*
X143231071Y-103978571D01*
X143335833Y-103926190D01*
X144331071Y-104345238D02*
X144226309Y-104397619D01*
X144016785Y-104397619D01*
X143912023Y-104345238D01*
X143859642Y-104292857D01*
X143807261Y-104188095D01*
X143807261Y-103873809D01*
X143859642Y-103769047D01*
X143912023Y-103716666D01*
X144016785Y-103664285D01*
X144226309Y-103664285D01*
X144331071Y-103716666D01*
X144697738Y-103664285D02*
X144959642Y-104397619D01*
X145221547Y-103664285D02*
X144959642Y-104397619D01*
X144854880Y-104659523D01*
X144802500Y-104711904D01*
X144697738Y-104764285D01*
X145640595Y-104292857D02*
X145692976Y-104345238D01*
X145640595Y-104397619D01*
X145588214Y-104345238D01*
X145640595Y-104292857D01*
X145640595Y-104397619D01*
X134568928Y-89447619D02*
X134778452Y-89447619D01*
X134883214Y-89500000D01*
X134987976Y-89604761D01*
X135040357Y-89814285D01*
X135040357Y-90180952D01*
X134987976Y-90390476D01*
X134883214Y-90495238D01*
X134778452Y-90547619D01*
X134568928Y-90547619D01*
X134464166Y-90495238D01*
X134359404Y-90390476D01*
X134307023Y-90180952D01*
X134307023Y-89814285D01*
X134359404Y-89604761D01*
X134464166Y-89500000D01*
X134568928Y-89447619D01*
X135511785Y-89814285D02*
X135511785Y-90914285D01*
X135511785Y-89866666D02*
X135616547Y-89814285D01*
X135826071Y-89814285D01*
X135930833Y-89866666D01*
X135983214Y-89919047D01*
X136035595Y-90023809D01*
X136035595Y-90338095D01*
X135983214Y-90442857D01*
X135930833Y-90495238D01*
X135826071Y-90547619D01*
X135616547Y-90547619D01*
X135511785Y-90495238D01*
X136349880Y-89814285D02*
X136768928Y-89814285D01*
X136507023Y-89447619D02*
X136507023Y-90390476D01*
X136559404Y-90495238D01*
X136664166Y-90547619D01*
X136768928Y-90547619D01*
X137135595Y-90547619D02*
X137135595Y-89814285D01*
X137135595Y-89447619D02*
X137083214Y-89500000D01*
X137135595Y-89552380D01*
X137187976Y-89500000D01*
X137135595Y-89447619D01*
X137135595Y-89552380D01*
X137816547Y-90547619D02*
X137711785Y-90495238D01*
X137659404Y-90442857D01*
X137607023Y-90338095D01*
X137607023Y-90023809D01*
X137659404Y-89919047D01*
X137711785Y-89866666D01*
X137816547Y-89814285D01*
X137973690Y-89814285D01*
X138078452Y-89866666D01*
X138130833Y-89919047D01*
X138183214Y-90023809D01*
X138183214Y-90338095D01*
X138130833Y-90442857D01*
X138078452Y-90495238D01*
X137973690Y-90547619D01*
X137816547Y-90547619D01*
X138654642Y-89814285D02*
X138654642Y-90547619D01*
X138654642Y-89919047D02*
X138707023Y-89866666D01*
X138811785Y-89814285D01*
X138968928Y-89814285D01*
X139073690Y-89866666D01*
X139126071Y-89971428D01*
X139126071Y-90547619D01*
X140121309Y-90547619D02*
X140121309Y-89971428D01*
X140068928Y-89866666D01*
X139964166Y-89814285D01*
X139754642Y-89814285D01*
X139649880Y-89866666D01*
X140121309Y-90495238D02*
X140016547Y-90547619D01*
X139754642Y-90547619D01*
X139649880Y-90495238D01*
X139597500Y-90390476D01*
X139597500Y-90285714D01*
X139649880Y-90180952D01*
X139754642Y-90128571D01*
X140016547Y-90128571D01*
X140121309Y-90076190D01*
X140802261Y-90547619D02*
X140697500Y-90495238D01*
X140645119Y-90390476D01*
X140645119Y-89447619D01*
X142059404Y-90547619D02*
X142059404Y-89814285D01*
X142059404Y-89919047D02*
X142111785Y-89866666D01*
X142216547Y-89814285D01*
X142373690Y-89814285D01*
X142478452Y-89866666D01*
X142530833Y-89971428D01*
X142530833Y-90547619D01*
X142530833Y-89971428D02*
X142583214Y-89866666D01*
X142687976Y-89814285D01*
X142845119Y-89814285D01*
X142949880Y-89866666D01*
X143002261Y-89971428D01*
X143002261Y-90547619D01*
X143526071Y-90547619D02*
X143526071Y-89814285D01*
X143526071Y-89447619D02*
X143473690Y-89500000D01*
X143526071Y-89552380D01*
X143578452Y-89500000D01*
X143526071Y-89447619D01*
X143526071Y-89552380D01*
X144521309Y-90495238D02*
X144416547Y-90547619D01*
X144207023Y-90547619D01*
X144102261Y-90495238D01*
X144049880Y-90442857D01*
X143997500Y-90338095D01*
X143997500Y-90023809D01*
X144049880Y-89919047D01*
X144102261Y-89866666D01*
X144207023Y-89814285D01*
X144416547Y-89814285D01*
X144521309Y-89866666D01*
X134202261Y-91614285D02*
X134621309Y-91614285D01*
X134359404Y-92347619D02*
X134359404Y-91404761D01*
X134411785Y-91300000D01*
X134516547Y-91247619D01*
X134621309Y-91247619D01*
X135145119Y-92347619D02*
X135040357Y-92295238D01*
X134987976Y-92242857D01*
X134935595Y-92138095D01*
X134935595Y-91823809D01*
X134987976Y-91719047D01*
X135040357Y-91666666D01*
X135145119Y-91614285D01*
X135302261Y-91614285D01*
X135407023Y-91666666D01*
X135459404Y-91719047D01*
X135511785Y-91823809D01*
X135511785Y-92138095D01*
X135459404Y-92242857D01*
X135407023Y-92295238D01*
X135302261Y-92347619D01*
X135145119Y-92347619D01*
X135983214Y-92347619D02*
X135983214Y-91614285D01*
X135983214Y-91823809D02*
X136035595Y-91719047D01*
X136087976Y-91666666D01*
X136192738Y-91614285D01*
X136297500Y-91614285D01*
X137449880Y-92295238D02*
X137554642Y-92347619D01*
X137764166Y-92347619D01*
X137868928Y-92295238D01*
X137921309Y-92190476D01*
X137921309Y-92138095D01*
X137868928Y-92033333D01*
X137764166Y-91980952D01*
X137607023Y-91980952D01*
X137502261Y-91928571D01*
X137449880Y-91823809D01*
X137449880Y-91771428D01*
X137502261Y-91666666D01*
X137607023Y-91614285D01*
X137764166Y-91614285D01*
X137868928Y-91666666D01*
X138549880Y-92347619D02*
X138445119Y-92295238D01*
X138392738Y-92242857D01*
X138340357Y-92138095D01*
X138340357Y-91823809D01*
X138392738Y-91719047D01*
X138445119Y-91666666D01*
X138549880Y-91614285D01*
X138707023Y-91614285D01*
X138811785Y-91666666D01*
X138864166Y-91719047D01*
X138916547Y-91823809D01*
X138916547Y-92138095D01*
X138864166Y-92242857D01*
X138811785Y-92295238D01*
X138707023Y-92347619D01*
X138549880Y-92347619D01*
X139859404Y-91614285D02*
X139859404Y-92347619D01*
X139387976Y-91614285D02*
X139387976Y-92190476D01*
X139440357Y-92295238D01*
X139545119Y-92347619D01*
X139702261Y-92347619D01*
X139807023Y-92295238D01*
X139859404Y-92242857D01*
X140383214Y-91614285D02*
X140383214Y-92347619D01*
X140383214Y-91719047D02*
X140435595Y-91666666D01*
X140540357Y-91614285D01*
X140697500Y-91614285D01*
X140802261Y-91666666D01*
X140854642Y-91771428D01*
X140854642Y-92347619D01*
X141849880Y-92347619D02*
X141849880Y-91247619D01*
X141849880Y-92295238D02*
X141745119Y-92347619D01*
X141535595Y-92347619D01*
X141430833Y-92295238D01*
X141378452Y-92242857D01*
X141326071Y-92138095D01*
X141326071Y-91823809D01*
X141378452Y-91719047D01*
X141430833Y-91666666D01*
X141535595Y-91614285D01*
X141745119Y-91614285D01*
X141849880Y-91666666D01*
X143368928Y-92347619D02*
X143264166Y-92295238D01*
X143211785Y-92190476D01*
X143211785Y-91247619D01*
X144207023Y-92295238D02*
X144102261Y-92347619D01*
X143892738Y-92347619D01*
X143787976Y-92295238D01*
X143735595Y-92190476D01*
X143735595Y-91771428D01*
X143787976Y-91666666D01*
X143892738Y-91614285D01*
X144102261Y-91614285D01*
X144207023Y-91666666D01*
X144259404Y-91771428D01*
X144259404Y-91876190D01*
X143735595Y-91980952D01*
X144626071Y-91614285D02*
X144887976Y-92347619D01*
X145149880Y-91614285D01*
X145987976Y-92295238D02*
X145883214Y-92347619D01*
X145673690Y-92347619D01*
X145568928Y-92295238D01*
X145516547Y-92190476D01*
X145516547Y-91771428D01*
X145568928Y-91666666D01*
X145673690Y-91614285D01*
X145883214Y-91614285D01*
X145987976Y-91666666D01*
X146040357Y-91771428D01*
X146040357Y-91876190D01*
X145516547Y-91980952D01*
X146668928Y-92347619D02*
X146564166Y-92295238D01*
X146511785Y-92190476D01*
X146511785Y-91247619D01*
X134516547Y-94147619D02*
X134411785Y-94095238D01*
X134359404Y-94042857D01*
X134307023Y-93938095D01*
X134307023Y-93623809D01*
X134359404Y-93519047D01*
X134411785Y-93466666D01*
X134516547Y-93414285D01*
X134673690Y-93414285D01*
X134778452Y-93466666D01*
X134830833Y-93519047D01*
X134883214Y-93623809D01*
X134883214Y-93938095D01*
X134830833Y-94042857D01*
X134778452Y-94095238D01*
X134673690Y-94147619D01*
X134516547Y-94147619D01*
X135354642Y-93414285D02*
X135354642Y-94147619D01*
X135354642Y-93519047D02*
X135407023Y-93466666D01*
X135511785Y-93414285D01*
X135668928Y-93414285D01*
X135773690Y-93466666D01*
X135826071Y-93571428D01*
X135826071Y-94147619D01*
X136507023Y-94147619D02*
X136402261Y-94095238D01*
X136349880Y-93990476D01*
X136349880Y-93047619D01*
X136821309Y-93414285D02*
X137083214Y-94147619D01*
X137345119Y-93414285D02*
X137083214Y-94147619D01*
X136978452Y-94409523D01*
X136926071Y-94461904D01*
X136821309Y-94514285D01*
X137764166Y-94042857D02*
X137816547Y-94095238D01*
X137764166Y-94147619D01*
X137711785Y-94095238D01*
X137764166Y-94042857D01*
X137764166Y-94147619D01*
X139754642Y-94147619D02*
X139387976Y-93623809D01*
X139126071Y-94147619D02*
X139126071Y-93047619D01*
X139545119Y-93047619D01*
X139649880Y-93100000D01*
X139702261Y-93152380D01*
X139754642Y-93257142D01*
X139754642Y-93414285D01*
X139702261Y-93519047D01*
X139649880Y-93571428D01*
X139545119Y-93623809D01*
X139126071Y-93623809D01*
X140645119Y-94095238D02*
X140540357Y-94147619D01*
X140330833Y-94147619D01*
X140226071Y-94095238D01*
X140173690Y-93990476D01*
X140173690Y-93571428D01*
X140226071Y-93466666D01*
X140330833Y-93414285D01*
X140540357Y-93414285D01*
X140645119Y-93466666D01*
X140697500Y-93571428D01*
X140697500Y-93676190D01*
X140173690Y-93780952D01*
X141168928Y-94147619D02*
X141168928Y-93414285D01*
X141168928Y-93519047D02*
X141221309Y-93466666D01*
X141326071Y-93414285D01*
X141483214Y-93414285D01*
X141587976Y-93466666D01*
X141640357Y-93571428D01*
X141640357Y-94147619D01*
X141640357Y-93571428D02*
X141692738Y-93466666D01*
X141797500Y-93414285D01*
X141954642Y-93414285D01*
X142059404Y-93466666D01*
X142111785Y-93571428D01*
X142111785Y-94147619D01*
X142792738Y-94147619D02*
X142687976Y-94095238D01*
X142635595Y-94042857D01*
X142583214Y-93938095D01*
X142583214Y-93623809D01*
X142635595Y-93519047D01*
X142687976Y-93466666D01*
X142792738Y-93414285D01*
X142949880Y-93414285D01*
X143054642Y-93466666D01*
X143107023Y-93519047D01*
X143159404Y-93623809D01*
X143159404Y-93938095D01*
X143107023Y-94042857D01*
X143054642Y-94095238D01*
X142949880Y-94147619D01*
X142792738Y-94147619D01*
X143526071Y-93414285D02*
X143787976Y-94147619D01*
X144049880Y-93414285D01*
X144887976Y-94095238D02*
X144783214Y-94147619D01*
X144573690Y-94147619D01*
X144468928Y-94095238D01*
X144416547Y-93990476D01*
X144416547Y-93571428D01*
X144468928Y-93466666D01*
X144573690Y-93414285D01*
X144783214Y-93414285D01*
X144887976Y-93466666D01*
X144940357Y-93571428D01*
X144940357Y-93676190D01*
X144416547Y-93780952D01*
X134359404Y-95947619D02*
X134359404Y-95214285D01*
X134359404Y-94847619D02*
X134307023Y-94900000D01*
X134359404Y-94952380D01*
X134411785Y-94900000D01*
X134359404Y-94847619D01*
X134359404Y-94952380D01*
X134726071Y-95214285D02*
X135145119Y-95214285D01*
X134883214Y-95947619D02*
X134883214Y-95004761D01*
X134935595Y-94900000D01*
X135040357Y-94847619D01*
X135145119Y-94847619D01*
X136821309Y-95947619D02*
X136821309Y-94847619D01*
X136821309Y-95895238D02*
X136716547Y-95947619D01*
X136507023Y-95947619D01*
X136402261Y-95895238D01*
X136349880Y-95842857D01*
X136297500Y-95738095D01*
X136297500Y-95423809D01*
X136349880Y-95319047D01*
X136402261Y-95266666D01*
X136507023Y-95214285D01*
X136716547Y-95214285D01*
X136821309Y-95266666D01*
X137764166Y-95895238D02*
X137659404Y-95947619D01*
X137449880Y-95947619D01*
X137345119Y-95895238D01*
X137292738Y-95790476D01*
X137292738Y-95371428D01*
X137345119Y-95266666D01*
X137449880Y-95214285D01*
X137659404Y-95214285D01*
X137764166Y-95266666D01*
X137816547Y-95371428D01*
X137816547Y-95476190D01*
X137292738Y-95580952D01*
X138235595Y-95895238D02*
X138340357Y-95947619D01*
X138549880Y-95947619D01*
X138654642Y-95895238D01*
X138707023Y-95790476D01*
X138707023Y-95738095D01*
X138654642Y-95633333D01*
X138549880Y-95580952D01*
X138392738Y-95580952D01*
X138287976Y-95528571D01*
X138235595Y-95423809D01*
X138235595Y-95371428D01*
X138287976Y-95266666D01*
X138392738Y-95214285D01*
X138549880Y-95214285D01*
X138654642Y-95266666D01*
X139178452Y-95947619D02*
X139178452Y-95214285D01*
X139178452Y-94847619D02*
X139126071Y-94900000D01*
X139178452Y-94952380D01*
X139230833Y-94900000D01*
X139178452Y-94847619D01*
X139178452Y-94952380D01*
X139702261Y-95947619D02*
X139702261Y-95214285D01*
X139702261Y-95423809D02*
X139754642Y-95319047D01*
X139807023Y-95266666D01*
X139911785Y-95214285D01*
X140016547Y-95214285D01*
X140802261Y-95895238D02*
X140697500Y-95947619D01*
X140487976Y-95947619D01*
X140383214Y-95895238D01*
X140330833Y-95790476D01*
X140330833Y-95371428D01*
X140383214Y-95266666D01*
X140487976Y-95214285D01*
X140697500Y-95214285D01*
X140802261Y-95266666D01*
X140854642Y-95371428D01*
X140854642Y-95476190D01*
X140330833Y-95580952D01*
X141797500Y-95947619D02*
X141797500Y-94847619D01*
X141797500Y-95895238D02*
X141692738Y-95947619D01*
X141483214Y-95947619D01*
X141378452Y-95895238D01*
X141326071Y-95842857D01*
X141273690Y-95738095D01*
X141273690Y-95423809D01*
X141326071Y-95319047D01*
X141378452Y-95266666D01*
X141483214Y-95214285D01*
X141692738Y-95214285D01*
X141797500Y-95266666D01*
X142321309Y-95842857D02*
X142373690Y-95895238D01*
X142321309Y-95947619D01*
X142268928Y-95895238D01*
X142321309Y-95842857D01*
X142321309Y-95947619D01*
X115492857Y-125262023D02*
X115545238Y-125314404D01*
X115597619Y-125471547D01*
X115597619Y-125576309D01*
X115545238Y-125733452D01*
X115440476Y-125838214D01*
X115335714Y-125890595D01*
X115126190Y-125942976D01*
X114969047Y-125942976D01*
X114759523Y-125890595D01*
X114654761Y-125838214D01*
X114550000Y-125733452D01*
X114497619Y-125576309D01*
X114497619Y-125471547D01*
X114550000Y-125314404D01*
X114602380Y-125262023D01*
X114497619Y-124581071D02*
X114497619Y-124371547D01*
X114550000Y-124266785D01*
X114654761Y-124162023D01*
X114864285Y-124109642D01*
X115230952Y-124109642D01*
X115440476Y-124162023D01*
X115545238Y-124266785D01*
X115597619Y-124371547D01*
X115597619Y-124581071D01*
X115545238Y-124685833D01*
X115440476Y-124790595D01*
X115230952Y-124842976D01*
X114864285Y-124842976D01*
X114654761Y-124790595D01*
X114550000Y-124685833D01*
X114497619Y-124581071D01*
X114602380Y-123690595D02*
X114550000Y-123638214D01*
X114497619Y-123533452D01*
X114497619Y-123271547D01*
X114550000Y-123166785D01*
X114602380Y-123114404D01*
X114707142Y-123062023D01*
X114811904Y-123062023D01*
X114969047Y-123114404D01*
X115597619Y-123742976D01*
X115597619Y-123062023D01*
X115545238Y-121804880D02*
X115597619Y-121700119D01*
X115597619Y-121490595D01*
X115545238Y-121385833D01*
X115440476Y-121333452D01*
X115388095Y-121333452D01*
X115283333Y-121385833D01*
X115230952Y-121490595D01*
X115230952Y-121647738D01*
X115178571Y-121752500D01*
X115073809Y-121804880D01*
X115021428Y-121804880D01*
X114916666Y-121752500D01*
X114864285Y-121647738D01*
X114864285Y-121490595D01*
X114916666Y-121385833D01*
X115545238Y-120442976D02*
X115597619Y-120547738D01*
X115597619Y-120757261D01*
X115545238Y-120862023D01*
X115440476Y-120914404D01*
X115021428Y-120914404D01*
X114916666Y-120862023D01*
X114864285Y-120757261D01*
X114864285Y-120547738D01*
X114916666Y-120442976D01*
X115021428Y-120390595D01*
X115126190Y-120390595D01*
X115230952Y-120914404D01*
X114864285Y-119919166D02*
X115597619Y-119919166D01*
X114969047Y-119919166D02*
X114916666Y-119866785D01*
X114864285Y-119762023D01*
X114864285Y-119604880D01*
X114916666Y-119500119D01*
X115021428Y-119447738D01*
X115597619Y-119447738D01*
X115545238Y-118976309D02*
X115597619Y-118871547D01*
X115597619Y-118662023D01*
X115545238Y-118557261D01*
X115440476Y-118504880D01*
X115388095Y-118504880D01*
X115283333Y-118557261D01*
X115230952Y-118662023D01*
X115230952Y-118819166D01*
X115178571Y-118923928D01*
X115073809Y-118976309D01*
X115021428Y-118976309D01*
X114916666Y-118923928D01*
X114864285Y-118819166D01*
X114864285Y-118662023D01*
X114916666Y-118557261D01*
X115597619Y-117876309D02*
X115545238Y-117981071D01*
X115492857Y-118033452D01*
X115388095Y-118085833D01*
X115073809Y-118085833D01*
X114969047Y-118033452D01*
X114916666Y-117981071D01*
X114864285Y-117876309D01*
X114864285Y-117719166D01*
X114916666Y-117614404D01*
X114969047Y-117562023D01*
X115073809Y-117509642D01*
X115388095Y-117509642D01*
X115492857Y-117562023D01*
X115545238Y-117614404D01*
X115597619Y-117719166D01*
X115597619Y-117876309D01*
X115597619Y-117038214D02*
X114864285Y-117038214D01*
X115073809Y-117038214D02*
X114969047Y-116985833D01*
X114916666Y-116933452D01*
X114864285Y-116828690D01*
X114864285Y-116723928D01*
X115545238Y-115571547D02*
X115597619Y-115466785D01*
X115597619Y-115257261D01*
X115545238Y-115152500D01*
X115440476Y-115100119D01*
X115388095Y-115100119D01*
X115283333Y-115152500D01*
X115230952Y-115257261D01*
X115230952Y-115414404D01*
X115178571Y-115519166D01*
X115073809Y-115571547D01*
X115021428Y-115571547D01*
X114916666Y-115519166D01*
X114864285Y-115414404D01*
X114864285Y-115257261D01*
X114916666Y-115152500D01*
X115597619Y-114628690D02*
X114497619Y-114628690D01*
X115597619Y-114157261D02*
X115021428Y-114157261D01*
X114916666Y-114209642D01*
X114864285Y-114314404D01*
X114864285Y-114471547D01*
X114916666Y-114576309D01*
X114969047Y-114628690D01*
X115597619Y-113476309D02*
X115545238Y-113581071D01*
X115492857Y-113633452D01*
X115388095Y-113685833D01*
X115073809Y-113685833D01*
X114969047Y-113633452D01*
X114916666Y-113581071D01*
X114864285Y-113476309D01*
X114864285Y-113319166D01*
X114916666Y-113214404D01*
X114969047Y-113162023D01*
X115073809Y-113109642D01*
X115388095Y-113109642D01*
X115492857Y-113162023D01*
X115545238Y-113214404D01*
X115597619Y-113319166D01*
X115597619Y-113476309D01*
X114864285Y-112166785D02*
X115597619Y-112166785D01*
X114864285Y-112638214D02*
X115440476Y-112638214D01*
X115545238Y-112585833D01*
X115597619Y-112481071D01*
X115597619Y-112323928D01*
X115545238Y-112219166D01*
X115492857Y-112166785D01*
X115597619Y-111485833D02*
X115545238Y-111590595D01*
X115440476Y-111642976D01*
X114497619Y-111642976D01*
X115597619Y-110595357D02*
X114497619Y-110595357D01*
X115545238Y-110595357D02*
X115597619Y-110700119D01*
X115597619Y-110909642D01*
X115545238Y-111014404D01*
X115492857Y-111066785D01*
X115388095Y-111119166D01*
X115073809Y-111119166D01*
X114969047Y-111066785D01*
X114916666Y-111014404D01*
X114864285Y-110909642D01*
X114864285Y-110700119D01*
X114916666Y-110595357D01*
X115597619Y-109233452D02*
X114497619Y-109233452D01*
X114916666Y-109233452D02*
X114864285Y-109128690D01*
X114864285Y-108919166D01*
X114916666Y-108814404D01*
X114969047Y-108762023D01*
X115073809Y-108709642D01*
X115388095Y-108709642D01*
X115492857Y-108762023D01*
X115545238Y-108814404D01*
X115597619Y-108919166D01*
X115597619Y-109128690D01*
X115545238Y-109233452D01*
X115545238Y-107819166D02*
X115597619Y-107923928D01*
X115597619Y-108133452D01*
X115545238Y-108238214D01*
X115440476Y-108290595D01*
X115021428Y-108290595D01*
X114916666Y-108238214D01*
X114864285Y-108133452D01*
X114864285Y-107923928D01*
X114916666Y-107819166D01*
X115021428Y-107766785D01*
X115126190Y-107766785D01*
X115230952Y-108290595D01*
X117345238Y-125419166D02*
X117397619Y-125523928D01*
X117397619Y-125733452D01*
X117345238Y-125838214D01*
X117292857Y-125890595D01*
X117188095Y-125942976D01*
X116873809Y-125942976D01*
X116769047Y-125890595D01*
X116716666Y-125838214D01*
X116664285Y-125733452D01*
X116664285Y-125523928D01*
X116716666Y-125419166D01*
X117397619Y-124476309D02*
X116821428Y-124476309D01*
X116716666Y-124528690D01*
X116664285Y-124633452D01*
X116664285Y-124842976D01*
X116716666Y-124947738D01*
X117345238Y-124476309D02*
X117397619Y-124581071D01*
X117397619Y-124842976D01*
X117345238Y-124947738D01*
X117240476Y-125000119D01*
X117135714Y-125000119D01*
X117030952Y-124947738D01*
X116978571Y-124842976D01*
X116978571Y-124581071D01*
X116926190Y-124476309D01*
X117397619Y-123795357D02*
X117345238Y-123900119D01*
X117240476Y-123952500D01*
X116297619Y-123952500D01*
X117397619Y-123376309D02*
X116664285Y-123376309D01*
X116297619Y-123376309D02*
X116350000Y-123428690D01*
X116402380Y-123376309D01*
X116350000Y-123323928D01*
X116297619Y-123376309D01*
X116402380Y-123376309D01*
X117397619Y-122852500D02*
X116297619Y-122852500D01*
X116716666Y-122852500D02*
X116664285Y-122747738D01*
X116664285Y-122538214D01*
X116716666Y-122433452D01*
X116769047Y-122381071D01*
X116873809Y-122328690D01*
X117188095Y-122328690D01*
X117292857Y-122381071D01*
X117345238Y-122433452D01*
X117397619Y-122538214D01*
X117397619Y-122747738D01*
X117345238Y-122852500D01*
X117397619Y-121857261D02*
X116664285Y-121857261D01*
X116873809Y-121857261D02*
X116769047Y-121804880D01*
X116716666Y-121752500D01*
X116664285Y-121647738D01*
X116664285Y-121542976D01*
X117397619Y-120704880D02*
X116821428Y-120704880D01*
X116716666Y-120757261D01*
X116664285Y-120862023D01*
X116664285Y-121071547D01*
X116716666Y-121176309D01*
X117345238Y-120704880D02*
X117397619Y-120809642D01*
X117397619Y-121071547D01*
X117345238Y-121176309D01*
X117240476Y-121228690D01*
X117135714Y-121228690D01*
X117030952Y-121176309D01*
X116978571Y-121071547D01*
X116978571Y-120809642D01*
X116926190Y-120704880D01*
X116664285Y-120338214D02*
X116664285Y-119919166D01*
X116297619Y-120181071D02*
X117240476Y-120181071D01*
X117345238Y-120128690D01*
X117397619Y-120023928D01*
X117397619Y-119919166D01*
X117345238Y-119133452D02*
X117397619Y-119238214D01*
X117397619Y-119447738D01*
X117345238Y-119552500D01*
X117240476Y-119604880D01*
X116821428Y-119604880D01*
X116716666Y-119552500D01*
X116664285Y-119447738D01*
X116664285Y-119238214D01*
X116716666Y-119133452D01*
X116821428Y-119081071D01*
X116926190Y-119081071D01*
X117030952Y-119604880D01*
X117397619Y-118138214D02*
X116297619Y-118138214D01*
X117345238Y-118138214D02*
X117397619Y-118242976D01*
X117397619Y-118452500D01*
X117345238Y-118557261D01*
X117292857Y-118609642D01*
X117188095Y-118662023D01*
X116873809Y-118662023D01*
X116769047Y-118609642D01*
X116716666Y-118557261D01*
X116664285Y-118452500D01*
X116664285Y-118242976D01*
X116716666Y-118138214D01*
X117397619Y-116776309D02*
X116664285Y-116776309D01*
X116873809Y-116776309D02*
X116769047Y-116723928D01*
X116716666Y-116671547D01*
X116664285Y-116566785D01*
X116664285Y-116462023D01*
X117345238Y-115676309D02*
X117397619Y-115781071D01*
X117397619Y-115990595D01*
X117345238Y-116095357D01*
X117240476Y-116147738D01*
X116821428Y-116147738D01*
X116716666Y-116095357D01*
X116664285Y-115990595D01*
X116664285Y-115781071D01*
X116716666Y-115676309D01*
X116821428Y-115623928D01*
X116926190Y-115623928D01*
X117030952Y-116147738D01*
X116664285Y-114681071D02*
X117554761Y-114681071D01*
X117659523Y-114733452D01*
X117711904Y-114785833D01*
X117764285Y-114890595D01*
X117764285Y-115047738D01*
X117711904Y-115152500D01*
X117345238Y-114681071D02*
X117397619Y-114785833D01*
X117397619Y-114995357D01*
X117345238Y-115100119D01*
X117292857Y-115152500D01*
X117188095Y-115204880D01*
X116873809Y-115204880D01*
X116769047Y-115152500D01*
X116716666Y-115100119D01*
X116664285Y-114995357D01*
X116664285Y-114785833D01*
X116716666Y-114681071D01*
X116664285Y-113685833D02*
X117397619Y-113685833D01*
X116664285Y-114157261D02*
X117240476Y-114157261D01*
X117345238Y-114104880D01*
X117397619Y-114000119D01*
X117397619Y-113842976D01*
X117345238Y-113738214D01*
X117292857Y-113685833D01*
X117397619Y-113004880D02*
X117345238Y-113109642D01*
X117240476Y-113162023D01*
X116297619Y-113162023D01*
X117397619Y-112114404D02*
X116821428Y-112114404D01*
X116716666Y-112166785D01*
X116664285Y-112271547D01*
X116664285Y-112481071D01*
X116716666Y-112585833D01*
X117345238Y-112114404D02*
X117397619Y-112219166D01*
X117397619Y-112481071D01*
X117345238Y-112585833D01*
X117240476Y-112638214D01*
X117135714Y-112638214D01*
X117030952Y-112585833D01*
X116978571Y-112481071D01*
X116978571Y-112219166D01*
X116926190Y-112114404D01*
X117397619Y-111590595D02*
X116664285Y-111590595D01*
X116873809Y-111590595D02*
X116769047Y-111538214D01*
X116716666Y-111485833D01*
X116664285Y-111381071D01*
X116664285Y-111276309D01*
X117397619Y-110752500D02*
X117345238Y-110857261D01*
X117240476Y-110909642D01*
X116297619Y-110909642D01*
X116664285Y-110438214D02*
X117397619Y-110176309D01*
X116664285Y-109914404D02*
X117397619Y-110176309D01*
X117659523Y-110281071D01*
X117711904Y-110333452D01*
X117764285Y-110438214D01*
X117292857Y-109495357D02*
X117345238Y-109442976D01*
X117397619Y-109495357D01*
X117345238Y-109547738D01*
X117292857Y-109495357D01*
X117397619Y-109495357D01*
D10*
X145500000Y-68250000D02*
X140250000Y-68250000D01*
X145500000Y-70250000D02*
X145500000Y-68250000D01*
X140250000Y-70250000D02*
X145500000Y-70250000D01*
X140250000Y-68250000D02*
X140250000Y-70250000D01*
D11*
X146613904Y-122368380D02*
X147232952Y-122368380D01*
X146899619Y-122749333D01*
X147042476Y-122749333D01*
X147137714Y-122796952D01*
X147185333Y-122844571D01*
X147232952Y-122939809D01*
X147232952Y-123177904D01*
X147185333Y-123273142D01*
X147137714Y-123320761D01*
X147042476Y-123368380D01*
X146756761Y-123368380D01*
X146661523Y-123320761D01*
X146613904Y-123273142D01*
X148137714Y-122368380D02*
X147661523Y-122368380D01*
X147613904Y-122844571D01*
X147661523Y-122796952D01*
X147756761Y-122749333D01*
X147994857Y-122749333D01*
X148090095Y-122796952D01*
X148137714Y-122844571D01*
X148185333Y-122939809D01*
X148185333Y-123177904D01*
X148137714Y-123273142D01*
X148090095Y-123320761D01*
X147994857Y-123368380D01*
X147756761Y-123368380D01*
X147661523Y-123320761D01*
X147613904Y-123273142D01*
X149328190Y-122320761D02*
X148471047Y-123606476D01*
X149613904Y-123082666D02*
X150090095Y-123082666D01*
X149518666Y-123368380D02*
X149852000Y-122368380D01*
X150185333Y-123368380D01*
X150423428Y-122368380D02*
X151090095Y-122368380D01*
X150661523Y-123368380D01*
X146613904Y-119868380D02*
X147232952Y-119868380D01*
X146899619Y-120249333D01*
X147042476Y-120249333D01*
X147137714Y-120296952D01*
X147185333Y-120344571D01*
X147232952Y-120439809D01*
X147232952Y-120677904D01*
X147185333Y-120773142D01*
X147137714Y-120820761D01*
X147042476Y-120868380D01*
X146756761Y-120868380D01*
X146661523Y-120820761D01*
X146613904Y-120773142D01*
X148090095Y-120201714D02*
X148090095Y-120868380D01*
X147852000Y-119820761D02*
X147613904Y-120535047D01*
X148232952Y-120535047D01*
X149328190Y-119820761D02*
X148471047Y-121106476D01*
X149613904Y-120582666D02*
X150090095Y-120582666D01*
X149518666Y-120868380D02*
X149852000Y-119868380D01*
X150185333Y-120868380D01*
X150947238Y-119868380D02*
X150756761Y-119868380D01*
X150661523Y-119916000D01*
X150613904Y-119963619D01*
X150518666Y-120106476D01*
X150471047Y-120296952D01*
X150471047Y-120677904D01*
X150518666Y-120773142D01*
X150566285Y-120820761D01*
X150661523Y-120868380D01*
X150852000Y-120868380D01*
X150947238Y-120820761D01*
X150994857Y-120773142D01*
X151042476Y-120677904D01*
X151042476Y-120439809D01*
X150994857Y-120344571D01*
X150947238Y-120296952D01*
X150852000Y-120249333D01*
X150661523Y-120249333D01*
X150566285Y-120296952D01*
X150518666Y-120344571D01*
X150471047Y-120439809D01*
X146613904Y-117618380D02*
X147232952Y-117618380D01*
X146899619Y-117999333D01*
X147042476Y-117999333D01*
X147137714Y-118046952D01*
X147185333Y-118094571D01*
X147232952Y-118189809D01*
X147232952Y-118427904D01*
X147185333Y-118523142D01*
X147137714Y-118570761D01*
X147042476Y-118618380D01*
X146756761Y-118618380D01*
X146661523Y-118570761D01*
X146613904Y-118523142D01*
X147709142Y-118618380D02*
X147899619Y-118618380D01*
X147994857Y-118570761D01*
X148042476Y-118523142D01*
X148137714Y-118380285D01*
X148185333Y-118189809D01*
X148185333Y-117808857D01*
X148137714Y-117713619D01*
X148090095Y-117666000D01*
X147994857Y-117618380D01*
X147804380Y-117618380D01*
X147709142Y-117666000D01*
X147661523Y-117713619D01*
X147613904Y-117808857D01*
X147613904Y-118046952D01*
X147661523Y-118142190D01*
X147709142Y-118189809D01*
X147804380Y-118237428D01*
X147994857Y-118237428D01*
X148090095Y-118189809D01*
X148137714Y-118142190D01*
X148185333Y-118046952D01*
X149328190Y-117570761D02*
X148471047Y-118856476D01*
X149613904Y-118332666D02*
X150090095Y-118332666D01*
X149518666Y-118618380D02*
X149852000Y-117618380D01*
X150185333Y-118618380D01*
X150423428Y-117618380D02*
X151042476Y-117618380D01*
X150709142Y-117999333D01*
X150852000Y-117999333D01*
X150947238Y-118046952D01*
X150994857Y-118094571D01*
X151042476Y-118189809D01*
X151042476Y-118427904D01*
X150994857Y-118523142D01*
X150947238Y-118570761D01*
X150852000Y-118618380D01*
X150566285Y-118618380D01*
X150471047Y-118570761D01*
X150423428Y-118523142D01*
X146613904Y-114868380D02*
X147232952Y-114868380D01*
X146899619Y-115249333D01*
X147042476Y-115249333D01*
X147137714Y-115296952D01*
X147185333Y-115344571D01*
X147232952Y-115439809D01*
X147232952Y-115677904D01*
X147185333Y-115773142D01*
X147137714Y-115820761D01*
X147042476Y-115868380D01*
X146756761Y-115868380D01*
X146661523Y-115820761D01*
X146613904Y-115773142D01*
X147804380Y-115296952D02*
X147709142Y-115249333D01*
X147661523Y-115201714D01*
X147613904Y-115106476D01*
X147613904Y-115058857D01*
X147661523Y-114963619D01*
X147709142Y-114916000D01*
X147804380Y-114868380D01*
X147994857Y-114868380D01*
X148090095Y-114916000D01*
X148137714Y-114963619D01*
X148185333Y-115058857D01*
X148185333Y-115106476D01*
X148137714Y-115201714D01*
X148090095Y-115249333D01*
X147994857Y-115296952D01*
X147804380Y-115296952D01*
X147709142Y-115344571D01*
X147661523Y-115392190D01*
X147613904Y-115487428D01*
X147613904Y-115677904D01*
X147661523Y-115773142D01*
X147709142Y-115820761D01*
X147804380Y-115868380D01*
X147994857Y-115868380D01*
X148090095Y-115820761D01*
X148137714Y-115773142D01*
X148185333Y-115677904D01*
X148185333Y-115487428D01*
X148137714Y-115392190D01*
X148090095Y-115344571D01*
X147994857Y-115296952D01*
X149328190Y-114820761D02*
X148471047Y-116106476D01*
X149613904Y-115582666D02*
X150090095Y-115582666D01*
X149518666Y-115868380D02*
X149852000Y-114868380D01*
X150185333Y-115868380D01*
X150471047Y-114963619D02*
X150518666Y-114916000D01*
X150613904Y-114868380D01*
X150852000Y-114868380D01*
X150947238Y-114916000D01*
X150994857Y-114963619D01*
X151042476Y-115058857D01*
X151042476Y-115154095D01*
X150994857Y-115296952D01*
X150423428Y-115868380D01*
X151042476Y-115868380D01*
X146613904Y-112368380D02*
X147232952Y-112368380D01*
X146899619Y-112749333D01*
X147042476Y-112749333D01*
X147137714Y-112796952D01*
X147185333Y-112844571D01*
X147232952Y-112939809D01*
X147232952Y-113177904D01*
X147185333Y-113273142D01*
X147137714Y-113320761D01*
X147042476Y-113368380D01*
X146756761Y-113368380D01*
X146661523Y-113320761D01*
X146613904Y-113273142D01*
X147566285Y-112368380D02*
X148232952Y-112368380D01*
X147804380Y-113368380D01*
X149328190Y-112320761D02*
X148471047Y-113606476D01*
X149613904Y-113082666D02*
X150090095Y-113082666D01*
X149518666Y-113368380D02*
X149852000Y-112368380D01*
X150185333Y-113368380D01*
X151042476Y-113368380D02*
X150471047Y-113368380D01*
X150756761Y-113368380D02*
X150756761Y-112368380D01*
X150661523Y-112511238D01*
X150566285Y-112606476D01*
X150471047Y-112654095D01*
X146613904Y-109618380D02*
X147232952Y-109618380D01*
X146899619Y-109999333D01*
X147042476Y-109999333D01*
X147137714Y-110046952D01*
X147185333Y-110094571D01*
X147232952Y-110189809D01*
X147232952Y-110427904D01*
X147185333Y-110523142D01*
X147137714Y-110570761D01*
X147042476Y-110618380D01*
X146756761Y-110618380D01*
X146661523Y-110570761D01*
X146613904Y-110523142D01*
X148090095Y-109618380D02*
X147899619Y-109618380D01*
X147804380Y-109666000D01*
X147756761Y-109713619D01*
X147661523Y-109856476D01*
X147613904Y-110046952D01*
X147613904Y-110427904D01*
X147661523Y-110523142D01*
X147709142Y-110570761D01*
X147804380Y-110618380D01*
X147994857Y-110618380D01*
X148090095Y-110570761D01*
X148137714Y-110523142D01*
X148185333Y-110427904D01*
X148185333Y-110189809D01*
X148137714Y-110094571D01*
X148090095Y-110046952D01*
X147994857Y-109999333D01*
X147804380Y-109999333D01*
X147709142Y-110046952D01*
X147661523Y-110094571D01*
X147613904Y-110189809D01*
X149328190Y-109570761D02*
X148471047Y-110856476D01*
X149613904Y-110332666D02*
X150090095Y-110332666D01*
X149518666Y-110618380D02*
X149852000Y-109618380D01*
X150185333Y-110618380D01*
X150709142Y-109618380D02*
X150804380Y-109618380D01*
X150899619Y-109666000D01*
X150947238Y-109713619D01*
X150994857Y-109808857D01*
X151042476Y-109999333D01*
X151042476Y-110237428D01*
X150994857Y-110427904D01*
X150947238Y-110523142D01*
X150899619Y-110570761D01*
X150804380Y-110618380D01*
X150709142Y-110618380D01*
X150613904Y-110570761D01*
X150566285Y-110523142D01*
X150518666Y-110427904D01*
X150471047Y-110237428D01*
X150471047Y-109999333D01*
X150518666Y-109808857D01*
X150566285Y-109713619D01*
X150613904Y-109666000D01*
X150709142Y-109618380D01*
X148590095Y-107416000D02*
X148494857Y-107368380D01*
X148352000Y-107368380D01*
X148209142Y-107416000D01*
X148113904Y-107511238D01*
X148066285Y-107606476D01*
X148018666Y-107796952D01*
X148018666Y-107939809D01*
X148066285Y-108130285D01*
X148113904Y-108225523D01*
X148209142Y-108320761D01*
X148352000Y-108368380D01*
X148447238Y-108368380D01*
X148590095Y-108320761D01*
X148637714Y-108273142D01*
X148637714Y-107939809D01*
X148447238Y-107939809D01*
X149066285Y-108368380D02*
X149066285Y-107368380D01*
X149637714Y-108368380D01*
X149637714Y-107368380D01*
X150113904Y-108368380D02*
X150113904Y-107368380D01*
X150352000Y-107368380D01*
X150494857Y-107416000D01*
X150590095Y-107511238D01*
X150637714Y-107606476D01*
X150685333Y-107796952D01*
X150685333Y-107939809D01*
X150637714Y-108130285D01*
X150590095Y-108225523D01*
X150494857Y-108320761D01*
X150352000Y-108368380D01*
X150113904Y-108368380D01*
X148137714Y-105570761D02*
X148280571Y-105618380D01*
X148518666Y-105618380D01*
X148613904Y-105570761D01*
X148661523Y-105523142D01*
X148709142Y-105427904D01*
X148709142Y-105332666D01*
X148661523Y-105237428D01*
X148613904Y-105189809D01*
X148518666Y-105142190D01*
X148328190Y-105094571D01*
X148232952Y-105046952D01*
X148185333Y-104999333D01*
X148137714Y-104904095D01*
X148137714Y-104808857D01*
X148185333Y-104713619D01*
X148232952Y-104666000D01*
X148328190Y-104618380D01*
X148566285Y-104618380D01*
X148709142Y-104666000D01*
X149137714Y-105618380D02*
X149137714Y-104618380D01*
X149375809Y-104618380D01*
X149518666Y-104666000D01*
X149613904Y-104761238D01*
X149661523Y-104856476D01*
X149709142Y-105046952D01*
X149709142Y-105189809D01*
X149661523Y-105380285D01*
X149613904Y-105475523D01*
X149518666Y-105570761D01*
X149375809Y-105618380D01*
X149137714Y-105618380D01*
X150090095Y-105332666D02*
X150566285Y-105332666D01*
X149994857Y-105618380D02*
X150328190Y-104618380D01*
X150661523Y-105618380D01*
X148161523Y-103070761D02*
X148304380Y-103118380D01*
X148542476Y-103118380D01*
X148637714Y-103070761D01*
X148685333Y-103023142D01*
X148732952Y-102927904D01*
X148732952Y-102832666D01*
X148685333Y-102737428D01*
X148637714Y-102689809D01*
X148542476Y-102642190D01*
X148352000Y-102594571D01*
X148256761Y-102546952D01*
X148209142Y-102499333D01*
X148161523Y-102404095D01*
X148161523Y-102308857D01*
X148209142Y-102213619D01*
X148256761Y-102166000D01*
X148352000Y-102118380D01*
X148590095Y-102118380D01*
X148732952Y-102166000D01*
X149732952Y-103023142D02*
X149685333Y-103070761D01*
X149542476Y-103118380D01*
X149447238Y-103118380D01*
X149304380Y-103070761D01*
X149209142Y-102975523D01*
X149161523Y-102880285D01*
X149113904Y-102689809D01*
X149113904Y-102546952D01*
X149161523Y-102356476D01*
X149209142Y-102261238D01*
X149304380Y-102166000D01*
X149447238Y-102118380D01*
X149542476Y-102118380D01*
X149685333Y-102166000D01*
X149732952Y-102213619D01*
X150637714Y-103118380D02*
X150161523Y-103118380D01*
X150161523Y-102118380D01*
X148590095Y-99666000D02*
X148494857Y-99618380D01*
X148352000Y-99618380D01*
X148209142Y-99666000D01*
X148113904Y-99761238D01*
X148066285Y-99856476D01*
X148018666Y-100046952D01*
X148018666Y-100189809D01*
X148066285Y-100380285D01*
X148113904Y-100475523D01*
X148209142Y-100570761D01*
X148352000Y-100618380D01*
X148447238Y-100618380D01*
X148590095Y-100570761D01*
X148637714Y-100523142D01*
X148637714Y-100189809D01*
X148447238Y-100189809D01*
X149066285Y-100618380D02*
X149066285Y-99618380D01*
X149637714Y-100618380D01*
X149637714Y-99618380D01*
X150113904Y-100618380D02*
X150113904Y-99618380D01*
X150352000Y-99618380D01*
X150494857Y-99666000D01*
X150590095Y-99761238D01*
X150637714Y-99856476D01*
X150685333Y-100046952D01*
X150685333Y-100189809D01*
X150637714Y-100380285D01*
X150590095Y-100475523D01*
X150494857Y-100570761D01*
X150352000Y-100618380D01*
X150113904Y-100618380D01*
X148590095Y-97118380D02*
X149209142Y-97118380D01*
X148875809Y-97499333D01*
X149018666Y-97499333D01*
X149113904Y-97546952D01*
X149161523Y-97594571D01*
X149209142Y-97689809D01*
X149209142Y-97927904D01*
X149161523Y-98023142D01*
X149113904Y-98070761D01*
X149018666Y-98118380D01*
X148732952Y-98118380D01*
X148637714Y-98070761D01*
X148590095Y-98023142D01*
X149494857Y-97118380D02*
X149828190Y-98118380D01*
X150161523Y-97118380D01*
X148590095Y-94618380D02*
X149161523Y-94618380D01*
X148875809Y-95618380D02*
X148875809Y-94618380D01*
X149399619Y-94618380D02*
X150066285Y-95618380D01*
X150066285Y-94618380D02*
X149399619Y-95618380D01*
X149185333Y-92868380D02*
X148852000Y-92392190D01*
X148613904Y-92868380D02*
X148613904Y-91868380D01*
X148994857Y-91868380D01*
X149090095Y-91916000D01*
X149137714Y-91963619D01*
X149185333Y-92058857D01*
X149185333Y-92201714D01*
X149137714Y-92296952D01*
X149090095Y-92344571D01*
X148994857Y-92392190D01*
X148613904Y-92392190D01*
X149518666Y-91868380D02*
X150185333Y-92868380D01*
X150185333Y-91868380D02*
X149518666Y-92868380D01*
X75023809Y-93904761D02*
X75023809Y-91904761D01*
X75023809Y-92857142D02*
X76166666Y-92857142D01*
X76166666Y-93904761D02*
X76166666Y-91904761D01*
X77880952Y-93809523D02*
X77690476Y-93904761D01*
X77309523Y-93904761D01*
X77119047Y-93809523D01*
X77023809Y-93619047D01*
X77023809Y-92857142D01*
X77119047Y-92666666D01*
X77309523Y-92571428D01*
X77690476Y-92571428D01*
X77880952Y-92666666D01*
X77976190Y-92857142D01*
X77976190Y-93047619D01*
X77023809Y-93238095D01*
X79119047Y-93904761D02*
X78928571Y-93809523D01*
X78833333Y-93619047D01*
X78833333Y-91904761D01*
X79595238Y-92571428D02*
X80357142Y-92571428D01*
X79880952Y-91904761D02*
X79880952Y-93619047D01*
X79976190Y-93809523D01*
X80166666Y-93904761D01*
X80357142Y-93904761D01*
X81785714Y-93809523D02*
X81595238Y-93904761D01*
X81214285Y-93904761D01*
X81023809Y-93809523D01*
X80928571Y-93619047D01*
X80928571Y-92857142D01*
X81023809Y-92666666D01*
X81214285Y-92571428D01*
X81595238Y-92571428D01*
X81785714Y-92666666D01*
X81880952Y-92857142D01*
X81880952Y-93047619D01*
X80928571Y-93238095D01*
X83595238Y-93809523D02*
X83404761Y-93904761D01*
X83023809Y-93904761D01*
X82833333Y-93809523D01*
X82738095Y-93714285D01*
X82642857Y-93523809D01*
X82642857Y-92952380D01*
X82738095Y-92761904D01*
X82833333Y-92666666D01*
X83023809Y-92571428D01*
X83404761Y-92571428D01*
X83595238Y-92666666D01*
X85785714Y-91904761D02*
X86261904Y-93904761D01*
X86642857Y-92476190D01*
X87023809Y-93904761D01*
X87500000Y-91904761D01*
X88261904Y-93904761D02*
X88261904Y-92571428D01*
X88261904Y-91904761D02*
X88166666Y-92000000D01*
X88261904Y-92095238D01*
X88357142Y-92000000D01*
X88261904Y-91904761D01*
X88261904Y-92095238D01*
X89880952Y-92857142D02*
X89214285Y-92857142D01*
X89214285Y-93904761D02*
X89214285Y-91904761D01*
X90166666Y-91904761D01*
X90928571Y-93904761D02*
X90928571Y-92571428D01*
X90928571Y-91904761D02*
X90833333Y-92000000D01*
X90928571Y-92095238D01*
X91023809Y-92000000D01*
X90928571Y-91904761D01*
X90928571Y-92095238D01*
X94357142Y-93904761D02*
X93404761Y-93904761D01*
X93404761Y-91904761D01*
X95309523Y-93904761D02*
X95119047Y-93809523D01*
X95023809Y-93714285D01*
X94928571Y-93523809D01*
X94928571Y-92952380D01*
X95023809Y-92761904D01*
X95119047Y-92666666D01*
X95309523Y-92571428D01*
X95595238Y-92571428D01*
X95785714Y-92666666D01*
X95880952Y-92761904D01*
X95976190Y-92952380D01*
X95976190Y-93523809D01*
X95880952Y-93714285D01*
X95785714Y-93809523D01*
X95595238Y-93904761D01*
X95309523Y-93904761D01*
X97976190Y-93904761D02*
X97309523Y-92952380D01*
X96833333Y-93904761D02*
X96833333Y-91904761D01*
X97595238Y-91904761D01*
X97785714Y-92000000D01*
X97880952Y-92095238D01*
X97976190Y-92285714D01*
X97976190Y-92571428D01*
X97880952Y-92761904D01*
X97785714Y-92857142D01*
X97595238Y-92952380D01*
X96833333Y-92952380D01*
X99690476Y-93904761D02*
X99690476Y-92857142D01*
X99595238Y-92666666D01*
X99404761Y-92571428D01*
X99023809Y-92571428D01*
X98833333Y-92666666D01*
X99690476Y-93809523D02*
X99500000Y-93904761D01*
X99023809Y-93904761D01*
X98833333Y-93809523D01*
X98738095Y-93619047D01*
X98738095Y-93428571D01*
X98833333Y-93238095D01*
X99023809Y-93142857D01*
X99500000Y-93142857D01*
X99690476Y-93047619D01*
X101976190Y-91904761D02*
X103214285Y-91904761D01*
X102547619Y-92666666D01*
X102833333Y-92666666D01*
X103023809Y-92761904D01*
X103119047Y-92857142D01*
X103214285Y-93047619D01*
X103214285Y-93523809D01*
X103119047Y-93714285D01*
X103023809Y-93809523D01*
X102833333Y-93904761D01*
X102261904Y-93904761D01*
X102071428Y-93809523D01*
X101976190Y-93714285D01*
X103976190Y-92095238D02*
X104071428Y-92000000D01*
X104261904Y-91904761D01*
X104738095Y-91904761D01*
X104928571Y-92000000D01*
X105023809Y-92095238D01*
X105119047Y-92285714D01*
X105119047Y-92476190D01*
X105023809Y-92761904D01*
X103880952Y-93904761D01*
X105119047Y-93904761D01*
X107309523Y-92571428D02*
X107785714Y-93904761D01*
X108261904Y-92571428D01*
X108928571Y-92095238D02*
X109023809Y-92000000D01*
X109214285Y-91904761D01*
X109690476Y-91904761D01*
X109880952Y-92000000D01*
X109976190Y-92095238D01*
X110071428Y-92285714D01*
X110071428Y-92476190D01*
X109976190Y-92761904D01*
X108833333Y-93904761D01*
X110071428Y-93904761D01*
X75083333Y-90833333D02*
X75035714Y-90785714D01*
X74940476Y-90642857D01*
X74892857Y-90547619D01*
X74845238Y-90404761D01*
X74797619Y-90166666D01*
X74797619Y-89976190D01*
X74845238Y-89738095D01*
X74892857Y-89595238D01*
X74940476Y-89500000D01*
X75035714Y-89357142D01*
X75083333Y-89309523D01*
X75369047Y-89785714D02*
X75559523Y-90452380D01*
X75750000Y-89976190D01*
X75940476Y-90452380D01*
X76130952Y-89785714D01*
X76511904Y-90452380D02*
X76511904Y-89785714D01*
X76511904Y-89452380D02*
X76464285Y-89500000D01*
X76511904Y-89547619D01*
X76559523Y-89500000D01*
X76511904Y-89452380D01*
X76511904Y-89547619D01*
X76845238Y-89785714D02*
X77226190Y-89785714D01*
X76988095Y-90452380D02*
X76988095Y-89595238D01*
X77035714Y-89500000D01*
X77130952Y-89452380D01*
X77226190Y-89452380D01*
X77559523Y-90452380D02*
X77559523Y-89785714D01*
X77559523Y-89452380D02*
X77511904Y-89500000D01*
X77559523Y-89547619D01*
X77607142Y-89500000D01*
X77559523Y-89452380D01*
X77559523Y-89547619D01*
X79511904Y-89404761D02*
X78654761Y-90690476D01*
X80750000Y-90452380D02*
X80654761Y-90404761D01*
X80607142Y-90309523D01*
X80607142Y-89452380D01*
X81273809Y-90452380D02*
X81178571Y-90404761D01*
X81130952Y-90357142D01*
X81083333Y-90261904D01*
X81083333Y-89976190D01*
X81130952Y-89880952D01*
X81178571Y-89833333D01*
X81273809Y-89785714D01*
X81416666Y-89785714D01*
X81511904Y-89833333D01*
X81559523Y-89880952D01*
X81607142Y-89976190D01*
X81607142Y-90261904D01*
X81559523Y-90357142D01*
X81511904Y-90404761D01*
X81416666Y-90452380D01*
X81273809Y-90452380D01*
X82035714Y-90452380D02*
X82035714Y-89785714D01*
X82035714Y-89976190D02*
X82083333Y-89880952D01*
X82130952Y-89833333D01*
X82226190Y-89785714D01*
X82321428Y-89785714D01*
X83083333Y-90452380D02*
X83083333Y-89928571D01*
X83035714Y-89833333D01*
X82940476Y-89785714D01*
X82750000Y-89785714D01*
X82654761Y-89833333D01*
X83083333Y-90404761D02*
X82988095Y-90452380D01*
X82750000Y-90452380D01*
X82654761Y-90404761D01*
X82607142Y-90309523D01*
X82607142Y-90214285D01*
X82654761Y-90119047D01*
X82750000Y-90071428D01*
X82988095Y-90071428D01*
X83083333Y-90023809D01*
X84321428Y-90452380D02*
X84321428Y-89785714D01*
X84321428Y-89880952D02*
X84369047Y-89833333D01*
X84464285Y-89785714D01*
X84607142Y-89785714D01*
X84702380Y-89833333D01*
X84750000Y-89928571D01*
X84750000Y-90452380D01*
X84750000Y-89928571D02*
X84797619Y-89833333D01*
X84892857Y-89785714D01*
X85035714Y-89785714D01*
X85130952Y-89833333D01*
X85178571Y-89928571D01*
X85178571Y-90452380D01*
X85654761Y-90452380D02*
X85654761Y-89785714D01*
X85654761Y-89452380D02*
X85607142Y-89500000D01*
X85654761Y-89547619D01*
X85702380Y-89500000D01*
X85654761Y-89452380D01*
X85654761Y-89547619D01*
X86559523Y-90404761D02*
X86464285Y-90452380D01*
X86273809Y-90452380D01*
X86178571Y-90404761D01*
X86130952Y-90357142D01*
X86083333Y-90261904D01*
X86083333Y-89976190D01*
X86130952Y-89880952D01*
X86178571Y-89833333D01*
X86273809Y-89785714D01*
X86464285Y-89785714D01*
X86559523Y-89833333D01*
X86988095Y-90452380D02*
X86988095Y-89785714D01*
X86988095Y-89976190D02*
X87035714Y-89880952D01*
X87083333Y-89833333D01*
X87178571Y-89785714D01*
X87273809Y-89785714D01*
X87750000Y-90452380D02*
X87654761Y-90404761D01*
X87607142Y-90357142D01*
X87559523Y-90261904D01*
X87559523Y-89976190D01*
X87607142Y-89880952D01*
X87654761Y-89833333D01*
X87750000Y-89785714D01*
X87892857Y-89785714D01*
X87988095Y-89833333D01*
X88035714Y-89880952D01*
X88083333Y-89976190D01*
X88083333Y-90261904D01*
X88035714Y-90357142D01*
X87988095Y-90404761D01*
X87892857Y-90452380D01*
X87750000Y-90452380D01*
X88416666Y-90833333D02*
X88464285Y-90785714D01*
X88559523Y-90642857D01*
X88607142Y-90547619D01*
X88654761Y-90404761D01*
X88702380Y-90166666D01*
X88702380Y-89976190D01*
X88654761Y-89738095D01*
X88607142Y-89595238D01*
X88559523Y-89500000D01*
X88464285Y-89357142D01*
X88416666Y-89309523D01*
X150785714Y-70285714D02*
X150785714Y-71285714D01*
X150785714Y-70904761D02*
X150690476Y-70952380D01*
X150500000Y-70952380D01*
X150404761Y-70904761D01*
X150357142Y-70857142D01*
X150309523Y-70761904D01*
X150309523Y-70476190D01*
X150357142Y-70380952D01*
X150404761Y-70333333D01*
X150500000Y-70285714D01*
X150690476Y-70285714D01*
X150785714Y-70333333D01*
X151166666Y-70285714D02*
X151357142Y-70952380D01*
X151547619Y-70476190D01*
X151738095Y-70952380D01*
X151928571Y-70285714D01*
X152309523Y-70952380D02*
X152309523Y-70285714D01*
X152309523Y-69952380D02*
X152261904Y-70000000D01*
X152309523Y-70047619D01*
X152357142Y-70000000D01*
X152309523Y-69952380D01*
X152309523Y-70047619D01*
X152785714Y-70952380D02*
X152785714Y-70285714D01*
X152785714Y-69952380D02*
X152738095Y-70000000D01*
X152785714Y-70047619D01*
X152833333Y-70000000D01*
X152785714Y-69952380D01*
X152785714Y-70047619D01*
X153690476Y-70904761D02*
X153595238Y-70952380D01*
X153404761Y-70952380D01*
X153309523Y-70904761D01*
X153261904Y-70857142D01*
X153214285Y-70761904D01*
X153214285Y-70476190D01*
X153261904Y-70380952D01*
X153309523Y-70333333D01*
X153404761Y-70285714D01*
X153595238Y-70285714D01*
X153690476Y-70333333D01*
X148844095Y-86828380D02*
X149463142Y-86828380D01*
X149129809Y-87209333D01*
X149272666Y-87209333D01*
X149367904Y-87256952D01*
X149415523Y-87304571D01*
X149463142Y-87399809D01*
X149463142Y-87637904D01*
X149415523Y-87733142D01*
X149367904Y-87780761D01*
X149272666Y-87828380D01*
X148986952Y-87828380D01*
X148891714Y-87780761D01*
X148844095Y-87733142D01*
X149748857Y-86828380D02*
X150082190Y-87828380D01*
X150415523Y-86828380D01*
X148590095Y-89416000D02*
X148494857Y-89368380D01*
X148352000Y-89368380D01*
X148209142Y-89416000D01*
X148113904Y-89511238D01*
X148066285Y-89606476D01*
X148018666Y-89796952D01*
X148018666Y-89939809D01*
X148066285Y-90130285D01*
X148113904Y-90225523D01*
X148209142Y-90320761D01*
X148352000Y-90368380D01*
X148447238Y-90368380D01*
X148590095Y-90320761D01*
X148637714Y-90273142D01*
X148637714Y-89939809D01*
X148447238Y-89939809D01*
X149066285Y-90368380D02*
X149066285Y-89368380D01*
X149637714Y-90368380D01*
X149637714Y-89368380D01*
X150113904Y-90368380D02*
X150113904Y-89368380D01*
X150352000Y-89368380D01*
X150494857Y-89416000D01*
X150590095Y-89511238D01*
X150637714Y-89606476D01*
X150685333Y-89796952D01*
X150685333Y-89939809D01*
X150637714Y-90130285D01*
X150590095Y-90225523D01*
X150494857Y-90320761D01*
X150352000Y-90368380D01*
X150113904Y-90368380D01*
X139636666Y-79295809D02*
X139684285Y-79248190D01*
X139827142Y-79152952D01*
X139922380Y-79105333D01*
X140065238Y-79057714D01*
X140303333Y-79010095D01*
X140493809Y-79010095D01*
X140731904Y-79057714D01*
X140874761Y-79105333D01*
X140970000Y-79152952D01*
X141112857Y-79248190D01*
X141160476Y-79295809D01*
X140017619Y-79676761D02*
X140684285Y-79676761D01*
X140589047Y-79676761D02*
X140636666Y-79724380D01*
X140684285Y-79819619D01*
X140684285Y-79962476D01*
X140636666Y-80057714D01*
X140541428Y-80105333D01*
X140017619Y-80105333D01*
X140541428Y-80105333D02*
X140636666Y-80152952D01*
X140684285Y-80248190D01*
X140684285Y-80391047D01*
X140636666Y-80486285D01*
X140541428Y-80533904D01*
X140017619Y-80533904D01*
X140017619Y-81010095D02*
X140684285Y-81010095D01*
X141017619Y-81010095D02*
X140970000Y-80962476D01*
X140922380Y-81010095D01*
X140970000Y-81057714D01*
X141017619Y-81010095D01*
X140922380Y-81010095D01*
X140065238Y-81914857D02*
X140017619Y-81819619D01*
X140017619Y-81629142D01*
X140065238Y-81533904D01*
X140112857Y-81486285D01*
X140208095Y-81438666D01*
X140493809Y-81438666D01*
X140589047Y-81486285D01*
X140636666Y-81533904D01*
X140684285Y-81629142D01*
X140684285Y-81819619D01*
X140636666Y-81914857D01*
X139636666Y-82248190D02*
X139684285Y-82295809D01*
X139827142Y-82391047D01*
X139922380Y-82438666D01*
X140065238Y-82486285D01*
X140303333Y-82533904D01*
X140493809Y-82533904D01*
X140731904Y-82486285D01*
X140874761Y-82438666D01*
X140970000Y-82391047D01*
X141112857Y-82295809D01*
X141160476Y-82248190D01*
X80107142Y-124333333D02*
X80059523Y-124285714D01*
X79964285Y-124142857D01*
X79916666Y-124047619D01*
X79869047Y-123904761D01*
X79821428Y-123666666D01*
X79821428Y-123476190D01*
X79869047Y-123238095D01*
X79916666Y-123095238D01*
X79964285Y-123000000D01*
X80059523Y-122857142D01*
X80107142Y-122809523D01*
X81059523Y-123857142D02*
X81011904Y-123904761D01*
X80869047Y-123952380D01*
X80773809Y-123952380D01*
X80630952Y-123904761D01*
X80535714Y-123809523D01*
X80488095Y-123714285D01*
X80440476Y-123523809D01*
X80440476Y-123380952D01*
X80488095Y-123190476D01*
X80535714Y-123095238D01*
X80630952Y-123000000D01*
X80773809Y-122952380D01*
X80869047Y-122952380D01*
X81011904Y-123000000D01*
X81059523Y-123047619D01*
X81678571Y-122952380D02*
X81869047Y-122952380D01*
X81964285Y-123000000D01*
X82059523Y-123095238D01*
X82107142Y-123285714D01*
X82107142Y-123619047D01*
X82059523Y-123809523D01*
X81964285Y-123904761D01*
X81869047Y-123952380D01*
X81678571Y-123952380D01*
X81583333Y-123904761D01*
X81488095Y-123809523D01*
X81440476Y-123619047D01*
X81440476Y-123285714D01*
X81488095Y-123095238D01*
X81583333Y-123000000D01*
X81678571Y-122952380D01*
X82488095Y-123047619D02*
X82535714Y-123000000D01*
X82630952Y-122952380D01*
X82869047Y-122952380D01*
X82964285Y-123000000D01*
X83011904Y-123047619D01*
X83059523Y-123142857D01*
X83059523Y-123238095D01*
X83011904Y-123380952D01*
X82440476Y-123952380D01*
X83059523Y-123952380D01*
X83392857Y-124333333D02*
X83440476Y-124285714D01*
X83535714Y-124142857D01*
X83583333Y-124047619D01*
X83630952Y-123904761D01*
X83678571Y-123666666D01*
X83678571Y-123476190D01*
X83630952Y-123238095D01*
X83583333Y-123095238D01*
X83535714Y-123000000D01*
X83440476Y-122857142D01*
X83392857Y-122809523D01*
X129916666Y-117333333D02*
X129869047Y-117285714D01*
X129773809Y-117142857D01*
X129726190Y-117047619D01*
X129678571Y-116904761D01*
X129630952Y-116666666D01*
X129630952Y-116476190D01*
X129678571Y-116238095D01*
X129726190Y-116095238D01*
X129773809Y-116000000D01*
X129869047Y-115857142D01*
X129916666Y-115809523D01*
X130297619Y-116285714D02*
X130297619Y-117285714D01*
X130297619Y-116333333D02*
X130392857Y-116285714D01*
X130583333Y-116285714D01*
X130678571Y-116333333D01*
X130726190Y-116380952D01*
X130773809Y-116476190D01*
X130773809Y-116761904D01*
X130726190Y-116857142D01*
X130678571Y-116904761D01*
X130583333Y-116952380D01*
X130392857Y-116952380D01*
X130297619Y-116904761D01*
X131202380Y-116952380D02*
X131202380Y-116285714D01*
X131202380Y-116476190D02*
X131250000Y-116380952D01*
X131297619Y-116333333D01*
X131392857Y-116285714D01*
X131488095Y-116285714D01*
X132202380Y-116904761D02*
X132107142Y-116952380D01*
X131916666Y-116952380D01*
X131821428Y-116904761D01*
X131773809Y-116809523D01*
X131773809Y-116428571D01*
X131821428Y-116333333D01*
X131916666Y-116285714D01*
X132107142Y-116285714D01*
X132202380Y-116333333D01*
X132250000Y-116428571D01*
X132250000Y-116523809D01*
X131773809Y-116619047D01*
X132630952Y-116904761D02*
X132726190Y-116952380D01*
X132916666Y-116952380D01*
X133011904Y-116904761D01*
X133059523Y-116809523D01*
X133059523Y-116761904D01*
X133011904Y-116666666D01*
X132916666Y-116619047D01*
X132773809Y-116619047D01*
X132678571Y-116571428D01*
X132630952Y-116476190D01*
X132630952Y-116428571D01*
X132678571Y-116333333D01*
X132773809Y-116285714D01*
X132916666Y-116285714D01*
X133011904Y-116333333D01*
X133440476Y-116904761D02*
X133535714Y-116952380D01*
X133726190Y-116952380D01*
X133821428Y-116904761D01*
X133869047Y-116809523D01*
X133869047Y-116761904D01*
X133821428Y-116666666D01*
X133726190Y-116619047D01*
X133583333Y-116619047D01*
X133488095Y-116571428D01*
X133440476Y-116476190D01*
X133440476Y-116428571D01*
X133488095Y-116333333D01*
X133583333Y-116285714D01*
X133726190Y-116285714D01*
X133821428Y-116333333D01*
X134726190Y-116285714D02*
X134726190Y-116952380D01*
X134297619Y-116285714D02*
X134297619Y-116809523D01*
X134345238Y-116904761D01*
X134440476Y-116952380D01*
X134583333Y-116952380D01*
X134678571Y-116904761D01*
X134726190Y-116857142D01*
X135202380Y-116952380D02*
X135202380Y-116285714D01*
X135202380Y-116476190D02*
X135250000Y-116380952D01*
X135297619Y-116333333D01*
X135392857Y-116285714D01*
X135488095Y-116285714D01*
X136202380Y-116904761D02*
X136107142Y-116952380D01*
X135916666Y-116952380D01*
X135821428Y-116904761D01*
X135773809Y-116809523D01*
X135773809Y-116428571D01*
X135821428Y-116333333D01*
X135916666Y-116285714D01*
X136107142Y-116285714D01*
X136202380Y-116333333D01*
X136250000Y-116428571D01*
X136250000Y-116523809D01*
X135773809Y-116619047D01*
X136583333Y-117333333D02*
X136630952Y-117285714D01*
X136726190Y-117142857D01*
X136773809Y-117047619D01*
X136821428Y-116904761D01*
X136869047Y-116666666D01*
X136869047Y-116476190D01*
X136821428Y-116238095D01*
X136773809Y-116095238D01*
X136726190Y-116000000D01*
X136630952Y-115857142D01*
X136583333Y-115809523D01*
X107342857Y-81492857D02*
X107342857Y-82292857D01*
X107057142Y-81035714D02*
X106771428Y-81892857D01*
X107514285Y-81892857D01*
X107971428Y-82178571D02*
X108028571Y-82235714D01*
X107971428Y-82292857D01*
X107914285Y-82235714D01*
X107971428Y-82178571D01*
X107971428Y-82292857D01*
X108428571Y-81092857D02*
X109228571Y-81092857D01*
X108714285Y-82292857D01*
X109685714Y-82292857D02*
X109685714Y-81092857D01*
X110371428Y-82292857D02*
X109857142Y-81607142D01*
X110371428Y-81092857D02*
X109685714Y-81778571D01*
X112028571Y-81092857D02*
X112257142Y-81092857D01*
X112371428Y-81150000D01*
X112485714Y-81264285D01*
X112542857Y-81492857D01*
X112542857Y-81892857D01*
X112485714Y-82121428D01*
X112371428Y-82235714D01*
X112257142Y-82292857D01*
X112028571Y-82292857D01*
X111914285Y-82235714D01*
X111800000Y-82121428D01*
X111742857Y-81892857D01*
X111742857Y-81492857D01*
X111800000Y-81264285D01*
X111914285Y-81150000D01*
X112028571Y-81092857D01*
X113057142Y-82292857D02*
X113057142Y-81092857D01*
X113571428Y-82292857D02*
X113571428Y-81664285D01*
X113514285Y-81550000D01*
X113400000Y-81492857D01*
X113228571Y-81492857D01*
X113114285Y-81550000D01*
X113057142Y-81607142D01*
X114142857Y-82292857D02*
X114142857Y-81492857D01*
X114142857Y-81607142D02*
X114200000Y-81550000D01*
X114314285Y-81492857D01*
X114485714Y-81492857D01*
X114600000Y-81550000D01*
X114657142Y-81664285D01*
X114657142Y-82292857D01*
X114657142Y-81664285D02*
X114714285Y-81550000D01*
X114828571Y-81492857D01*
X115000000Y-81492857D01*
X115114285Y-81550000D01*
X115171428Y-81664285D01*
X115171428Y-82292857D01*
X126895142Y-77994285D02*
X126895142Y-77422857D01*
X126323714Y-77365714D01*
X126380857Y-77422857D01*
X126438000Y-77537142D01*
X126438000Y-77822857D01*
X126380857Y-77937142D01*
X126323714Y-77994285D01*
X126209428Y-78051428D01*
X125923714Y-78051428D01*
X125809428Y-77994285D01*
X125752285Y-77937142D01*
X125695142Y-77822857D01*
X125695142Y-77537142D01*
X125752285Y-77422857D01*
X125809428Y-77365714D01*
X126895142Y-78794285D02*
X126895142Y-78908571D01*
X126838000Y-79022857D01*
X126780857Y-79080000D01*
X126666571Y-79137142D01*
X126438000Y-79194285D01*
X126152285Y-79194285D01*
X125923714Y-79137142D01*
X125809428Y-79080000D01*
X125752285Y-79022857D01*
X125695142Y-78908571D01*
X125695142Y-78794285D01*
X125752285Y-78680000D01*
X125809428Y-78622857D01*
X125923714Y-78565714D01*
X126152285Y-78508571D01*
X126438000Y-78508571D01*
X126666571Y-78565714D01*
X126780857Y-78622857D01*
X126838000Y-78680000D01*
X126895142Y-78794285D01*
X126895142Y-79937142D02*
X126895142Y-80051428D01*
X126838000Y-80165714D01*
X126780857Y-80222857D01*
X126666571Y-80280000D01*
X126438000Y-80337142D01*
X126152285Y-80337142D01*
X125923714Y-80280000D01*
X125809428Y-80222857D01*
X125752285Y-80165714D01*
X125695142Y-80051428D01*
X125695142Y-79937142D01*
X125752285Y-79822857D01*
X125809428Y-79765714D01*
X125923714Y-79708571D01*
X126152285Y-79651428D01*
X126438000Y-79651428D01*
X126666571Y-79708571D01*
X126780857Y-79765714D01*
X126838000Y-79822857D01*
X126895142Y-79937142D01*
X126895142Y-81994285D02*
X126895142Y-82222857D01*
X126838000Y-82337142D01*
X126723714Y-82451428D01*
X126495142Y-82508571D01*
X126095142Y-82508571D01*
X125866571Y-82451428D01*
X125752285Y-82337142D01*
X125695142Y-82222857D01*
X125695142Y-81994285D01*
X125752285Y-81880000D01*
X125866571Y-81765714D01*
X126095142Y-81708571D01*
X126495142Y-81708571D01*
X126723714Y-81765714D01*
X126838000Y-81880000D01*
X126895142Y-81994285D01*
X125695142Y-83022857D02*
X126895142Y-83022857D01*
X125695142Y-83537142D02*
X126323714Y-83537142D01*
X126438000Y-83480000D01*
X126495142Y-83365714D01*
X126495142Y-83194285D01*
X126438000Y-83080000D01*
X126380857Y-83022857D01*
X125695142Y-84108571D02*
X126495142Y-84108571D01*
X126380857Y-84108571D02*
X126438000Y-84165714D01*
X126495142Y-84280000D01*
X126495142Y-84451428D01*
X126438000Y-84565714D01*
X126323714Y-84622857D01*
X125695142Y-84622857D01*
X126323714Y-84622857D02*
X126438000Y-84680000D01*
X126495142Y-84794285D01*
X126495142Y-84965714D01*
X126438000Y-85080000D01*
X126323714Y-85137142D01*
X125695142Y-85137142D01*
X71633333Y-70588095D02*
X71633333Y-69288095D01*
X72190476Y-70588095D02*
X72190476Y-69907142D01*
X72128571Y-69783333D01*
X72004761Y-69721428D01*
X71819047Y-69721428D01*
X71695238Y-69783333D01*
X71633333Y-69845238D01*
X72623809Y-69721428D02*
X73119047Y-69721428D01*
X72809523Y-69288095D02*
X72809523Y-70402380D01*
X72871428Y-70526190D01*
X72995238Y-70588095D01*
X73119047Y-70588095D01*
X73366666Y-69721428D02*
X73861904Y-69721428D01*
X73552380Y-69288095D02*
X73552380Y-70402380D01*
X73614285Y-70526190D01*
X73738095Y-70588095D01*
X73861904Y-70588095D01*
X74295238Y-69721428D02*
X74295238Y-71021428D01*
X74295238Y-69783333D02*
X74419047Y-69721428D01*
X74666666Y-69721428D01*
X74790476Y-69783333D01*
X74852380Y-69845238D01*
X74914285Y-69969047D01*
X74914285Y-70340476D01*
X74852380Y-70464285D01*
X74790476Y-70526190D01*
X74666666Y-70588095D01*
X74419047Y-70588095D01*
X74295238Y-70526190D01*
X75471428Y-70464285D02*
X75533333Y-70526190D01*
X75471428Y-70588095D01*
X75409523Y-70526190D01*
X75471428Y-70464285D01*
X75471428Y-70588095D01*
X75471428Y-69783333D02*
X75533333Y-69845238D01*
X75471428Y-69907142D01*
X75409523Y-69845238D01*
X75471428Y-69783333D01*
X75471428Y-69907142D01*
X77019047Y-69226190D02*
X75904761Y-70897619D01*
X78380952Y-69226190D02*
X77266666Y-70897619D01*
X78814285Y-69721428D02*
X78814285Y-71021428D01*
X78814285Y-69783333D02*
X78938095Y-69721428D01*
X79185714Y-69721428D01*
X79309523Y-69783333D01*
X79371428Y-69845238D01*
X79433333Y-69969047D01*
X79433333Y-70340476D01*
X79371428Y-70464285D01*
X79309523Y-70526190D01*
X79185714Y-70588095D01*
X78938095Y-70588095D01*
X78814285Y-70526190D01*
X79866666Y-69721428D02*
X80176190Y-70588095D01*
X80485714Y-69721428D01*
X81166666Y-70588095D02*
X81042857Y-70526190D01*
X80980952Y-70464285D01*
X80919047Y-70340476D01*
X80919047Y-69969047D01*
X80980952Y-69845238D01*
X81042857Y-69783333D01*
X81166666Y-69721428D01*
X81352380Y-69721428D01*
X81476190Y-69783333D01*
X81538095Y-69845238D01*
X81600000Y-69969047D01*
X81600000Y-70340476D01*
X81538095Y-70464285D01*
X81476190Y-70526190D01*
X81352380Y-70588095D01*
X81166666Y-70588095D01*
X82095238Y-70526190D02*
X82219047Y-70588095D01*
X82466666Y-70588095D01*
X82590476Y-70526190D01*
X82652380Y-70402380D01*
X82652380Y-70340476D01*
X82590476Y-70216666D01*
X82466666Y-70154761D01*
X82280952Y-70154761D01*
X82157142Y-70092857D01*
X82095238Y-69969047D01*
X82095238Y-69907142D01*
X82157142Y-69783333D01*
X82280952Y-69721428D01*
X82466666Y-69721428D01*
X82590476Y-69783333D01*
X83209523Y-70464285D02*
X83271428Y-70526190D01*
X83209523Y-70588095D01*
X83147619Y-70526190D01*
X83209523Y-70464285D01*
X83209523Y-70588095D01*
X84014285Y-70588095D02*
X83890476Y-70526190D01*
X83828571Y-70464285D01*
X83766666Y-70340476D01*
X83766666Y-69969047D01*
X83828571Y-69845238D01*
X83890476Y-69783333D01*
X84014285Y-69721428D01*
X84200000Y-69721428D01*
X84323809Y-69783333D01*
X84385714Y-69845238D01*
X84447619Y-69969047D01*
X84447619Y-70340476D01*
X84385714Y-70464285D01*
X84323809Y-70526190D01*
X84200000Y-70588095D01*
X84014285Y-70588095D01*
X85004761Y-70588095D02*
X85004761Y-69721428D01*
X85004761Y-69969047D02*
X85066666Y-69845238D01*
X85128571Y-69783333D01*
X85252380Y-69721428D01*
X85376190Y-69721428D01*
X86366666Y-69721428D02*
X86366666Y-70773809D01*
X86304761Y-70897619D01*
X86242857Y-70959523D01*
X86119047Y-71021428D01*
X85933333Y-71021428D01*
X85809523Y-70959523D01*
X86366666Y-70526190D02*
X86242857Y-70588095D01*
X85995238Y-70588095D01*
X85871428Y-70526190D01*
X85809523Y-70464285D01*
X85747619Y-70340476D01*
X85747619Y-69969047D01*
X85809523Y-69845238D01*
X85871428Y-69783333D01*
X85995238Y-69721428D01*
X86242857Y-69721428D01*
X86366666Y-69783333D01*
X147590000Y-83018380D02*
X147780476Y-83018380D01*
X147875714Y-83066000D01*
X147970952Y-83161238D01*
X148018571Y-83351714D01*
X148018571Y-83685047D01*
X147970952Y-83875523D01*
X147875714Y-83970761D01*
X147780476Y-84018380D01*
X147590000Y-84018380D01*
X147494761Y-83970761D01*
X147399523Y-83875523D01*
X147351904Y-83685047D01*
X147351904Y-83351714D01*
X147399523Y-83161238D01*
X147494761Y-83066000D01*
X147590000Y-83018380D01*
X148447142Y-83018380D02*
X148447142Y-83827904D01*
X148494761Y-83923142D01*
X148542380Y-83970761D01*
X148637619Y-84018380D01*
X148828095Y-84018380D01*
X148923333Y-83970761D01*
X148970952Y-83923142D01*
X149018571Y-83827904D01*
X149018571Y-83018380D01*
X149351904Y-83018380D02*
X149923333Y-83018380D01*
X149637619Y-84018380D02*
X149637619Y-83018380D01*
X147320095Y-77684380D02*
X147939142Y-77684380D01*
X147605809Y-78065333D01*
X147748666Y-78065333D01*
X147843904Y-78112952D01*
X147891523Y-78160571D01*
X147939142Y-78255809D01*
X147939142Y-78493904D01*
X147891523Y-78589142D01*
X147843904Y-78636761D01*
X147748666Y-78684380D01*
X147462952Y-78684380D01*
X147367714Y-78636761D01*
X147320095Y-78589142D01*
X148224857Y-77684380D02*
X148558190Y-78684380D01*
X148891523Y-77684380D01*
X148082095Y-80272000D02*
X147986857Y-80224380D01*
X147844000Y-80224380D01*
X147701142Y-80272000D01*
X147605904Y-80367238D01*
X147558285Y-80462476D01*
X147510666Y-80652952D01*
X147510666Y-80795809D01*
X147558285Y-80986285D01*
X147605904Y-81081523D01*
X147701142Y-81176761D01*
X147844000Y-81224380D01*
X147939238Y-81224380D01*
X148082095Y-81176761D01*
X148129714Y-81129142D01*
X148129714Y-80795809D01*
X147939238Y-80795809D01*
X148558285Y-81224380D02*
X148558285Y-80224380D01*
X149129714Y-81224380D01*
X149129714Y-80224380D01*
X149605904Y-81224380D02*
X149605904Y-80224380D01*
X149844000Y-80224380D01*
X149986857Y-80272000D01*
X150082095Y-80367238D01*
X150129714Y-80462476D01*
X150177333Y-80652952D01*
X150177333Y-80795809D01*
X150129714Y-80986285D01*
X150082095Y-81081523D01*
X149986857Y-81176761D01*
X149844000Y-81224380D01*
X149605904Y-81224380D01*
X137025238Y-74740285D02*
X139025238Y-74740285D01*
X137596666Y-75406952D01*
X139025238Y-76073619D01*
X137025238Y-76073619D01*
X137596666Y-76930761D02*
X137596666Y-77883142D01*
X137025238Y-76740285D02*
X139025238Y-77406952D01*
X137025238Y-78073619D01*
X139025238Y-78549809D02*
X137025238Y-79883142D01*
X139025238Y-79883142D02*
X137025238Y-78549809D01*
X138358571Y-81502190D02*
X137025238Y-81502190D01*
X139120476Y-81026000D02*
X137691904Y-80549809D01*
X137691904Y-81787904D01*
X138358571Y-83406952D02*
X137025238Y-83406952D01*
X139120476Y-82930761D02*
X137691904Y-82454571D01*
X137691904Y-83692666D01*
X139025238Y-85311714D02*
X139025238Y-84930761D01*
X138930000Y-84740285D01*
X138834761Y-84645047D01*
X138549047Y-84454571D01*
X138168095Y-84359333D01*
X137406190Y-84359333D01*
X137215714Y-84454571D01*
X137120476Y-84549809D01*
X137025238Y-84740285D01*
X137025238Y-85121238D01*
X137120476Y-85311714D01*
X137215714Y-85406952D01*
X137406190Y-85502190D01*
X137882380Y-85502190D01*
X138072857Y-85406952D01*
X138168095Y-85311714D01*
X138263333Y-85121238D01*
X138263333Y-84740285D01*
X138168095Y-84549809D01*
X138072857Y-84454571D01*
X137882380Y-84359333D01*
X139025238Y-87216476D02*
X139025238Y-86835523D01*
X138930000Y-86645047D01*
X138834761Y-86549809D01*
X138549047Y-86359333D01*
X138168095Y-86264095D01*
X137406190Y-86264095D01*
X137215714Y-86359333D01*
X137120476Y-86454571D01*
X137025238Y-86645047D01*
X137025238Y-87026000D01*
X137120476Y-87216476D01*
X137215714Y-87311714D01*
X137406190Y-87406952D01*
X137882380Y-87406952D01*
X138072857Y-87311714D01*
X138168095Y-87216476D01*
X138263333Y-87026000D01*
X138263333Y-86645047D01*
X138168095Y-86454571D01*
X138072857Y-86359333D01*
X137882380Y-86264095D01*
X140942857Y-69792857D02*
X140942857Y-68992857D01*
X140942857Y-69221428D02*
X141000000Y-69107142D01*
X141057142Y-69050000D01*
X141171428Y-68992857D01*
X141285714Y-68992857D01*
X142142857Y-69735714D02*
X142028571Y-69792857D01*
X141800000Y-69792857D01*
X141685714Y-69735714D01*
X141628571Y-69621428D01*
X141628571Y-69164285D01*
X141685714Y-69050000D01*
X141800000Y-68992857D01*
X142028571Y-68992857D01*
X142142857Y-69050000D01*
X142200000Y-69164285D01*
X142200000Y-69278571D01*
X141628571Y-69392857D01*
X142600000Y-68992857D02*
X142885714Y-69792857D01*
X143171428Y-68992857D01*
X143342857Y-69907142D02*
X144257142Y-69907142D01*
X144542857Y-69164285D02*
X144942857Y-69164285D01*
X145114285Y-69792857D02*
X144542857Y-69792857D01*
X144542857Y-68592857D01*
X145114285Y-68592857D01*
D10*
X124460000Y-72898000D02*
X146812000Y-72898000D01*
X146812000Y-88900000D02*
X146812000Y-72898000D01*
X124460000Y-88900000D02*
X124460000Y-72898000D01*
X124460000Y-88900000D02*
X146812000Y-88900000D01*
D11*
X99592857Y-112742857D02*
X99592857Y-113542857D01*
X99307142Y-112285714D02*
X99021428Y-113142857D01*
X99764285Y-113142857D01*
X100221428Y-113428571D02*
X100278571Y-113485714D01*
X100221428Y-113542857D01*
X100164285Y-113485714D01*
X100221428Y-113428571D01*
X100221428Y-113542857D01*
X100678571Y-112342857D02*
X101478571Y-112342857D01*
X100964285Y-113542857D01*
X101935714Y-113542857D02*
X101935714Y-112342857D01*
X102621428Y-113542857D02*
X102107142Y-112857142D01*
X102621428Y-112342857D02*
X101935714Y-113028571D01*
X104278571Y-112342857D02*
X104507142Y-112342857D01*
X104621428Y-112400000D01*
X104735714Y-112514285D01*
X104792857Y-112742857D01*
X104792857Y-113142857D01*
X104735714Y-113371428D01*
X104621428Y-113485714D01*
X104507142Y-113542857D01*
X104278571Y-113542857D01*
X104164285Y-113485714D01*
X104050000Y-113371428D01*
X103992857Y-113142857D01*
X103992857Y-112742857D01*
X104050000Y-112514285D01*
X104164285Y-112400000D01*
X104278571Y-112342857D01*
X105307142Y-113542857D02*
X105307142Y-112342857D01*
X105821428Y-113542857D02*
X105821428Y-112914285D01*
X105764285Y-112800000D01*
X105650000Y-112742857D01*
X105478571Y-112742857D01*
X105364285Y-112800000D01*
X105307142Y-112857142D01*
X106392857Y-113542857D02*
X106392857Y-112742857D01*
X106392857Y-112857142D02*
X106450000Y-112800000D01*
X106564285Y-112742857D01*
X106735714Y-112742857D01*
X106850000Y-112800000D01*
X106907142Y-112914285D01*
X106907142Y-113542857D01*
X106907142Y-112914285D02*
X106964285Y-112800000D01*
X107078571Y-112742857D01*
X107250000Y-112742857D01*
X107364285Y-112800000D01*
X107421428Y-112914285D01*
X107421428Y-113542857D01*
X75154761Y-96202380D02*
X75154761Y-95202380D01*
X75583333Y-96202380D02*
X75583333Y-95678571D01*
X75535714Y-95583333D01*
X75440476Y-95535714D01*
X75297619Y-95535714D01*
X75202380Y-95583333D01*
X75154761Y-95630952D01*
X76440476Y-96154761D02*
X76345238Y-96202380D01*
X76154761Y-96202380D01*
X76059523Y-96154761D01*
X76011904Y-96059523D01*
X76011904Y-95678571D01*
X76059523Y-95583333D01*
X76154761Y-95535714D01*
X76345238Y-95535714D01*
X76440476Y-95583333D01*
X76488095Y-95678571D01*
X76488095Y-95773809D01*
X76011904Y-95869047D01*
X77059523Y-96202380D02*
X76964285Y-96154761D01*
X76916666Y-96059523D01*
X76916666Y-95202380D01*
X77297619Y-95535714D02*
X77678571Y-95535714D01*
X77440476Y-95202380D02*
X77440476Y-96059523D01*
X77488095Y-96154761D01*
X77583333Y-96202380D01*
X77678571Y-96202380D01*
X78392857Y-96154761D02*
X78297619Y-96202380D01*
X78107142Y-96202380D01*
X78011904Y-96154761D01*
X77964285Y-96059523D01*
X77964285Y-95678571D01*
X78011904Y-95583333D01*
X78107142Y-95535714D01*
X78297619Y-95535714D01*
X78392857Y-95583333D01*
X78440476Y-95678571D01*
X78440476Y-95773809D01*
X77964285Y-95869047D01*
X79297619Y-96154761D02*
X79202380Y-96202380D01*
X79011904Y-96202380D01*
X78916666Y-96154761D01*
X78869047Y-96107142D01*
X78821428Y-96011904D01*
X78821428Y-95726190D01*
X78869047Y-95630952D01*
X78916666Y-95583333D01*
X79011904Y-95535714D01*
X79202380Y-95535714D01*
X79297619Y-95583333D01*
X79726190Y-96107142D02*
X79773809Y-96154761D01*
X79726190Y-96202380D01*
X79678571Y-96154761D01*
X79726190Y-96107142D01*
X79726190Y-96202380D01*
X80345238Y-96202380D02*
X80250000Y-96154761D01*
X80202380Y-96107142D01*
X80154761Y-96011904D01*
X80154761Y-95726190D01*
X80202380Y-95630952D01*
X80250000Y-95583333D01*
X80345238Y-95535714D01*
X80488095Y-95535714D01*
X80583333Y-95583333D01*
X80630952Y-95630952D01*
X80678571Y-95726190D01*
X80678571Y-96011904D01*
X80630952Y-96107142D01*
X80583333Y-96154761D01*
X80488095Y-96202380D01*
X80345238Y-96202380D01*
X81107142Y-96202380D02*
X81107142Y-95535714D01*
X81107142Y-95726190D02*
X81154761Y-95630952D01*
X81202380Y-95583333D01*
X81297619Y-95535714D01*
X81392857Y-95535714D01*
X82154761Y-95535714D02*
X82154761Y-96345238D01*
X82107142Y-96440476D01*
X82059523Y-96488095D01*
X81964285Y-96535714D01*
X81821428Y-96535714D01*
X81726190Y-96488095D01*
X82154761Y-96154761D02*
X82059523Y-96202380D01*
X81869047Y-96202380D01*
X81773809Y-96154761D01*
X81726190Y-96107142D01*
X81678571Y-96011904D01*
X81678571Y-95726190D01*
X81726190Y-95630952D01*
X81773809Y-95583333D01*
X81869047Y-95535714D01*
X82059523Y-95535714D01*
X82154761Y-95583333D01*
X83345238Y-95154761D02*
X82488095Y-96440476D01*
X83678571Y-95535714D02*
X83678571Y-96535714D01*
X83678571Y-95583333D02*
X83773809Y-95535714D01*
X83964285Y-95535714D01*
X84059523Y-95583333D01*
X84107142Y-95630952D01*
X84154761Y-95726190D01*
X84154761Y-96011904D01*
X84107142Y-96107142D01*
X84059523Y-96154761D01*
X83964285Y-96202380D01*
X83773809Y-96202380D01*
X83678571Y-96154761D01*
X84583333Y-96202380D02*
X84583333Y-95535714D01*
X84583333Y-95726190D02*
X84630952Y-95630952D01*
X84678571Y-95583333D01*
X84773809Y-95535714D01*
X84869047Y-95535714D01*
X85345238Y-96202380D02*
X85250000Y-96154761D01*
X85202380Y-96107142D01*
X85154761Y-96011904D01*
X85154761Y-95726190D01*
X85202380Y-95630952D01*
X85250000Y-95583333D01*
X85345238Y-95535714D01*
X85488095Y-95535714D01*
X85583333Y-95583333D01*
X85630952Y-95630952D01*
X85678571Y-95726190D01*
X85678571Y-96011904D01*
X85630952Y-96107142D01*
X85583333Y-96154761D01*
X85488095Y-96202380D01*
X85345238Y-96202380D01*
X86107142Y-95535714D02*
X86107142Y-96392857D01*
X86059523Y-96488095D01*
X85964285Y-96535714D01*
X85916666Y-96535714D01*
X86107142Y-95202380D02*
X86059523Y-95250000D01*
X86107142Y-95297619D01*
X86154761Y-95250000D01*
X86107142Y-95202380D01*
X86107142Y-95297619D01*
X86964285Y-96154761D02*
X86869047Y-96202380D01*
X86678571Y-96202380D01*
X86583333Y-96154761D01*
X86535714Y-96059523D01*
X86535714Y-95678571D01*
X86583333Y-95583333D01*
X86678571Y-95535714D01*
X86869047Y-95535714D01*
X86964285Y-95583333D01*
X87011904Y-95678571D01*
X87011904Y-95773809D01*
X86535714Y-95869047D01*
X87869047Y-96154761D02*
X87773809Y-96202380D01*
X87583333Y-96202380D01*
X87488095Y-96154761D01*
X87440476Y-96107142D01*
X87392857Y-96011904D01*
X87392857Y-95726190D01*
X87440476Y-95630952D01*
X87488095Y-95583333D01*
X87583333Y-95535714D01*
X87773809Y-95535714D01*
X87869047Y-95583333D01*
X88154761Y-95535714D02*
X88535714Y-95535714D01*
X88297619Y-95202380D02*
X88297619Y-96059523D01*
X88345238Y-96154761D01*
X88440476Y-96202380D01*
X88535714Y-96202380D01*
X89583333Y-95154761D02*
X88726190Y-96440476D01*
X89821428Y-95535714D02*
X90011904Y-96202380D01*
X90202380Y-95726190D01*
X90392857Y-96202380D01*
X90583333Y-95535714D01*
X90964285Y-96202380D02*
X90964285Y-95535714D01*
X90964285Y-95202380D02*
X90916666Y-95250000D01*
X90964285Y-95297619D01*
X91011904Y-95250000D01*
X90964285Y-95202380D01*
X90964285Y-95297619D01*
X91297619Y-95535714D02*
X91678571Y-95535714D01*
X91440476Y-96202380D02*
X91440476Y-95345238D01*
X91488095Y-95250000D01*
X91583333Y-95202380D01*
X91678571Y-95202380D01*
X92011904Y-96202380D02*
X92011904Y-95535714D01*
X92011904Y-95202380D02*
X91964285Y-95250000D01*
X92011904Y-95297619D01*
X92059523Y-95250000D01*
X92011904Y-95202380D01*
X92011904Y-95297619D01*
X92488095Y-95821428D02*
X93250000Y-95821428D01*
X93869047Y-96202380D02*
X93773809Y-96154761D01*
X93726190Y-96059523D01*
X93726190Y-95202380D01*
X94392857Y-96202380D02*
X94297619Y-96154761D01*
X94250000Y-96107142D01*
X94202380Y-96011904D01*
X94202380Y-95726190D01*
X94250000Y-95630952D01*
X94297619Y-95583333D01*
X94392857Y-95535714D01*
X94535714Y-95535714D01*
X94630952Y-95583333D01*
X94678571Y-95630952D01*
X94726190Y-95726190D01*
X94726190Y-96011904D01*
X94678571Y-96107142D01*
X94630952Y-96154761D01*
X94535714Y-96202380D01*
X94392857Y-96202380D01*
X95154761Y-96202380D02*
X95154761Y-95535714D01*
X95154761Y-95726190D02*
X95202380Y-95630952D01*
X95250000Y-95583333D01*
X95345238Y-95535714D01*
X95440476Y-95535714D01*
X96202380Y-96202380D02*
X96202380Y-95678571D01*
X96154761Y-95583333D01*
X96059523Y-95535714D01*
X95869047Y-95535714D01*
X95773809Y-95583333D01*
X96202380Y-96154761D02*
X96107142Y-96202380D01*
X95869047Y-96202380D01*
X95773809Y-96154761D01*
X95726190Y-96059523D01*
X95726190Y-95964285D01*
X95773809Y-95869047D01*
X95869047Y-95821428D01*
X96107142Y-95821428D01*
X96202380Y-95773809D01*
X96678571Y-95821428D02*
X97440476Y-95821428D01*
X97821428Y-95202380D02*
X98440476Y-95202380D01*
X98107142Y-95583333D01*
X98250000Y-95583333D01*
X98345238Y-95630952D01*
X98392857Y-95678571D01*
X98440476Y-95773809D01*
X98440476Y-96011904D01*
X98392857Y-96107142D01*
X98345238Y-96154761D01*
X98250000Y-96202380D01*
X97964285Y-96202380D01*
X97869047Y-96154761D01*
X97821428Y-96107142D01*
X98821428Y-95297619D02*
X98869047Y-95250000D01*
X98964285Y-95202380D01*
X99202380Y-95202380D01*
X99297619Y-95250000D01*
X99345238Y-95297619D01*
X99392857Y-95392857D01*
X99392857Y-95488095D01*
X99345238Y-95630952D01*
X98773809Y-96202380D01*
X99392857Y-96202380D01*
D10*
X122936000Y-102870000D02*
X122936000Y-72898000D01*
X66802000Y-102870000D02*
X122936000Y-102870000D01*
X66802000Y-72898000D02*
X66802000Y-102870000D01*
X122936000Y-72898000D02*
X66802000Y-72898000D01*
D11*
X68157142Y-87492857D02*
X67242857Y-87835714D01*
X68157142Y-88178571D01*
X68728571Y-87092857D02*
X68728571Y-88064285D01*
X68785714Y-88178571D01*
X68842857Y-88235714D01*
X68957142Y-88292857D01*
X69185714Y-88292857D01*
X69300000Y-88235714D01*
X69357142Y-88178571D01*
X69414285Y-88064285D01*
X69414285Y-87092857D01*
X69928571Y-88235714D02*
X70100000Y-88292857D01*
X70385714Y-88292857D01*
X70500000Y-88235714D01*
X70557142Y-88178571D01*
X70614285Y-88064285D01*
X70614285Y-87950000D01*
X70557142Y-87835714D01*
X70500000Y-87778571D01*
X70385714Y-87721428D01*
X70157142Y-87664285D01*
X70042857Y-87607142D01*
X69985714Y-87550000D01*
X69928571Y-87435714D01*
X69928571Y-87321428D01*
X69985714Y-87207142D01*
X70042857Y-87150000D01*
X70157142Y-87092857D01*
X70442857Y-87092857D01*
X70614285Y-87150000D01*
X71528571Y-87664285D02*
X71700000Y-87721428D01*
X71757142Y-87778571D01*
X71814285Y-87892857D01*
X71814285Y-88064285D01*
X71757142Y-88178571D01*
X71700000Y-88235714D01*
X71585714Y-88292857D01*
X71128571Y-88292857D01*
X71128571Y-87092857D01*
X71528571Y-87092857D01*
X71642857Y-87150000D01*
X71700000Y-87207142D01*
X71757142Y-87321428D01*
X71757142Y-87435714D01*
X71700000Y-87550000D01*
X71642857Y-87607142D01*
X71528571Y-87664285D01*
X71128571Y-87664285D01*
X79773809Y-129404761D02*
X79869047Y-129452380D01*
X80059523Y-129452380D01*
X80154761Y-129404761D01*
X80202380Y-129309523D01*
X80202380Y-129261904D01*
X80154761Y-129166666D01*
X80059523Y-129119047D01*
X79916666Y-129119047D01*
X79821428Y-129071428D01*
X79773809Y-128976190D01*
X79773809Y-128928571D01*
X79821428Y-128833333D01*
X79916666Y-128785714D01*
X80059523Y-128785714D01*
X80154761Y-128833333D01*
X80630952Y-128785714D02*
X80630952Y-129785714D01*
X80630952Y-128833333D02*
X80726190Y-128785714D01*
X80916666Y-128785714D01*
X81011904Y-128833333D01*
X81059523Y-128880952D01*
X81107142Y-128976190D01*
X81107142Y-129261904D01*
X81059523Y-129357142D01*
X81011904Y-129404761D01*
X80916666Y-129452380D01*
X80726190Y-129452380D01*
X80630952Y-129404761D01*
X81964285Y-129452380D02*
X81964285Y-128928571D01*
X81916666Y-128833333D01*
X81821428Y-128785714D01*
X81630952Y-128785714D01*
X81535714Y-128833333D01*
X81964285Y-129404761D02*
X81869047Y-129452380D01*
X81630952Y-129452380D01*
X81535714Y-129404761D01*
X81488095Y-129309523D01*
X81488095Y-129214285D01*
X81535714Y-129119047D01*
X81630952Y-129071428D01*
X81869047Y-129071428D01*
X81964285Y-129023809D01*
X82440476Y-129452380D02*
X82440476Y-128785714D01*
X82440476Y-128976190D02*
X82488095Y-128880952D01*
X82535714Y-128833333D01*
X82630952Y-128785714D01*
X82726190Y-128785714D01*
X83059523Y-129452380D02*
X83059523Y-128452380D01*
X83154761Y-129071428D02*
X83440476Y-129452380D01*
X83440476Y-128785714D02*
X83059523Y-129166666D01*
X83726190Y-128785714D02*
X84107142Y-128785714D01*
X83869047Y-129452380D02*
X83869047Y-128595238D01*
X83916666Y-128500000D01*
X84011904Y-128452380D01*
X84107142Y-128452380D01*
X84869047Y-128785714D02*
X84869047Y-129452380D01*
X84440476Y-128785714D02*
X84440476Y-129309523D01*
X84488095Y-129404761D01*
X84583333Y-129452380D01*
X84726190Y-129452380D01*
X84821428Y-129404761D01*
X84869047Y-129357142D01*
X85345238Y-128785714D02*
X85345238Y-129452380D01*
X85345238Y-128880952D02*
X85392857Y-128833333D01*
X85488095Y-128785714D01*
X85630952Y-128785714D01*
X85726190Y-128833333D01*
X85773809Y-128928571D01*
X85773809Y-129452380D01*
X86250000Y-129357142D02*
X86297619Y-129404761D01*
X86250000Y-129452380D01*
X86202380Y-129404761D01*
X86250000Y-129357142D01*
X86250000Y-129452380D01*
X87154761Y-129404761D02*
X87059523Y-129452380D01*
X86869047Y-129452380D01*
X86773809Y-129404761D01*
X86726190Y-129357142D01*
X86678571Y-129261904D01*
X86678571Y-128976190D01*
X86726190Y-128880952D01*
X86773809Y-128833333D01*
X86869047Y-128785714D01*
X87059523Y-128785714D01*
X87154761Y-128833333D01*
X87726190Y-129452380D02*
X87630952Y-129404761D01*
X87583333Y-129357142D01*
X87535714Y-129261904D01*
X87535714Y-128976190D01*
X87583333Y-128880952D01*
X87630952Y-128833333D01*
X87726190Y-128785714D01*
X87869047Y-128785714D01*
X87964285Y-128833333D01*
X88011904Y-128880952D01*
X88059523Y-128976190D01*
X88059523Y-129261904D01*
X88011904Y-129357142D01*
X87964285Y-129404761D01*
X87869047Y-129452380D01*
X87726190Y-129452380D01*
X88488095Y-129452380D02*
X88488095Y-128785714D01*
X88488095Y-128880952D02*
X88535714Y-128833333D01*
X88630952Y-128785714D01*
X88773809Y-128785714D01*
X88869047Y-128833333D01*
X88916666Y-128928571D01*
X88916666Y-129452380D01*
X88916666Y-128928571D02*
X88964285Y-128833333D01*
X89059523Y-128785714D01*
X89202380Y-128785714D01*
X89297619Y-128833333D01*
X89345238Y-128928571D01*
X89345238Y-129452380D01*
X90535714Y-128404761D02*
X89678571Y-129690476D01*
X90869047Y-128785714D02*
X90869047Y-129785714D01*
X90869047Y-128833333D02*
X90964285Y-128785714D01*
X91154761Y-128785714D01*
X91250000Y-128833333D01*
X91297619Y-128880952D01*
X91345238Y-128976190D01*
X91345238Y-129261904D01*
X91297619Y-129357142D01*
X91250000Y-129404761D01*
X91154761Y-129452380D01*
X90964285Y-129452380D01*
X90869047Y-129404761D01*
X91773809Y-129452380D02*
X91773809Y-128785714D01*
X91773809Y-128976190D02*
X91821428Y-128880952D01*
X91869047Y-128833333D01*
X91964285Y-128785714D01*
X92059523Y-128785714D01*
X92535714Y-129452380D02*
X92440476Y-129404761D01*
X92392857Y-129357142D01*
X92345238Y-129261904D01*
X92345238Y-128976190D01*
X92392857Y-128880952D01*
X92440476Y-128833333D01*
X92535714Y-128785714D01*
X92678571Y-128785714D01*
X92773809Y-128833333D01*
X92821428Y-128880952D01*
X92869047Y-128976190D01*
X92869047Y-129261904D01*
X92821428Y-129357142D01*
X92773809Y-129404761D01*
X92678571Y-129452380D01*
X92535714Y-129452380D01*
X93726190Y-129452380D02*
X93726190Y-128452380D01*
X93726190Y-129404761D02*
X93630952Y-129452380D01*
X93440476Y-129452380D01*
X93345238Y-129404761D01*
X93297619Y-129357142D01*
X93250000Y-129261904D01*
X93250000Y-128976190D01*
X93297619Y-128880952D01*
X93345238Y-128833333D01*
X93440476Y-128785714D01*
X93630952Y-128785714D01*
X93726190Y-128833333D01*
X94630952Y-128785714D02*
X94630952Y-129452380D01*
X94202380Y-128785714D02*
X94202380Y-129309523D01*
X94250000Y-129404761D01*
X94345238Y-129452380D01*
X94488095Y-129452380D01*
X94583333Y-129404761D01*
X94630952Y-129357142D01*
X95535714Y-129404761D02*
X95440476Y-129452380D01*
X95250000Y-129452380D01*
X95154761Y-129404761D01*
X95107142Y-129357142D01*
X95059523Y-129261904D01*
X95059523Y-128976190D01*
X95107142Y-128880952D01*
X95154761Y-128833333D01*
X95250000Y-128785714D01*
X95440476Y-128785714D01*
X95535714Y-128833333D01*
X95821428Y-128785714D02*
X96202380Y-128785714D01*
X95964285Y-128452380D02*
X95964285Y-129309523D01*
X96011904Y-129404761D01*
X96107142Y-129452380D01*
X96202380Y-129452380D01*
X96488095Y-129404761D02*
X96583333Y-129452380D01*
X96773809Y-129452380D01*
X96869047Y-129404761D01*
X96916666Y-129309523D01*
X96916666Y-129261904D01*
X96869047Y-129166666D01*
X96773809Y-129119047D01*
X96630952Y-129119047D01*
X96535714Y-129071428D01*
X96488095Y-128976190D01*
X96488095Y-128928571D01*
X96535714Y-128833333D01*
X96630952Y-128785714D01*
X96773809Y-128785714D01*
X96869047Y-128833333D01*
X98059523Y-128404761D02*
X97202380Y-129690476D01*
X98916666Y-129452380D02*
X98345238Y-129452380D01*
X98630952Y-129452380D02*
X98630952Y-128452380D01*
X98535714Y-128595238D01*
X98440476Y-128690476D01*
X98345238Y-128738095D01*
X99821428Y-128452380D02*
X99345238Y-128452380D01*
X99297619Y-128928571D01*
X99345238Y-128880952D01*
X99440476Y-128833333D01*
X99678571Y-128833333D01*
X99773809Y-128880952D01*
X99821428Y-128928571D01*
X99869047Y-129023809D01*
X99869047Y-129261904D01*
X99821428Y-129357142D01*
X99773809Y-129404761D01*
X99678571Y-129452380D01*
X99440476Y-129452380D01*
X99345238Y-129404761D01*
X99297619Y-129357142D01*
X100821428Y-129452380D02*
X100250000Y-129452380D01*
X100535714Y-129452380D02*
X100535714Y-128452380D01*
X100440476Y-128595238D01*
X100345238Y-128690476D01*
X100250000Y-128738095D01*
X101773809Y-129452380D02*
X101202380Y-129452380D01*
X101488095Y-129452380D02*
X101488095Y-128452380D01*
X101392857Y-128595238D01*
X101297619Y-128690476D01*
X101202380Y-128738095D01*
X102154761Y-128547619D02*
X102202380Y-128500000D01*
X102297619Y-128452380D01*
X102535714Y-128452380D01*
X102630952Y-128500000D01*
X102678571Y-128547619D01*
X102726190Y-128642857D01*
X102726190Y-128738095D01*
X102678571Y-128880952D01*
X102107142Y-129452380D01*
X102726190Y-129452380D01*
X124298666Y-122372380D02*
X124298666Y-121848571D01*
X124251047Y-121753333D01*
X124155809Y-121705714D01*
X123965333Y-121705714D01*
X123870095Y-121753333D01*
X124298666Y-122324761D02*
X124203428Y-122372380D01*
X123965333Y-122372380D01*
X123870095Y-122324761D01*
X123822476Y-122229523D01*
X123822476Y-122134285D01*
X123870095Y-122039047D01*
X123965333Y-121991428D01*
X124203428Y-121991428D01*
X124298666Y-121943809D01*
X125203428Y-122372380D02*
X125203428Y-121372380D01*
X125203428Y-122324761D02*
X125108190Y-122372380D01*
X124917714Y-122372380D01*
X124822476Y-122324761D01*
X124774857Y-122277142D01*
X124727238Y-122181904D01*
X124727238Y-121896190D01*
X124774857Y-121800952D01*
X124822476Y-121753333D01*
X124917714Y-121705714D01*
X125108190Y-121705714D01*
X125203428Y-121753333D01*
X126108190Y-122372380D02*
X126108190Y-121848571D01*
X126060571Y-121753333D01*
X125965333Y-121705714D01*
X125774857Y-121705714D01*
X125679619Y-121753333D01*
X126108190Y-122324761D02*
X126012952Y-122372380D01*
X125774857Y-122372380D01*
X125679619Y-122324761D01*
X125632000Y-122229523D01*
X125632000Y-122134285D01*
X125679619Y-122039047D01*
X125774857Y-121991428D01*
X126012952Y-121991428D01*
X126108190Y-121943809D01*
X126441523Y-121705714D02*
X126822476Y-121705714D01*
X126584380Y-122372380D02*
X126584380Y-121515238D01*
X126632000Y-121420000D01*
X126727238Y-121372380D01*
X126822476Y-121372380D01*
X127155809Y-122372380D02*
X127155809Y-121705714D01*
X127155809Y-121896190D02*
X127203428Y-121800952D01*
X127251047Y-121753333D01*
X127346285Y-121705714D01*
X127441523Y-121705714D01*
X128203428Y-121705714D02*
X128203428Y-122372380D01*
X127774857Y-121705714D02*
X127774857Y-122229523D01*
X127822476Y-122324761D01*
X127917714Y-122372380D01*
X128060571Y-122372380D01*
X128155809Y-122324761D01*
X128203428Y-122277142D01*
X128679619Y-122372380D02*
X128679619Y-121705714D01*
X128679619Y-121372380D02*
X128632000Y-121420000D01*
X128679619Y-121467619D01*
X128727238Y-121420000D01*
X128679619Y-121372380D01*
X128679619Y-121467619D01*
X129012952Y-121705714D02*
X129393904Y-121705714D01*
X129155809Y-121372380D02*
X129155809Y-122229523D01*
X129203428Y-122324761D01*
X129298666Y-122372380D01*
X129393904Y-122372380D01*
X129727238Y-122277142D02*
X129774857Y-122324761D01*
X129727238Y-122372380D01*
X129679619Y-122324761D01*
X129727238Y-122277142D01*
X129727238Y-122372380D01*
X130632000Y-122324761D02*
X130536761Y-122372380D01*
X130346285Y-122372380D01*
X130251047Y-122324761D01*
X130203428Y-122277142D01*
X130155809Y-122181904D01*
X130155809Y-121896190D01*
X130203428Y-121800952D01*
X130251047Y-121753333D01*
X130346285Y-121705714D01*
X130536761Y-121705714D01*
X130632000Y-121753333D01*
X131203428Y-122372380D02*
X131108190Y-122324761D01*
X131060571Y-122277142D01*
X131012952Y-122181904D01*
X131012952Y-121896190D01*
X131060571Y-121800952D01*
X131108190Y-121753333D01*
X131203428Y-121705714D01*
X131346285Y-121705714D01*
X131441523Y-121753333D01*
X131489142Y-121800952D01*
X131536761Y-121896190D01*
X131536761Y-122181904D01*
X131489142Y-122277142D01*
X131441523Y-122324761D01*
X131346285Y-122372380D01*
X131203428Y-122372380D01*
X131965333Y-122372380D02*
X131965333Y-121705714D01*
X131965333Y-121800952D02*
X132012952Y-121753333D01*
X132108190Y-121705714D01*
X132251047Y-121705714D01*
X132346285Y-121753333D01*
X132393904Y-121848571D01*
X132393904Y-122372380D01*
X132393904Y-121848571D02*
X132441523Y-121753333D01*
X132536761Y-121705714D01*
X132679619Y-121705714D01*
X132774857Y-121753333D01*
X132822476Y-121848571D01*
X132822476Y-122372380D01*
X134012952Y-121324761D02*
X133155809Y-122610476D01*
X134346285Y-121705714D02*
X134346285Y-122705714D01*
X134346285Y-121753333D02*
X134441523Y-121705714D01*
X134632000Y-121705714D01*
X134727238Y-121753333D01*
X134774857Y-121800952D01*
X134822476Y-121896190D01*
X134822476Y-122181904D01*
X134774857Y-122277142D01*
X134727238Y-122324761D01*
X134632000Y-122372380D01*
X134441523Y-122372380D01*
X134346285Y-122324761D01*
X135251047Y-122372380D02*
X135251047Y-121705714D01*
X135251047Y-121896190D02*
X135298666Y-121800952D01*
X135346285Y-121753333D01*
X135441523Y-121705714D01*
X135536761Y-121705714D01*
X136012952Y-122372380D02*
X135917714Y-122324761D01*
X135870095Y-122277142D01*
X135822476Y-122181904D01*
X135822476Y-121896190D01*
X135870095Y-121800952D01*
X135917714Y-121753333D01*
X136012952Y-121705714D01*
X136155809Y-121705714D01*
X136251047Y-121753333D01*
X136298666Y-121800952D01*
X136346285Y-121896190D01*
X136346285Y-122181904D01*
X136298666Y-122277142D01*
X136251047Y-122324761D01*
X136155809Y-122372380D01*
X136012952Y-122372380D01*
X137203428Y-122372380D02*
X137203428Y-121372380D01*
X137203428Y-122324761D02*
X137108190Y-122372380D01*
X136917714Y-122372380D01*
X136822476Y-122324761D01*
X136774857Y-122277142D01*
X136727238Y-122181904D01*
X136727238Y-121896190D01*
X136774857Y-121800952D01*
X136822476Y-121753333D01*
X136917714Y-121705714D01*
X137108190Y-121705714D01*
X137203428Y-121753333D01*
X138108190Y-121705714D02*
X138108190Y-122372380D01*
X137679619Y-121705714D02*
X137679619Y-122229523D01*
X137727238Y-122324761D01*
X137822476Y-122372380D01*
X137965333Y-122372380D01*
X138060571Y-122324761D01*
X138108190Y-122277142D01*
X139012952Y-122324761D02*
X138917714Y-122372380D01*
X138727238Y-122372380D01*
X138632000Y-122324761D01*
X138584380Y-122277142D01*
X138536761Y-122181904D01*
X138536761Y-121896190D01*
X138584380Y-121800952D01*
X138632000Y-121753333D01*
X138727238Y-121705714D01*
X138917714Y-121705714D01*
X139012952Y-121753333D01*
X139298666Y-121705714D02*
X139679619Y-121705714D01*
X139441523Y-121372380D02*
X139441523Y-122229523D01*
X139489142Y-122324761D01*
X139584380Y-122372380D01*
X139679619Y-122372380D01*
X140727238Y-121324761D02*
X139870095Y-122610476D01*
X141489142Y-121705714D02*
X141489142Y-122372380D01*
X141251047Y-121324761D02*
X141012952Y-122039047D01*
X141632000Y-122039047D01*
X142155809Y-121800952D02*
X142060571Y-121753333D01*
X142012952Y-121705714D01*
X141965333Y-121610476D01*
X141965333Y-121562857D01*
X142012952Y-121467619D01*
X142060571Y-121420000D01*
X142155809Y-121372380D01*
X142346285Y-121372380D01*
X142441523Y-121420000D01*
X142489142Y-121467619D01*
X142536761Y-121562857D01*
X142536761Y-121610476D01*
X142489142Y-121705714D01*
X142441523Y-121753333D01*
X142346285Y-121800952D01*
X142155809Y-121800952D01*
X142060571Y-121848571D01*
X142012952Y-121896190D01*
X141965333Y-121991428D01*
X141965333Y-122181904D01*
X142012952Y-122277142D01*
X142060571Y-122324761D01*
X142155809Y-122372380D01*
X142346285Y-122372380D01*
X142441523Y-122324761D01*
X142489142Y-122277142D01*
X142536761Y-122181904D01*
X142536761Y-121991428D01*
X142489142Y-121896190D01*
X142441523Y-121848571D01*
X142346285Y-121800952D01*
X143489142Y-122372380D02*
X142917714Y-122372380D01*
X143203428Y-122372380D02*
X143203428Y-121372380D01*
X143108190Y-121515238D01*
X143012952Y-121610476D01*
X142917714Y-121658095D01*
X144346285Y-121372380D02*
X144155809Y-121372380D01*
X144060571Y-121420000D01*
X144012952Y-121467619D01*
X143917714Y-121610476D01*
X143870095Y-121800952D01*
X143870095Y-122181904D01*
X143917714Y-122277142D01*
X143965333Y-122324761D01*
X144060571Y-122372380D01*
X144251047Y-122372380D01*
X144346285Y-122324761D01*
X144393904Y-122277142D01*
X144441523Y-122181904D01*
X144441523Y-121943809D01*
X144393904Y-121848571D01*
X144346285Y-121800952D01*
X144251047Y-121753333D01*
X144060571Y-121753333D01*
X143965333Y-121800952D01*
X143917714Y-121848571D01*
X143870095Y-121943809D01*
X85447238Y-111053714D02*
X85399619Y-111196571D01*
X85399619Y-111434666D01*
X85447238Y-111529904D01*
X85494857Y-111577523D01*
X85590095Y-111625142D01*
X85685333Y-111625142D01*
X85780571Y-111577523D01*
X85828190Y-111529904D01*
X85875809Y-111434666D01*
X85923428Y-111244190D01*
X85971047Y-111148952D01*
X86018666Y-111101333D01*
X86113904Y-111053714D01*
X86209142Y-111053714D01*
X86304380Y-111101333D01*
X86352000Y-111148952D01*
X86399619Y-111244190D01*
X86399619Y-111482285D01*
X86352000Y-111625142D01*
X85399619Y-112053714D02*
X86399619Y-112053714D01*
X86399619Y-112291809D01*
X86352000Y-112434666D01*
X86256761Y-112529904D01*
X86161523Y-112577523D01*
X85971047Y-112625142D01*
X85828190Y-112625142D01*
X85637714Y-112577523D01*
X85542476Y-112529904D01*
X85447238Y-112434666D01*
X85399619Y-112291809D01*
X85399619Y-112053714D01*
X85685333Y-113006095D02*
X85685333Y-113482285D01*
X85399619Y-112910857D02*
X86399619Y-113244190D01*
X85399619Y-113577523D01*
X78779619Y-111238095D02*
X78779619Y-111857142D01*
X78398666Y-111523809D01*
X78398666Y-111666666D01*
X78351047Y-111761904D01*
X78303428Y-111809523D01*
X78208190Y-111857142D01*
X77970095Y-111857142D01*
X77874857Y-111809523D01*
X77827238Y-111761904D01*
X77779619Y-111666666D01*
X77779619Y-111380952D01*
X77827238Y-111285714D01*
X77874857Y-111238095D01*
X78779619Y-112142857D02*
X77779619Y-112476190D01*
X78779619Y-112809523D01*
X71428571Y-120071428D02*
X71785714Y-120190476D01*
X71904761Y-120309523D01*
X72023809Y-120547619D01*
X72023809Y-120904761D01*
X71904761Y-121142857D01*
X71785714Y-121261904D01*
X71547619Y-121380952D01*
X70595238Y-121380952D01*
X70595238Y-118880952D01*
X71428571Y-118880952D01*
X71666666Y-119000000D01*
X71785714Y-119119047D01*
X71904761Y-119357142D01*
X71904761Y-119595238D01*
X71785714Y-119833333D01*
X71666666Y-119952380D01*
X71428571Y-120071428D01*
X70595238Y-120071428D01*
X70654761Y-110148666D02*
X71845238Y-110148666D01*
X70416666Y-110862952D02*
X71250000Y-108362952D01*
X72083333Y-110862952D01*
X81272000Y-111506095D02*
X81319619Y-111410857D01*
X81319619Y-111268000D01*
X81272000Y-111125142D01*
X81176761Y-111029904D01*
X81081523Y-110982285D01*
X80891047Y-110934666D01*
X80748190Y-110934666D01*
X80557714Y-110982285D01*
X80462476Y-111029904D01*
X80367238Y-111125142D01*
X80319619Y-111268000D01*
X80319619Y-111363238D01*
X80367238Y-111506095D01*
X80414857Y-111553714D01*
X80748190Y-111553714D01*
X80748190Y-111363238D01*
X80319619Y-111982285D02*
X81319619Y-111982285D01*
X80319619Y-112553714D01*
X81319619Y-112553714D01*
X80319619Y-113029904D02*
X81319619Y-113029904D01*
X81319619Y-113268000D01*
X81272000Y-113410857D01*
X81176761Y-113506095D01*
X81081523Y-113553714D01*
X80891047Y-113601333D01*
X80748190Y-113601333D01*
X80557714Y-113553714D01*
X80462476Y-113506095D01*
X80367238Y-113410857D01*
X80319619Y-113268000D01*
X80319619Y-113029904D01*
X82907238Y-111059523D02*
X82859619Y-111202380D01*
X82859619Y-111440476D01*
X82907238Y-111535714D01*
X82954857Y-111583333D01*
X83050095Y-111630952D01*
X83145333Y-111630952D01*
X83240571Y-111583333D01*
X83288190Y-111535714D01*
X83335809Y-111440476D01*
X83383428Y-111250000D01*
X83431047Y-111154761D01*
X83478666Y-111107142D01*
X83573904Y-111059523D01*
X83669142Y-111059523D01*
X83764380Y-111107142D01*
X83812000Y-111154761D01*
X83859619Y-111250000D01*
X83859619Y-111488095D01*
X83812000Y-111630952D01*
X82954857Y-112630952D02*
X82907238Y-112583333D01*
X82859619Y-112440476D01*
X82859619Y-112345238D01*
X82907238Y-112202380D01*
X83002476Y-112107142D01*
X83097714Y-112059523D01*
X83288190Y-112011904D01*
X83431047Y-112011904D01*
X83621523Y-112059523D01*
X83716761Y-112107142D01*
X83812000Y-112202380D01*
X83859619Y-112345238D01*
X83859619Y-112440476D01*
X83812000Y-112583333D01*
X83764380Y-112630952D01*
X82859619Y-113535714D02*
X82859619Y-113059523D01*
X83859619Y-113059523D01*
X129643238Y-111053714D02*
X129595619Y-111196571D01*
X129595619Y-111434666D01*
X129643238Y-111529904D01*
X129690857Y-111577523D01*
X129786095Y-111625142D01*
X129881333Y-111625142D01*
X129976571Y-111577523D01*
X130024190Y-111529904D01*
X130071809Y-111434666D01*
X130119428Y-111244190D01*
X130167047Y-111148952D01*
X130214666Y-111101333D01*
X130309904Y-111053714D01*
X130405142Y-111053714D01*
X130500380Y-111101333D01*
X130548000Y-111148952D01*
X130595619Y-111244190D01*
X130595619Y-111482285D01*
X130548000Y-111625142D01*
X129595619Y-112053714D02*
X130595619Y-112053714D01*
X130595619Y-112291809D01*
X130548000Y-112434666D01*
X130452761Y-112529904D01*
X130357523Y-112577523D01*
X130167047Y-112625142D01*
X130024190Y-112625142D01*
X129833714Y-112577523D01*
X129738476Y-112529904D01*
X129643238Y-112434666D01*
X129595619Y-112291809D01*
X129595619Y-112053714D01*
X129881333Y-113006095D02*
X129881333Y-113482285D01*
X129595619Y-112910857D02*
X130595619Y-113244190D01*
X129595619Y-113577523D01*
X143295619Y-111506095D02*
X143295619Y-112125142D01*
X142914666Y-111791809D01*
X142914666Y-111934666D01*
X142867047Y-112029904D01*
X142819428Y-112077523D01*
X142724190Y-112125142D01*
X142486095Y-112125142D01*
X142390857Y-112077523D01*
X142343238Y-112029904D01*
X142295619Y-111934666D01*
X142295619Y-111648952D01*
X142343238Y-111553714D01*
X142390857Y-111506095D01*
X143295619Y-112410857D02*
X142295619Y-112744190D01*
X143295619Y-113077523D01*
X138168000Y-111506095D02*
X138215619Y-111410857D01*
X138215619Y-111268000D01*
X138168000Y-111125142D01*
X138072761Y-111029904D01*
X137977523Y-110982285D01*
X137787047Y-110934666D01*
X137644190Y-110934666D01*
X137453714Y-110982285D01*
X137358476Y-111029904D01*
X137263238Y-111125142D01*
X137215619Y-111268000D01*
X137215619Y-111363238D01*
X137263238Y-111506095D01*
X137310857Y-111553714D01*
X137644190Y-111553714D01*
X137644190Y-111363238D01*
X137215619Y-111982285D02*
X138215619Y-111982285D01*
X137215619Y-112553714D01*
X138215619Y-112553714D01*
X137215619Y-113029904D02*
X138215619Y-113029904D01*
X138215619Y-113268000D01*
X138168000Y-113410857D01*
X138072761Y-113506095D01*
X137977523Y-113553714D01*
X137787047Y-113601333D01*
X137644190Y-113601333D01*
X137453714Y-113553714D01*
X137358476Y-113506095D01*
X137263238Y-113410857D01*
X137215619Y-113268000D01*
X137215619Y-113029904D01*
X134723238Y-111077523D02*
X134675619Y-111220380D01*
X134675619Y-111458476D01*
X134723238Y-111553714D01*
X134770857Y-111601333D01*
X134866095Y-111648952D01*
X134961333Y-111648952D01*
X135056571Y-111601333D01*
X135104190Y-111553714D01*
X135151809Y-111458476D01*
X135199428Y-111268000D01*
X135247047Y-111172761D01*
X135294666Y-111125142D01*
X135389904Y-111077523D01*
X135485142Y-111077523D01*
X135580380Y-111125142D01*
X135628000Y-111172761D01*
X135675619Y-111268000D01*
X135675619Y-111506095D01*
X135628000Y-111648952D01*
X134770857Y-112648952D02*
X134723238Y-112601333D01*
X134675619Y-112458476D01*
X134675619Y-112363238D01*
X134723238Y-112220380D01*
X134818476Y-112125142D01*
X134913714Y-112077523D01*
X135104190Y-112029904D01*
X135247047Y-112029904D01*
X135437523Y-112077523D01*
X135532761Y-112125142D01*
X135628000Y-112220380D01*
X135675619Y-112363238D01*
X135675619Y-112458476D01*
X135628000Y-112601333D01*
X135580380Y-112648952D01*
X134675619Y-113553714D02*
X134675619Y-113077523D01*
X135675619Y-113077523D01*
X93380952Y-66714285D02*
X93285714Y-66809523D01*
X93000000Y-66904761D01*
X92809523Y-66904761D01*
X92523809Y-66809523D01*
X92333333Y-66619047D01*
X92238095Y-66428571D01*
X92142857Y-66047619D01*
X92142857Y-65761904D01*
X92238095Y-65380952D01*
X92333333Y-65190476D01*
X92523809Y-65000000D01*
X92809523Y-64904761D01*
X93000000Y-64904761D01*
X93285714Y-65000000D01*
X93380952Y-65095238D01*
X94619047Y-64904761D02*
X95000000Y-64904761D01*
X95190476Y-65000000D01*
X95380952Y-65190476D01*
X95476190Y-65571428D01*
X95476190Y-66238095D01*
X95380952Y-66619047D01*
X95190476Y-66809523D01*
X95000000Y-66904761D01*
X94619047Y-66904761D01*
X94428571Y-66809523D01*
X94238095Y-66619047D01*
X94142857Y-66238095D01*
X94142857Y-65571428D01*
X94238095Y-65190476D01*
X94428571Y-65000000D01*
X94619047Y-64904761D01*
X96238095Y-65095238D02*
X96333333Y-65000000D01*
X96523809Y-64904761D01*
X97000000Y-64904761D01*
X97190476Y-65000000D01*
X97285714Y-65095238D01*
X97380952Y-65285714D01*
X97380952Y-65476190D01*
X97285714Y-65761904D01*
X96142857Y-66904761D01*
X97380952Y-66904761D01*
X98333333Y-66809523D02*
X98333333Y-66904761D01*
X98238095Y-67095238D01*
X98142857Y-67190476D01*
X100428571Y-64904761D02*
X101571428Y-64904761D01*
X101000000Y-66904761D02*
X101000000Y-64904761D01*
X103000000Y-66809523D02*
X102809523Y-66904761D01*
X102428571Y-66904761D01*
X102238095Y-66809523D01*
X102142857Y-66619047D01*
X102142857Y-65857142D01*
X102238095Y-65666666D01*
X102428571Y-65571428D01*
X102809523Y-65571428D01*
X103000000Y-65666666D01*
X103095238Y-65857142D01*
X103095238Y-66047619D01*
X102142857Y-66238095D01*
X103952380Y-66904761D02*
X103952380Y-65571428D01*
X103952380Y-65761904D02*
X104047619Y-65666666D01*
X104238095Y-65571428D01*
X104523809Y-65571428D01*
X104714285Y-65666666D01*
X104809523Y-65857142D01*
X104809523Y-66904761D01*
X104809523Y-65857142D02*
X104904761Y-65666666D01*
X105095238Y-65571428D01*
X105380952Y-65571428D01*
X105571428Y-65666666D01*
X105666666Y-65857142D01*
X105666666Y-66904761D01*
X106619047Y-65571428D02*
X106619047Y-67571428D01*
X106619047Y-65666666D02*
X106809523Y-65571428D01*
X107190476Y-65571428D01*
X107380952Y-65666666D01*
X107476190Y-65761904D01*
X107571428Y-65952380D01*
X107571428Y-66523809D01*
X107476190Y-66714285D01*
X107380952Y-66809523D01*
X107190476Y-66904761D01*
X106809523Y-66904761D01*
X106619047Y-66809523D01*
X108523809Y-66809523D02*
X108523809Y-66904761D01*
X108428571Y-67095238D01*
X108333333Y-67190476D01*
X110904761Y-66904761D02*
X110904761Y-64904761D01*
X110904761Y-65857142D02*
X112047619Y-65857142D01*
X112047619Y-66904761D02*
X112047619Y-64904761D01*
X113857142Y-65571428D02*
X113857142Y-66904761D01*
X113000000Y-65571428D02*
X113000000Y-66619047D01*
X113095238Y-66809523D01*
X113285714Y-66904761D01*
X113571428Y-66904761D01*
X113761904Y-66809523D01*
X113857142Y-66714285D01*
X114809523Y-66904761D02*
X114809523Y-65571428D01*
X114809523Y-65761904D02*
X114904761Y-65666666D01*
X115095238Y-65571428D01*
X115380952Y-65571428D01*
X115571428Y-65666666D01*
X115666666Y-65857142D01*
X115666666Y-66904761D01*
X115666666Y-65857142D02*
X115761904Y-65666666D01*
X115952380Y-65571428D01*
X116238095Y-65571428D01*
X116428571Y-65666666D01*
X116523809Y-65857142D01*
X116523809Y-66904761D01*
X117476190Y-66904761D02*
X117476190Y-65571428D01*
X117476190Y-64904761D02*
X117380952Y-65000000D01*
X117476190Y-65095238D01*
X117571428Y-65000000D01*
X117476190Y-64904761D01*
X117476190Y-65095238D01*
X119285714Y-66904761D02*
X119285714Y-64904761D01*
X119285714Y-66809523D02*
X119095238Y-66904761D01*
X118714285Y-66904761D01*
X118523809Y-66809523D01*
X118428571Y-66714285D01*
X118333333Y-66523809D01*
X118333333Y-65952380D01*
X118428571Y-65761904D01*
X118523809Y-65666666D01*
X118714285Y-65571428D01*
X119095238Y-65571428D01*
X119285714Y-65666666D01*
X120238095Y-66904761D02*
X120238095Y-65571428D01*
X120238095Y-64904761D02*
X120142857Y-65000000D01*
X120238095Y-65095238D01*
X120333333Y-65000000D01*
X120238095Y-64904761D01*
X120238095Y-65095238D01*
X120904761Y-65571428D02*
X121666666Y-65571428D01*
X121190476Y-64904761D02*
X121190476Y-66619047D01*
X121285714Y-66809523D01*
X121476190Y-66904761D01*
X121666666Y-66904761D01*
X122142857Y-65571428D02*
X122619047Y-66904761D01*
X123095238Y-65571428D02*
X122619047Y-66904761D01*
X122428571Y-67380952D01*
X122333333Y-67476190D01*
X122142857Y-67571428D01*
X123952380Y-66809523D02*
X123952380Y-66904761D01*
X123857142Y-67095238D01*
X123761904Y-67190476D01*
X126333333Y-66904761D02*
X126333333Y-64904761D01*
X127095238Y-64904761D01*
X127285714Y-65000000D01*
X127380952Y-65095238D01*
X127476190Y-65285714D01*
X127476190Y-65571428D01*
X127380952Y-65761904D01*
X127285714Y-65857142D01*
X127095238Y-65952380D01*
X126333333Y-65952380D01*
X128333333Y-66904761D02*
X128333333Y-65571428D01*
X128333333Y-65952380D02*
X128428571Y-65761904D01*
X128523809Y-65666666D01*
X128714285Y-65571428D01*
X128904761Y-65571428D01*
X130333333Y-66809523D02*
X130142857Y-66904761D01*
X129761904Y-66904761D01*
X129571428Y-66809523D01*
X129476190Y-66619047D01*
X129476190Y-65857142D01*
X129571428Y-65666666D01*
X129761904Y-65571428D01*
X130142857Y-65571428D01*
X130333333Y-65666666D01*
X130428571Y-65857142D01*
X130428571Y-66047619D01*
X129476190Y-66238095D01*
X131190476Y-66809523D02*
X131380952Y-66904761D01*
X131761904Y-66904761D01*
X131952380Y-66809523D01*
X132047619Y-66619047D01*
X132047619Y-66523809D01*
X131952380Y-66333333D01*
X131761904Y-66238095D01*
X131476190Y-66238095D01*
X131285714Y-66142857D01*
X131190476Y-65952380D01*
X131190476Y-65857142D01*
X131285714Y-65666666D01*
X131476190Y-65571428D01*
X131761904Y-65571428D01*
X131952380Y-65666666D01*
X132809523Y-66809523D02*
X133000000Y-66904761D01*
X133380952Y-66904761D01*
X133571428Y-66809523D01*
X133666666Y-66619047D01*
X133666666Y-66523809D01*
X133571428Y-66333333D01*
X133380952Y-66238095D01*
X133095238Y-66238095D01*
X132904761Y-66142857D01*
X132809523Y-65952380D01*
X132809523Y-65857142D01*
X132904761Y-65666666D01*
X133095238Y-65571428D01*
X133380952Y-65571428D01*
X133571428Y-65666666D01*
X135380952Y-65571428D02*
X135380952Y-66904761D01*
X134523809Y-65571428D02*
X134523809Y-66619047D01*
X134619047Y-66809523D01*
X134809523Y-66904761D01*
X135095238Y-66904761D01*
X135285714Y-66809523D01*
X135380952Y-66714285D01*
X136333333Y-66904761D02*
X136333333Y-65571428D01*
X136333333Y-65952380D02*
X136428571Y-65761904D01*
X136523809Y-65666666D01*
X136714285Y-65571428D01*
X136904761Y-65571428D01*
X138333333Y-66809523D02*
X138142857Y-66904761D01*
X137761904Y-66904761D01*
X137571428Y-66809523D01*
X137476190Y-66619047D01*
X137476190Y-65857142D01*
X137571428Y-65666666D01*
X137761904Y-65571428D01*
X138142857Y-65571428D01*
X138333333Y-65666666D01*
X138428571Y-65857142D01*
X138428571Y-66047619D01*
X137476190Y-66238095D01*
X139380952Y-66809523D02*
X139380952Y-66904761D01*
X139285714Y-67095238D01*
X139190476Y-67190476D01*
X141761904Y-66904761D02*
X141761904Y-64904761D01*
X142428571Y-66333333D01*
X143095238Y-64904761D01*
X143095238Y-66904761D01*
X144047619Y-66904761D02*
X144047619Y-65571428D01*
X144047619Y-64904761D02*
X143952380Y-65000000D01*
X144047619Y-65095238D01*
X144142857Y-65000000D01*
X144047619Y-64904761D01*
X144047619Y-65095238D01*
X145857142Y-66809523D02*
X145666666Y-66904761D01*
X145285714Y-66904761D01*
X145095238Y-66809523D01*
X145000000Y-66714285D01*
X144904761Y-66523809D01*
X144904761Y-65952380D01*
X145000000Y-65761904D01*
X145095238Y-65666666D01*
X145285714Y-65571428D01*
X145666666Y-65571428D01*
X145857142Y-65666666D01*
X124738095Y-119357142D02*
X125023809Y-119452380D01*
X125119047Y-119547619D01*
X125214285Y-119738095D01*
X125214285Y-120023809D01*
X125119047Y-120214285D01*
X125023809Y-120309523D01*
X124833333Y-120404761D01*
X124071428Y-120404761D01*
X124071428Y-118404761D01*
X124738095Y-118404761D01*
X124928571Y-118500000D01*
X125023809Y-118595238D01*
X125119047Y-118785714D01*
X125119047Y-118976190D01*
X125023809Y-119166666D01*
X124928571Y-119261904D01*
X124738095Y-119357142D01*
X124071428Y-119357142D01*
X126071428Y-120404761D02*
X126071428Y-118404761D01*
X126738095Y-119833333D01*
X127404761Y-118404761D01*
X127404761Y-120404761D01*
X128357142Y-120404761D02*
X128357142Y-118404761D01*
X129119047Y-118404761D01*
X129309523Y-118500000D01*
X129404761Y-118595238D01*
X129500000Y-118785714D01*
X129500000Y-119071428D01*
X129404761Y-119261904D01*
X129309523Y-119357142D01*
X129119047Y-119452380D01*
X128357142Y-119452380D01*
X130166666Y-118404761D02*
X131404761Y-118404761D01*
X130738095Y-119166666D01*
X131023809Y-119166666D01*
X131214285Y-119261904D01*
X131309523Y-119357142D01*
X131404761Y-119547619D01*
X131404761Y-120023809D01*
X131309523Y-120214285D01*
X131214285Y-120309523D01*
X131023809Y-120404761D01*
X130452380Y-120404761D01*
X130261904Y-120309523D01*
X130166666Y-120214285D01*
X132547619Y-119261904D02*
X132357142Y-119166666D01*
X132261904Y-119071428D01*
X132166666Y-118880952D01*
X132166666Y-118785714D01*
X132261904Y-118595238D01*
X132357142Y-118500000D01*
X132547619Y-118404761D01*
X132928571Y-118404761D01*
X133119047Y-118500000D01*
X133214285Y-118595238D01*
X133309523Y-118785714D01*
X133309523Y-118880952D01*
X133214285Y-119071428D01*
X133119047Y-119166666D01*
X132928571Y-119261904D01*
X132547619Y-119261904D01*
X132357142Y-119357142D01*
X132261904Y-119452380D01*
X132166666Y-119642857D01*
X132166666Y-120023809D01*
X132261904Y-120214285D01*
X132357142Y-120309523D01*
X132547619Y-120404761D01*
X132928571Y-120404761D01*
X133119047Y-120309523D01*
X133214285Y-120214285D01*
X133309523Y-120023809D01*
X133309523Y-119642857D01*
X133214285Y-119452380D01*
X133119047Y-119357142D01*
X132928571Y-119261904D01*
X134452380Y-119261904D02*
X134261904Y-119166666D01*
X134166666Y-119071428D01*
X134071428Y-118880952D01*
X134071428Y-118785714D01*
X134166666Y-118595238D01*
X134261904Y-118500000D01*
X134452380Y-118404761D01*
X134833333Y-118404761D01*
X135023809Y-118500000D01*
X135119047Y-118595238D01*
X135214285Y-118785714D01*
X135214285Y-118880952D01*
X135119047Y-119071428D01*
X135023809Y-119166666D01*
X134833333Y-119261904D01*
X134452380Y-119261904D01*
X134261904Y-119357142D01*
X134166666Y-119452380D01*
X134071428Y-119642857D01*
X134071428Y-120023809D01*
X134166666Y-120214285D01*
X134261904Y-120309523D01*
X134452380Y-120404761D01*
X134833333Y-120404761D01*
X135023809Y-120309523D01*
X135119047Y-120214285D01*
X135214285Y-120023809D01*
X135214285Y-119642857D01*
X135119047Y-119452380D01*
X135023809Y-119357142D01*
X134833333Y-119261904D01*
X137500000Y-118309523D02*
X135785714Y-120880952D01*
X137976190Y-118404761D02*
X139214285Y-118404761D01*
X138547619Y-119166666D01*
X138833333Y-119166666D01*
X139023809Y-119261904D01*
X139119047Y-119357142D01*
X139214285Y-119547619D01*
X139214285Y-120023809D01*
X139119047Y-120214285D01*
X139023809Y-120309523D01*
X138833333Y-120404761D01*
X138261904Y-120404761D01*
X138071428Y-120309523D01*
X137976190Y-120214285D01*
X140166666Y-120404761D02*
X140547619Y-120404761D01*
X140738095Y-120309523D01*
X140833333Y-120214285D01*
X141023809Y-119928571D01*
X141119047Y-119547619D01*
X141119047Y-118785714D01*
X141023809Y-118595238D01*
X140928571Y-118500000D01*
X140738095Y-118404761D01*
X140357142Y-118404761D01*
X140166666Y-118500000D01*
X140071428Y-118595238D01*
X139976190Y-118785714D01*
X139976190Y-119261904D01*
X140071428Y-119452380D01*
X140166666Y-119547619D01*
X140357142Y-119642857D01*
X140738095Y-119642857D01*
X140928571Y-119547619D01*
X141023809Y-119452380D01*
X141119047Y-119261904D01*
X142357142Y-118404761D02*
X142547619Y-118404761D01*
X142738095Y-118500000D01*
X142833333Y-118595238D01*
X142928571Y-118785714D01*
X143023809Y-119166666D01*
X143023809Y-119642857D01*
X142928571Y-120023809D01*
X142833333Y-120214285D01*
X142738095Y-120309523D01*
X142547619Y-120404761D01*
X142357142Y-120404761D01*
X142166666Y-120309523D01*
X142071428Y-120214285D01*
X141976190Y-120023809D01*
X141880952Y-119642857D01*
X141880952Y-119166666D01*
X141976190Y-118785714D01*
X142071428Y-118595238D01*
X142166666Y-118500000D01*
X142357142Y-118404761D01*
D10*
X145750000Y-105156000D02*
X145750000Y-123444000D01*
X120904000Y-123444000D02*
X145750000Y-123444000D01*
X120904000Y-105156000D02*
X145750000Y-105156000D01*
X120904000Y-105156000D02*
X120904000Y-123444000D01*
X113792000Y-130556000D02*
X74676000Y-130556000D01*
X74676000Y-104902000D02*
X74676000Y-130556000D01*
D11*
X79891809Y-127265523D02*
X80177523Y-127360761D01*
X80653714Y-127360761D01*
X80844190Y-127265523D01*
X80939428Y-127170285D01*
X81034666Y-126979809D01*
X81034666Y-126789333D01*
X80939428Y-126598857D01*
X80844190Y-126503619D01*
X80653714Y-126408380D01*
X80272761Y-126313142D01*
X80082285Y-126217904D01*
X79987047Y-126122666D01*
X79891809Y-125932190D01*
X79891809Y-125741714D01*
X79987047Y-125551238D01*
X80082285Y-125456000D01*
X80272761Y-125360761D01*
X80748952Y-125360761D01*
X81034666Y-125456000D01*
X83034666Y-127170285D02*
X82939428Y-127265523D01*
X82653714Y-127360761D01*
X82463238Y-127360761D01*
X82177523Y-127265523D01*
X81987047Y-127075047D01*
X81891809Y-126884571D01*
X81796571Y-126503619D01*
X81796571Y-126217904D01*
X81891809Y-125836952D01*
X81987047Y-125646476D01*
X82177523Y-125456000D01*
X82463238Y-125360761D01*
X82653714Y-125360761D01*
X82939428Y-125456000D01*
X83034666Y-125551238D01*
X83891809Y-127360761D02*
X83891809Y-125360761D01*
X84368000Y-125360761D01*
X84653714Y-125456000D01*
X84844190Y-125646476D01*
X84939428Y-125836952D01*
X85034666Y-126217904D01*
X85034666Y-126503619D01*
X84939428Y-126884571D01*
X84844190Y-127075047D01*
X84653714Y-127265523D01*
X84368000Y-127360761D01*
X83891809Y-127360761D01*
X85701333Y-125360761D02*
X86939428Y-125360761D01*
X86272761Y-126122666D01*
X86558476Y-126122666D01*
X86748952Y-126217904D01*
X86844190Y-126313142D01*
X86939428Y-126503619D01*
X86939428Y-126979809D01*
X86844190Y-127170285D01*
X86748952Y-127265523D01*
X86558476Y-127360761D01*
X85987047Y-127360761D01*
X85796571Y-127265523D01*
X85701333Y-127170285D01*
X88177523Y-125360761D02*
X88368000Y-125360761D01*
X88558476Y-125456000D01*
X88653714Y-125551238D01*
X88748952Y-125741714D01*
X88844190Y-126122666D01*
X88844190Y-126598857D01*
X88748952Y-126979809D01*
X88653714Y-127170285D01*
X88558476Y-127265523D01*
X88368000Y-127360761D01*
X88177523Y-127360761D01*
X87987047Y-127265523D01*
X87891809Y-127170285D01*
X87796571Y-126979809D01*
X87701333Y-126598857D01*
X87701333Y-126122666D01*
X87796571Y-125741714D01*
X87891809Y-125551238D01*
X87987047Y-125456000D01*
X88177523Y-125360761D01*
X113792000Y-104902000D02*
X113792000Y-130556000D01*
X113792000Y-104902000D02*
X74676000Y-104902000D01*
X94499999Y-68678571D02*
X94499999Y-69892857D01*
X94571428Y-70035714D01*
X94642857Y-70107142D01*
X94785714Y-70178571D01*
X95071428Y-70178571D01*
X95214285Y-70107142D01*
X95285714Y-70035714D01*
X95357142Y-69892857D01*
X95357142Y-68678571D01*
X95999999Y-70107142D02*
X96214285Y-70178571D01*
X96571428Y-70178571D01*
X96714285Y-70107142D01*
X96785714Y-70035714D01*
X96857142Y-69892857D01*
X96857142Y-69750000D01*
X96785714Y-69607142D01*
X96714285Y-69535714D01*
X96571428Y-69464285D01*
X96285714Y-69392857D01*
X96142857Y-69321428D01*
X96071428Y-69250000D01*
X95999999Y-69107142D01*
X95999999Y-68964285D01*
X96071428Y-68821428D01*
X96142857Y-68750000D01*
X96285714Y-68678571D01*
X96642857Y-68678571D01*
X96857142Y-68750000D01*
X97499999Y-69392857D02*
X97999999Y-69392857D01*
X98214285Y-70178571D02*
X97499999Y-70178571D01*
X97499999Y-68678571D01*
X98214285Y-68678571D01*
X99714285Y-70178571D02*
X99214285Y-69464285D01*
X98857142Y-70178571D02*
X98857142Y-68678571D01*
X99428571Y-68678571D01*
X99571428Y-68750000D01*
X99642857Y-68821428D01*
X99714285Y-68964285D01*
X99714285Y-69178571D01*
X99642857Y-69321428D01*
X99571428Y-69392857D01*
X99428571Y-69464285D01*
X98857142Y-69464285D01*
X102285714Y-68750000D02*
X102142857Y-68678571D01*
X101928571Y-68678571D01*
X101714285Y-68750000D01*
X101571428Y-68892857D01*
X101499999Y-69035714D01*
X101428571Y-69321428D01*
X101428571Y-69535714D01*
X101499999Y-69821428D01*
X101571428Y-69964285D01*
X101714285Y-70107142D01*
X101928571Y-70178571D01*
X102071428Y-70178571D01*
X102285714Y-70107142D01*
X102357142Y-70035714D01*
X102357142Y-69535714D01*
X102071428Y-69535714D01*
X102999999Y-68678571D02*
X102999999Y-69892857D01*
X103071428Y-70035714D01*
X103142857Y-70107142D01*
X103285714Y-70178571D01*
X103571428Y-70178571D01*
X103714285Y-70107142D01*
X103785714Y-70035714D01*
X103857142Y-69892857D01*
X103857142Y-68678571D01*
X104571428Y-70178571D02*
X104571428Y-68678571D01*
X105285714Y-70178571D02*
X105285714Y-68678571D01*
X105642857Y-68678571D01*
X105857142Y-68750000D01*
X105999999Y-68892857D01*
X106071428Y-69035714D01*
X106142857Y-69321428D01*
X106142857Y-69535714D01*
X106071428Y-69821428D01*
X105999999Y-69964285D01*
X105857142Y-70107142D01*
X105642857Y-70178571D01*
X105285714Y-70178571D01*
X106785714Y-69392857D02*
X107285714Y-69392857D01*
X107499999Y-70178571D02*
X106785714Y-70178571D01*
X106785714Y-68678571D01*
X107499999Y-68678571D01*
X108142857Y-70035714D02*
X108214285Y-70107142D01*
X108142857Y-70178571D01*
X108071428Y-70107142D01*
X108142857Y-70035714D01*
X108142857Y-70178571D01*
X108142857Y-69250000D02*
X108214285Y-69321428D01*
X108142857Y-69392857D01*
X108071428Y-69321428D01*
X108142857Y-69250000D01*
X108142857Y-69392857D01*
X109999999Y-70178571D02*
X109999999Y-68678571D01*
X110642857Y-70178571D02*
X110642857Y-69392857D01*
X110571428Y-69250000D01*
X110428571Y-69178571D01*
X110214285Y-69178571D01*
X110071428Y-69250000D01*
X109999999Y-69321428D01*
X111142857Y-69178571D02*
X111714285Y-69178571D01*
X111357142Y-68678571D02*
X111357142Y-69964285D01*
X111428571Y-70107142D01*
X111571428Y-70178571D01*
X111714285Y-70178571D01*
X112000000Y-69178571D02*
X112571428Y-69178571D01*
X112214285Y-68678571D02*
X112214285Y-69964285D01*
X112285714Y-70107142D01*
X112428571Y-70178571D01*
X112571428Y-70178571D01*
X113071428Y-69178571D02*
X113071428Y-70678571D01*
X113071428Y-69250000D02*
X113214285Y-69178571D01*
X113500000Y-69178571D01*
X113642857Y-69250000D01*
X113714285Y-69321428D01*
X113785714Y-69464285D01*
X113785714Y-69892857D01*
X113714285Y-70035714D01*
X113642857Y-70107142D01*
X113500000Y-70178571D01*
X113214285Y-70178571D01*
X113071428Y-70107142D01*
X114428571Y-70035714D02*
X114500000Y-70107142D01*
X114428571Y-70178571D01*
X114357142Y-70107142D01*
X114428571Y-70035714D01*
X114428571Y-70178571D01*
X114428571Y-69250000D02*
X114500000Y-69321428D01*
X114428571Y-69392857D01*
X114357142Y-69321428D01*
X114428571Y-69250000D01*
X114428571Y-69392857D01*
X116214285Y-68607142D02*
X114928571Y-70535714D01*
X117785714Y-68607142D02*
X116500000Y-70535714D01*
X118285714Y-69178571D02*
X118285714Y-70678571D01*
X118285714Y-69250000D02*
X118428571Y-69178571D01*
X118714285Y-69178571D01*
X118857142Y-69250000D01*
X118928571Y-69321428D01*
X119000000Y-69464285D01*
X119000000Y-69892857D01*
X118928571Y-70035714D01*
X118857142Y-70107142D01*
X118714285Y-70178571D01*
X118428571Y-70178571D01*
X118285714Y-70107142D01*
X119500000Y-69178571D02*
X119857142Y-70178571D01*
X120214285Y-69178571D01*
X121000000Y-70178571D02*
X120857142Y-70107142D01*
X120785714Y-70035714D01*
X120714285Y-69892857D01*
X120714285Y-69464285D01*
X120785714Y-69321428D01*
X120857142Y-69250000D01*
X121000000Y-69178571D01*
X121214285Y-69178571D01*
X121357142Y-69250000D01*
X121428571Y-69321428D01*
X121500000Y-69464285D01*
X121500000Y-69892857D01*
X121428571Y-70035714D01*
X121357142Y-70107142D01*
X121214285Y-70178571D01*
X121000000Y-70178571D01*
X122071428Y-70107142D02*
X122214285Y-70178571D01*
X122500000Y-70178571D01*
X122642857Y-70107142D01*
X122714285Y-69964285D01*
X122714285Y-69892857D01*
X122642857Y-69750000D01*
X122500000Y-69678571D01*
X122285714Y-69678571D01*
X122142857Y-69607142D01*
X122071428Y-69464285D01*
X122071428Y-69392857D01*
X122142857Y-69250000D01*
X122285714Y-69178571D01*
X122500000Y-69178571D01*
X122642857Y-69250000D01*
X123357142Y-70035714D02*
X123428571Y-70107142D01*
X123357142Y-70178571D01*
X123285714Y-70107142D01*
X123357142Y-70035714D01*
X123357142Y-70178571D01*
X124285714Y-70178571D02*
X124142857Y-70107142D01*
X124071428Y-70035714D01*
X124000000Y-69892857D01*
X124000000Y-69464285D01*
X124071428Y-69321428D01*
X124142857Y-69250000D01*
X124285714Y-69178571D01*
X124500000Y-69178571D01*
X124642857Y-69250000D01*
X124714285Y-69321428D01*
X124785714Y-69464285D01*
X124785714Y-69892857D01*
X124714285Y-70035714D01*
X124642857Y-70107142D01*
X124500000Y-70178571D01*
X124285714Y-70178571D01*
X125428571Y-70178571D02*
X125428571Y-69178571D01*
X125428571Y-69464285D02*
X125500000Y-69321428D01*
X125571428Y-69250000D01*
X125714285Y-69178571D01*
X125857142Y-69178571D01*
X127000000Y-69178571D02*
X127000000Y-70392857D01*
X126928571Y-70535714D01*
X126857142Y-70607142D01*
X126714285Y-70678571D01*
X126500000Y-70678571D01*
X126357142Y-70607142D01*
X127000000Y-70107142D02*
X126857142Y-70178571D01*
X126571428Y-70178571D01*
X126428571Y-70107142D01*
X126357142Y-70035714D01*
X126285714Y-69892857D01*
X126285714Y-69464285D01*
X126357142Y-69321428D01*
X126428571Y-69250000D01*
X126571428Y-69178571D01*
X126857142Y-69178571D01*
X127000000Y-69250000D01*
X128785714Y-68607142D02*
X127500000Y-70535714D01*
X129928571Y-70107142D02*
X129785714Y-70178571D01*
X129500000Y-70178571D01*
X129357142Y-70107142D01*
X129285714Y-70035714D01*
X129214285Y-69892857D01*
X129214285Y-69464285D01*
X129285714Y-69321428D01*
X129357142Y-69250000D01*
X129500000Y-69178571D01*
X129785714Y-69178571D01*
X129928571Y-69250000D01*
X130785714Y-70178571D02*
X130642857Y-70107142D01*
X130571428Y-70035714D01*
X130500000Y-69892857D01*
X130500000Y-69464285D01*
X130571428Y-69321428D01*
X130642857Y-69250000D01*
X130785714Y-69178571D01*
X131000000Y-69178571D01*
X131142857Y-69250000D01*
X131214285Y-69321428D01*
X131285714Y-69464285D01*
X131285714Y-69892857D01*
X131214285Y-70035714D01*
X131142857Y-70107142D01*
X131000000Y-70178571D01*
X130785714Y-70178571D01*
X131857142Y-68821428D02*
X131928571Y-68750000D01*
X132071428Y-68678571D01*
X132428571Y-68678571D01*
X132571428Y-68750000D01*
X132642857Y-68821428D01*
X132714285Y-68964285D01*
X132714285Y-69107142D01*
X132642857Y-69321428D01*
X131785714Y-70178571D01*
X132714285Y-70178571D01*
X134428571Y-68607142D02*
X133142857Y-70535714D01*
X135500000Y-70107142D02*
X135357142Y-70178571D01*
X135071428Y-70178571D01*
X134928571Y-70107142D01*
X134857142Y-69964285D01*
X134857142Y-69392857D01*
X134928571Y-69250000D01*
X135071428Y-69178571D01*
X135357142Y-69178571D01*
X135500000Y-69250000D01*
X135571428Y-69392857D01*
X135571428Y-69535714D01*
X134857142Y-69678571D01*
D12*
%TO.C,G\u002A\u002A\u002A*%
G36*
X88651768Y-63653122D02*
G01*
X88793091Y-63841355D01*
X88832911Y-64088608D01*
X88756710Y-64409633D01*
X88586462Y-64532351D01*
X88409696Y-64409319D01*
X88375485Y-64336542D01*
X88339165Y-64005502D01*
X88441837Y-63734456D01*
X88633133Y-63647998D01*
X88651768Y-63653122D01*
G37*
X88651768Y-63653122D02*
X88793091Y-63841355D01*
X88832911Y-64088608D01*
X88756710Y-64409633D01*
X88586462Y-64532351D01*
X88409696Y-64409319D01*
X88375485Y-64336542D01*
X88339165Y-64005502D01*
X88441837Y-63734456D01*
X88633133Y-63647998D01*
X88651768Y-63653122D01*
G36*
X72674739Y-64373746D02*
G01*
X72676582Y-64410127D01*
X72552998Y-64564709D01*
X72506335Y-64570886D01*
X72410324Y-64472399D01*
X72435443Y-64410127D01*
X72579902Y-64256765D01*
X72605690Y-64249367D01*
X72674739Y-64373746D01*
G37*
X72674739Y-64373746D02*
X72676582Y-64410127D01*
X72552998Y-64564709D01*
X72506335Y-64570886D01*
X72410324Y-64472399D01*
X72435443Y-64410127D01*
X72579902Y-64256765D01*
X72605690Y-64249367D01*
X72674739Y-64373746D01*
G36*
X88045190Y-64152912D02*
G01*
X88052034Y-64474303D01*
X87975350Y-64608574D01*
X87800126Y-64675229D01*
X87691519Y-64506583D01*
X87684674Y-64185192D01*
X87761358Y-64050920D01*
X87936582Y-63984265D01*
X88045190Y-64152912D01*
G37*
X88045190Y-64152912D02*
X88052034Y-64474303D01*
X87975350Y-64608574D01*
X87800126Y-64675229D01*
X87691519Y-64506583D01*
X87684674Y-64185192D01*
X87761358Y-64050920D01*
X87936582Y-63984265D01*
X88045190Y-64152912D01*
G36*
X88265651Y-65168546D02*
G01*
X88270253Y-65204437D01*
X88153397Y-65422159D01*
X88109493Y-65455064D01*
X87971867Y-65418620D01*
X87948734Y-65303792D01*
X88032666Y-65083838D01*
X88109493Y-65053165D01*
X88265651Y-65168546D01*
G37*
X88265651Y-65168546D02*
X88270253Y-65204437D01*
X88153397Y-65422159D01*
X88109493Y-65455064D01*
X87971867Y-65418620D01*
X87948734Y-65303792D01*
X88032666Y-65083838D01*
X88109493Y-65053165D01*
X88265651Y-65168546D01*
G36*
X84173478Y-64530602D02*
G01*
X84231536Y-64956869D01*
X84251265Y-65464551D01*
X84228364Y-66006842D01*
X84167790Y-66377704D01*
X84090506Y-66500000D01*
X84008217Y-66351196D01*
X83951296Y-65951871D01*
X83929750Y-65372654D01*
X83929746Y-65365196D01*
X83950376Y-64746413D01*
X84009377Y-64395045D01*
X84090506Y-64329747D01*
X84173478Y-64530602D01*
G37*
X84173478Y-64530602D02*
X84231536Y-64956869D01*
X84251265Y-65464551D01*
X84228364Y-66006842D01*
X84167790Y-66377704D01*
X84090506Y-66500000D01*
X84008217Y-66351196D01*
X83951296Y-65951871D01*
X83929750Y-65372654D01*
X83929746Y-65365196D01*
X83950376Y-64746413D01*
X84009377Y-64395045D01*
X84090506Y-64329747D01*
X84173478Y-64530602D01*
G36*
X83530440Y-64530602D02*
G01*
X83588498Y-64956869D01*
X83608227Y-65464551D01*
X83585326Y-66006842D01*
X83524752Y-66377704D01*
X83447468Y-66500000D01*
X83365179Y-66351196D01*
X83308258Y-65951871D01*
X83286712Y-65372654D01*
X83286708Y-65365196D01*
X83307338Y-64746413D01*
X83366339Y-64395045D01*
X83447468Y-64329747D01*
X83530440Y-64530602D01*
G37*
X83530440Y-64530602D02*
X83588498Y-64956869D01*
X83608227Y-65464551D01*
X83585326Y-66006842D01*
X83524752Y-66377704D01*
X83447468Y-66500000D01*
X83365179Y-66351196D01*
X83308258Y-65951871D01*
X83286712Y-65372654D01*
X83286708Y-65365196D01*
X83307338Y-64746413D01*
X83366339Y-64395045D01*
X83447468Y-64329747D01*
X83530440Y-64530602D01*
G36*
X81461274Y-64942498D02*
G01*
X81485985Y-65146695D01*
X81421588Y-65520600D01*
X81301764Y-65947660D01*
X81160192Y-66311323D01*
X81030552Y-66495037D01*
X81011204Y-66500000D01*
X80854834Y-66367171D01*
X80711861Y-66091012D01*
X80512691Y-65505219D01*
X80425608Y-65106279D01*
X80457953Y-64937377D01*
X80517983Y-64950651D01*
X80672551Y-65171708D01*
X80795649Y-65538690D01*
X80918137Y-65876865D01*
X81055987Y-65901990D01*
X81192243Y-65620904D01*
X81257567Y-65352352D01*
X81352877Y-65035012D01*
X81450751Y-64934969D01*
X81461274Y-64942498D01*
G37*
X81461274Y-64942498D02*
X81485985Y-65146695D01*
X81421588Y-65520600D01*
X81301764Y-65947660D01*
X81160192Y-66311323D01*
X81030552Y-66495037D01*
X81011204Y-66500000D01*
X80854834Y-66367171D01*
X80711861Y-66091012D01*
X80512691Y-65505219D01*
X80425608Y-65106279D01*
X80457953Y-64937377D01*
X80517983Y-64950651D01*
X80672551Y-65171708D01*
X80795649Y-65538690D01*
X80918137Y-65876865D01*
X81055987Y-65901990D01*
X81192243Y-65620904D01*
X81257567Y-65352352D01*
X81352877Y-65035012D01*
X81450751Y-64934969D01*
X81461274Y-64942498D01*
G36*
X79489458Y-64947435D02*
G01*
X79589240Y-65053165D01*
X79459032Y-65195787D01*
X79348101Y-65213924D01*
X79180429Y-65320107D01*
X79111338Y-65672094D01*
X79106962Y-65856962D01*
X79071307Y-66259634D01*
X78982238Y-66483603D01*
X78946202Y-66500000D01*
X78854498Y-66355418D01*
X78796291Y-65985743D01*
X78785443Y-65696203D01*
X78798473Y-65219157D01*
X78864972Y-64981170D01*
X79026050Y-64900020D01*
X79187341Y-64892405D01*
X79489458Y-64947435D01*
G37*
X79489458Y-64947435D02*
X79589240Y-65053165D01*
X79459032Y-65195787D01*
X79348101Y-65213924D01*
X79180429Y-65320107D01*
X79111338Y-65672094D01*
X79106962Y-65856962D01*
X79071307Y-66259634D01*
X78982238Y-66483603D01*
X78946202Y-66500000D01*
X78854498Y-66355418D01*
X78796291Y-65985743D01*
X78785443Y-65696203D01*
X78798473Y-65219157D01*
X78864972Y-64981170D01*
X79026050Y-64900020D01*
X79187341Y-64892405D01*
X79489458Y-64947435D01*
G36*
X76905300Y-65081730D02*
G01*
X77017088Y-65450018D01*
X76954616Y-65756079D01*
X76703250Y-65853991D01*
X76601793Y-65856962D01*
X76298635Y-65919862D01*
X76256354Y-66057912D01*
X76452645Y-66214100D01*
X76671650Y-66246097D01*
X76945395Y-66288230D01*
X77017088Y-66366666D01*
X76877352Y-66460545D01*
X76541011Y-66499998D01*
X76537873Y-66500000D01*
X76163233Y-66434363D01*
X75983306Y-66188642D01*
X75960978Y-66110817D01*
X75914799Y-65509256D01*
X75980720Y-65374684D01*
X76213291Y-65374684D01*
X76348340Y-65504036D01*
X76544297Y-65535443D01*
X76766582Y-65473558D01*
X76775949Y-65374684D01*
X76543350Y-65226765D01*
X76444942Y-65213924D01*
X76237169Y-65303808D01*
X76213291Y-65374684D01*
X75980720Y-65374684D01*
X76118725Y-65092962D01*
X76231630Y-65004621D01*
X76612064Y-64909239D01*
X76905300Y-65081730D01*
G37*
X76905300Y-65081730D02*
X77017088Y-65450018D01*
X76954616Y-65756079D01*
X76703250Y-65853991D01*
X76601793Y-65856962D01*
X76298635Y-65919862D01*
X76256354Y-66057912D01*
X76452645Y-66214100D01*
X76671650Y-66246097D01*
X76945395Y-66288230D01*
X77017088Y-66366666D01*
X76877352Y-66460545D01*
X76541011Y-66499998D01*
X76537873Y-66500000D01*
X76163233Y-66434363D01*
X75983306Y-66188642D01*
X75960978Y-66110817D01*
X75914799Y-65509256D01*
X75980720Y-65374684D01*
X76213291Y-65374684D01*
X76348340Y-65504036D01*
X76544297Y-65535443D01*
X76766582Y-65473558D01*
X76775949Y-65374684D01*
X76543350Y-65226765D01*
X76444942Y-65213924D01*
X76237169Y-65303808D01*
X76213291Y-65374684D01*
X75980720Y-65374684D01*
X76118725Y-65092962D01*
X76231630Y-65004621D01*
X76612064Y-64909239D01*
X76905300Y-65081730D01*
G36*
X75269133Y-64990812D02*
G01*
X75476277Y-65211965D01*
X75549116Y-65656789D01*
X75549143Y-65937342D01*
X75525755Y-66258348D01*
X75485419Y-66324426D01*
X75464966Y-66258861D01*
X75373201Y-65826403D01*
X75319792Y-65575633D01*
X75179462Y-65250824D01*
X75000384Y-65201236D01*
X74842861Y-65396210D01*
X74767198Y-65805085D01*
X74766455Y-65856962D01*
X74730801Y-66259634D01*
X74641732Y-66483603D01*
X74605696Y-66500000D01*
X74513001Y-66355629D01*
X74454911Y-65987398D01*
X74444936Y-65716298D01*
X74457417Y-65247619D01*
X74526342Y-65016502D01*
X74698935Y-64939124D01*
X74887025Y-64931568D01*
X75269133Y-64990812D01*
G37*
X75269133Y-64990812D02*
X75476277Y-65211965D01*
X75549116Y-65656789D01*
X75549143Y-65937342D01*
X75525755Y-66258348D01*
X75485419Y-66324426D01*
X75464966Y-66258861D01*
X75373201Y-65826403D01*
X75319792Y-65575633D01*
X75179462Y-65250824D01*
X75000384Y-65201236D01*
X74842861Y-65396210D01*
X74767198Y-65805085D01*
X74766455Y-65856962D01*
X74730801Y-66259634D01*
X74641732Y-66483603D01*
X74605696Y-66500000D01*
X74513001Y-66355629D01*
X74454911Y-65987398D01*
X74444936Y-65716298D01*
X74457417Y-65247619D01*
X74526342Y-65016502D01*
X74698935Y-64939124D01*
X74887025Y-64931568D01*
X75269133Y-64990812D01*
G36*
X72614944Y-65052494D02*
G01*
X72669178Y-65410765D01*
X72676582Y-65686715D01*
X72647984Y-66148337D01*
X72574780Y-66443027D01*
X72515822Y-66500000D01*
X72419419Y-66356432D01*
X72362037Y-65993685D01*
X72355063Y-65786070D01*
X72388358Y-65331727D01*
X72472203Y-65026617D01*
X72515822Y-64972785D01*
X72614944Y-65052494D01*
G37*
X72614944Y-65052494D02*
X72669178Y-65410765D01*
X72676582Y-65686715D01*
X72647984Y-66148337D01*
X72574780Y-66443027D01*
X72515822Y-66500000D01*
X72419419Y-66356432D01*
X72362037Y-65993685D01*
X72355063Y-65786070D01*
X72388358Y-65331727D01*
X72472203Y-65026617D01*
X72515822Y-64972785D01*
X72614944Y-65052494D01*
G36*
X85464752Y-65085377D02*
G01*
X85656378Y-65444128D01*
X85669092Y-65511672D01*
X85652398Y-65756408D01*
X85444974Y-65848062D01*
X85232049Y-65856962D01*
X84897217Y-65893838D01*
X84818488Y-66030488D01*
X84841693Y-66112499D01*
X85066798Y-66300566D01*
X85318926Y-66295551D01*
X85607003Y-66282571D01*
X85698101Y-66342784D01*
X85564307Y-66488635D01*
X85258884Y-66551480D01*
X84925768Y-66509895D01*
X84836757Y-66470991D01*
X84641401Y-66201594D01*
X84576415Y-65778236D01*
X84637646Y-65374684D01*
X84813924Y-65374684D01*
X84863146Y-65501216D01*
X85045575Y-65535443D01*
X85311913Y-65469854D01*
X85376582Y-65374684D01*
X85247061Y-65230495D01*
X85144930Y-65213924D01*
X84871229Y-65311899D01*
X84813924Y-65374684D01*
X84637646Y-65374684D01*
X84642717Y-65341265D01*
X84827399Y-65041981D01*
X85156780Y-64933669D01*
X85464752Y-65085377D01*
G37*
X85464752Y-65085377D02*
X85656378Y-65444128D01*
X85669092Y-65511672D01*
X85652398Y-65756408D01*
X85444974Y-65848062D01*
X85232049Y-65856962D01*
X84897217Y-65893838D01*
X84818488Y-66030488D01*
X84841693Y-66112499D01*
X85066798Y-66300566D01*
X85318926Y-66295551D01*
X85607003Y-66282571D01*
X85698101Y-66342784D01*
X85564307Y-66488635D01*
X85258884Y-66551480D01*
X84925768Y-66509895D01*
X84836757Y-66470991D01*
X84641401Y-66201594D01*
X84576415Y-65778236D01*
X84637646Y-65374684D01*
X84813924Y-65374684D01*
X84863146Y-65501216D01*
X85045575Y-65535443D01*
X85311913Y-65469854D01*
X85376582Y-65374684D01*
X85247061Y-65230495D01*
X85144930Y-65213924D01*
X84871229Y-65311899D01*
X84813924Y-65374684D01*
X84637646Y-65374684D01*
X84642717Y-65341265D01*
X84827399Y-65041981D01*
X85156780Y-64933669D01*
X85464752Y-65085377D01*
G36*
X82507308Y-64947962D02*
G01*
X82779922Y-65171134D01*
X82798774Y-65203356D01*
X82923510Y-65597543D01*
X82965190Y-65988412D01*
X82904038Y-66351608D01*
X82669857Y-66514934D01*
X82573683Y-66537360D01*
X82198790Y-66552707D01*
X81996960Y-66497730D01*
X81844956Y-66249110D01*
X81870867Y-66057943D01*
X82039475Y-66057943D01*
X82086257Y-66186967D01*
X82292320Y-66305531D01*
X82513034Y-66185368D01*
X82615268Y-65964210D01*
X82548220Y-65735286D01*
X82423806Y-65696203D01*
X82131639Y-65806571D01*
X82039475Y-66057943D01*
X81870867Y-66057943D01*
X81889515Y-65920365D01*
X82089118Y-65647452D01*
X82281962Y-65564452D01*
X82589008Y-65455332D01*
X82608294Y-65312669D01*
X82351617Y-65219709D01*
X82232284Y-65213924D01*
X81958770Y-65162893D01*
X81920253Y-65053165D01*
X82172112Y-64900324D01*
X82507308Y-64947962D01*
G37*
X82507308Y-64947962D02*
X82779922Y-65171134D01*
X82798774Y-65203356D01*
X82923510Y-65597543D01*
X82965190Y-65988412D01*
X82904038Y-66351608D01*
X82669857Y-66514934D01*
X82573683Y-66537360D01*
X82198790Y-66552707D01*
X81996960Y-66497730D01*
X81844956Y-66249110D01*
X81870867Y-66057943D01*
X82039475Y-66057943D01*
X82086257Y-66186967D01*
X82292320Y-66305531D01*
X82513034Y-66185368D01*
X82615268Y-65964210D01*
X82548220Y-65735286D01*
X82423806Y-65696203D01*
X82131639Y-65806571D01*
X82039475Y-66057943D01*
X81870867Y-66057943D01*
X81889515Y-65920365D01*
X82089118Y-65647452D01*
X82281962Y-65564452D01*
X82589008Y-65455332D01*
X82608294Y-65312669D01*
X82351617Y-65219709D01*
X82232284Y-65213924D01*
X81958770Y-65162893D01*
X81920253Y-65053165D01*
X82172112Y-64900324D01*
X82507308Y-64947962D01*
G36*
X78115690Y-64998525D02*
G01*
X78359353Y-65288258D01*
X78434915Y-65511672D01*
X78420441Y-65752300D01*
X78221971Y-65845721D01*
X77973142Y-65856962D01*
X77639070Y-65876863D01*
X77572356Y-65966017D01*
X77669402Y-66109278D01*
X77971780Y-66284452D01*
X78171364Y-66285088D01*
X78412267Y-66277231D01*
X78463924Y-66335542D01*
X78334103Y-66494775D01*
X78038497Y-66547855D01*
X77717887Y-66485529D01*
X77576919Y-66393827D01*
X77373731Y-66040553D01*
X77341759Y-65634893D01*
X77416140Y-65374684D01*
X77579746Y-65374684D01*
X77637406Y-65493199D01*
X77901265Y-65535443D01*
X78180640Y-65485442D01*
X78222784Y-65374684D01*
X77989512Y-65225139D01*
X77901265Y-65213924D01*
X77631610Y-65315844D01*
X77579746Y-65374684D01*
X77416140Y-65374684D01*
X77449006Y-65259709D01*
X77663476Y-64997864D01*
X77953174Y-64932220D01*
X78115690Y-64998525D01*
G37*
X78115690Y-64998525D02*
X78359353Y-65288258D01*
X78434915Y-65511672D01*
X78420441Y-65752300D01*
X78221971Y-65845721D01*
X77973142Y-65856962D01*
X77639070Y-65876863D01*
X77572356Y-65966017D01*
X77669402Y-66109278D01*
X77971780Y-66284452D01*
X78171364Y-66285088D01*
X78412267Y-66277231D01*
X78463924Y-66335542D01*
X78334103Y-66494775D01*
X78038497Y-66547855D01*
X77717887Y-66485529D01*
X77576919Y-66393827D01*
X77373731Y-66040553D01*
X77341759Y-65634893D01*
X77416140Y-65374684D01*
X77579746Y-65374684D01*
X77637406Y-65493199D01*
X77901265Y-65535443D01*
X78180640Y-65485442D01*
X78222784Y-65374684D01*
X77989512Y-65225139D01*
X77901265Y-65213924D01*
X77631610Y-65315844D01*
X77579746Y-65374684D01*
X77416140Y-65374684D01*
X77449006Y-65259709D01*
X77663476Y-64997864D01*
X77953174Y-64932220D01*
X78115690Y-64998525D01*
G36*
X73948411Y-65137886D02*
G01*
X74104841Y-65551509D01*
X74123417Y-65790611D01*
X74029653Y-66256262D01*
X73792169Y-66525091D01*
X73476681Y-66551744D01*
X73241723Y-66399138D01*
X73058044Y-66029343D01*
X73048870Y-65695893D01*
X73256378Y-65695893D01*
X73289856Y-66057912D01*
X73447463Y-66305070D01*
X73671517Y-66294981D01*
X73862781Y-66045940D01*
X73894350Y-65946479D01*
X73918612Y-65496145D01*
X73734123Y-65248588D01*
X73563059Y-65213924D01*
X73350986Y-65351775D01*
X73256378Y-65695893D01*
X73048870Y-65695893D01*
X73045258Y-65564642D01*
X73192271Y-65153584D01*
X73346334Y-64998320D01*
X73677482Y-64935042D01*
X73948411Y-65137886D01*
G37*
X73948411Y-65137886D02*
X74104841Y-65551509D01*
X74123417Y-65790611D01*
X74029653Y-66256262D01*
X73792169Y-66525091D01*
X73476681Y-66551744D01*
X73241723Y-66399138D01*
X73058044Y-66029343D01*
X73048870Y-65695893D01*
X73256378Y-65695893D01*
X73289856Y-66057912D01*
X73447463Y-66305070D01*
X73671517Y-66294981D01*
X73862781Y-66045940D01*
X73894350Y-65946479D01*
X73918612Y-65496145D01*
X73734123Y-65248588D01*
X73563059Y-65213924D01*
X73350986Y-65351775D01*
X73256378Y-65695893D01*
X73048870Y-65695893D01*
X73045258Y-65564642D01*
X73192271Y-65153584D01*
X73346334Y-64998320D01*
X73677482Y-64935042D01*
X73948411Y-65137886D01*
G36*
X80526592Y-66586806D02*
G01*
X80553797Y-66660760D01*
X80423589Y-66803382D01*
X80312658Y-66821519D01*
X80098724Y-66734714D01*
X80071519Y-66660760D01*
X80201727Y-66518137D01*
X80312658Y-66500000D01*
X80526592Y-66586806D01*
G37*
X80526592Y-66586806D02*
X80553797Y-66660760D01*
X80423589Y-66803382D01*
X80312658Y-66821519D01*
X80098724Y-66734714D01*
X80071519Y-66660760D01*
X80201727Y-66518137D01*
X80312658Y-66500000D01*
X80526592Y-66586806D01*
G36*
X87096773Y-64916692D02*
G01*
X87119996Y-65029938D01*
X87055288Y-65292719D01*
X86891318Y-65765612D01*
X86773671Y-66085978D01*
X86553378Y-66596299D01*
X86332380Y-66971503D01*
X86180379Y-67116868D01*
X86024920Y-67142785D01*
X86095800Y-67007604D01*
X86164107Y-66922941D01*
X86279572Y-66627626D01*
X86244160Y-66168731D01*
X86051493Y-65500829D01*
X85910574Y-65116812D01*
X85920674Y-64920470D01*
X85989647Y-64892405D01*
X86135766Y-65031138D01*
X86258770Y-65365754D01*
X86260759Y-65374684D01*
X86373683Y-65712066D01*
X86499150Y-65856865D01*
X86501898Y-65856962D01*
X86626901Y-65718490D01*
X86740874Y-65384409D01*
X86743038Y-65374684D01*
X86859690Y-65037186D01*
X86994053Y-64892496D01*
X86996950Y-64892405D01*
X87096773Y-64916692D01*
G37*
X87096773Y-64916692D02*
X87119996Y-65029938D01*
X87055288Y-65292719D01*
X86891318Y-65765612D01*
X86773671Y-66085978D01*
X86553378Y-66596299D01*
X86332380Y-66971503D01*
X86180379Y-67116868D01*
X86024920Y-67142785D01*
X86095800Y-67007604D01*
X86164107Y-66922941D01*
X86279572Y-66627626D01*
X86244160Y-66168731D01*
X86051493Y-65500829D01*
X85910574Y-65116812D01*
X85920674Y-64920470D01*
X85989647Y-64892405D01*
X86135766Y-65031138D01*
X86258770Y-65365754D01*
X86260759Y-65374684D01*
X86373683Y-65712066D01*
X86499150Y-65856865D01*
X86501898Y-65856962D01*
X86626901Y-65718490D01*
X86740874Y-65384409D01*
X86743038Y-65374684D01*
X86859690Y-65037186D01*
X86994053Y-64892496D01*
X86996950Y-64892405D01*
X87096773Y-64916692D01*
G36*
X71430696Y-64946581D02*
G01*
X71774600Y-64993391D01*
X71934413Y-65152822D01*
X71998308Y-65523395D01*
X72003727Y-65586852D01*
X71976821Y-66125051D01*
X71815369Y-66473274D01*
X71550178Y-66576833D01*
X71459132Y-66553625D01*
X71271294Y-66592032D01*
X71229746Y-66804320D01*
X71165501Y-67074748D01*
X71068987Y-67143038D01*
X70986259Y-66994521D01*
X70929184Y-66597219D01*
X70908227Y-66031708D01*
X70908227Y-65657622D01*
X71229746Y-65657622D01*
X71264434Y-66031458D01*
X71340269Y-66235417D01*
X71561021Y-66312191D01*
X71730298Y-66125746D01*
X71792405Y-65765388D01*
X71707364Y-65373249D01*
X71511076Y-65244528D01*
X71304716Y-65281904D01*
X71232219Y-65549028D01*
X71229746Y-65657622D01*
X70908227Y-65657622D01*
X70908227Y-64920377D01*
X71430696Y-64946581D01*
G37*
X71430696Y-64946581D02*
X71774600Y-64993391D01*
X71934413Y-65152822D01*
X71998308Y-65523395D01*
X72003727Y-65586852D01*
X71976821Y-66125051D01*
X71815369Y-66473274D01*
X71550178Y-66576833D01*
X71459132Y-66553625D01*
X71271294Y-66592032D01*
X71229746Y-66804320D01*
X71165501Y-67074748D01*
X71068987Y-67143038D01*
X70986259Y-66994521D01*
X70929184Y-66597219D01*
X70908227Y-66031708D01*
X70908227Y-65657622D01*
X71229746Y-65657622D01*
X71264434Y-66031458D01*
X71340269Y-66235417D01*
X71561021Y-66312191D01*
X71730298Y-66125746D01*
X71792405Y-65765388D01*
X71707364Y-65373249D01*
X71511076Y-65244528D01*
X71304716Y-65281904D01*
X71232219Y-65549028D01*
X71229746Y-65657622D01*
X70908227Y-65657622D01*
X70908227Y-64920377D01*
X71430696Y-64946581D01*
G36*
X85720274Y-67295997D02*
G01*
X85858264Y-67683111D01*
X85858860Y-67713685D01*
X85792578Y-68011744D01*
X85531655Y-68105511D01*
X85447474Y-68107595D01*
X85168983Y-68159861D01*
X85139484Y-68274894D01*
X85355118Y-68367113D01*
X85569890Y-68338404D01*
X85810678Y-68312804D01*
X85825098Y-68452434D01*
X85613053Y-68663006D01*
X85268999Y-68711950D01*
X84949345Y-68579733D01*
X84932616Y-68563882D01*
X84766024Y-68224171D01*
X84738260Y-67778562D01*
X84797975Y-67540173D01*
X85122567Y-67540173D01*
X85135443Y-67625317D01*
X85272949Y-67778511D01*
X85296202Y-67786076D01*
X85424013Y-67673953D01*
X85456962Y-67625317D01*
X85418787Y-67489122D01*
X85296202Y-67464557D01*
X85122567Y-67540173D01*
X84797975Y-67540173D01*
X84840483Y-67370483D01*
X85019024Y-67162326D01*
X85407848Y-67100947D01*
X85720274Y-67295997D01*
G37*
X85720274Y-67295997D02*
X85858264Y-67683111D01*
X85858860Y-67713685D01*
X85792578Y-68011744D01*
X85531655Y-68105511D01*
X85447474Y-68107595D01*
X85168983Y-68159861D01*
X85139484Y-68274894D01*
X85355118Y-68367113D01*
X85569890Y-68338404D01*
X85810678Y-68312804D01*
X85825098Y-68452434D01*
X85613053Y-68663006D01*
X85268999Y-68711950D01*
X84949345Y-68579733D01*
X84932616Y-68563882D01*
X84766024Y-68224171D01*
X84738260Y-67778562D01*
X84797975Y-67540173D01*
X85122567Y-67540173D01*
X85135443Y-67625317D01*
X85272949Y-67778511D01*
X85296202Y-67786076D01*
X85424013Y-67673953D01*
X85456962Y-67625317D01*
X85418787Y-67489122D01*
X85296202Y-67464557D01*
X85122567Y-67540173D01*
X84797975Y-67540173D01*
X84840483Y-67370483D01*
X85019024Y-67162326D01*
X85407848Y-67100947D01*
X85720274Y-67295997D01*
G36*
X84303104Y-67073951D02*
G01*
X84547068Y-67247740D01*
X84504253Y-67407734D01*
X84251265Y-67464557D01*
X83999142Y-67558751D01*
X83929746Y-67866456D01*
X84002948Y-68179359D01*
X84262376Y-68268352D01*
X84264662Y-68268355D01*
X84509670Y-68345156D01*
X84532670Y-68469304D01*
X84319945Y-68680466D01*
X83974053Y-68689482D01*
X83782384Y-68603816D01*
X83609075Y-68327754D01*
X83563016Y-67900301D01*
X83643009Y-67464808D01*
X83794032Y-67209856D01*
X84109124Y-67056443D01*
X84303104Y-67073951D01*
G37*
X84303104Y-67073951D02*
X84547068Y-67247740D01*
X84504253Y-67407734D01*
X84251265Y-67464557D01*
X83999142Y-67558751D01*
X83929746Y-67866456D01*
X84002948Y-68179359D01*
X84262376Y-68268352D01*
X84264662Y-68268355D01*
X84509670Y-68345156D01*
X84532670Y-68469304D01*
X84319945Y-68680466D01*
X83974053Y-68689482D01*
X83782384Y-68603816D01*
X83609075Y-68327754D01*
X83563016Y-67900301D01*
X83643009Y-67464808D01*
X83794032Y-67209856D01*
X84109124Y-67056443D01*
X84303104Y-67073951D01*
G36*
X82921392Y-67109214D02*
G01*
X83117672Y-67199065D01*
X83221343Y-67441256D01*
X83274975Y-67833515D01*
X83277949Y-68259823D01*
X83229646Y-68604162D01*
X83129446Y-68750514D01*
X83125949Y-68750633D01*
X83018970Y-68609485D01*
X82966325Y-68263151D01*
X82965190Y-68197463D01*
X82927193Y-67800458D01*
X82834398Y-67565755D01*
X82821275Y-67555348D01*
X82657863Y-67596585D01*
X82534449Y-67882996D01*
X82483020Y-68338335D01*
X82482911Y-68361883D01*
X82426190Y-68657651D01*
X82322152Y-68750633D01*
X82229524Y-68606247D01*
X82171426Y-68237918D01*
X82161392Y-67965577D01*
X82178736Y-67488320D01*
X82258638Y-67240547D01*
X82442899Y-67130894D01*
X82555014Y-67105275D01*
X82921392Y-67109214D01*
G37*
X82921392Y-67109214D02*
X83117672Y-67199065D01*
X83221343Y-67441256D01*
X83274975Y-67833515D01*
X83277949Y-68259823D01*
X83229646Y-68604162D01*
X83129446Y-68750514D01*
X83125949Y-68750633D01*
X83018970Y-68609485D01*
X82966325Y-68263151D01*
X82965190Y-68197463D01*
X82927193Y-67800458D01*
X82834398Y-67565755D01*
X82821275Y-67555348D01*
X82657863Y-67596585D01*
X82534449Y-67882996D01*
X82483020Y-68338335D01*
X82482911Y-68361883D01*
X82426190Y-68657651D01*
X82322152Y-68750633D01*
X82229524Y-68606247D01*
X82171426Y-68237918D01*
X82161392Y-67965577D01*
X82178736Y-67488320D01*
X82258638Y-67240547D01*
X82442899Y-67130894D01*
X82555014Y-67105275D01*
X82921392Y-67109214D01*
G36*
X81542404Y-67112821D02*
G01*
X81614632Y-67177321D01*
X81844589Y-67544303D01*
X81846428Y-67869680D01*
X81625965Y-68063785D01*
X81556160Y-68078899D01*
X81309014Y-68169384D01*
X81279979Y-68272827D01*
X81481882Y-68346552D01*
X81625818Y-68316097D01*
X81814654Y-68308992D01*
X81809027Y-68443687D01*
X81597467Y-68685454D01*
X81276653Y-68714583D01*
X80969925Y-68540412D01*
X80856468Y-68371566D01*
X80752656Y-67923707D01*
X80795614Y-67625317D01*
X81196835Y-67625317D01*
X81319169Y-67781405D01*
X81357595Y-67786076D01*
X81513683Y-67663742D01*
X81518354Y-67625317D01*
X81396020Y-67469229D01*
X81357595Y-67464557D01*
X81201507Y-67586891D01*
X81196835Y-67625317D01*
X80795614Y-67625317D01*
X80812892Y-67505306D01*
X80993628Y-67184960D01*
X81251314Y-67031266D01*
X81542404Y-67112821D01*
G37*
X81542404Y-67112821D02*
X81614632Y-67177321D01*
X81844589Y-67544303D01*
X81846428Y-67869680D01*
X81625965Y-68063785D01*
X81556160Y-68078899D01*
X81309014Y-68169384D01*
X81279979Y-68272827D01*
X81481882Y-68346552D01*
X81625818Y-68316097D01*
X81814654Y-68308992D01*
X81809027Y-68443687D01*
X81597467Y-68685454D01*
X81276653Y-68714583D01*
X80969925Y-68540412D01*
X80856468Y-68371566D01*
X80752656Y-67923707D01*
X80795614Y-67625317D01*
X81196835Y-67625317D01*
X81319169Y-67781405D01*
X81357595Y-67786076D01*
X81513683Y-67663742D01*
X81518354Y-67625317D01*
X81396020Y-67469229D01*
X81357595Y-67464557D01*
X81201507Y-67586891D01*
X81196835Y-67625317D01*
X80795614Y-67625317D01*
X80812892Y-67505306D01*
X80993628Y-67184960D01*
X81251314Y-67031266D01*
X81542404Y-67112821D01*
G36*
X80472543Y-67238898D02*
G01*
X80544656Y-67564013D01*
X80553797Y-67856969D01*
X80510664Y-68384150D01*
X80392461Y-68668351D01*
X80215977Y-68674964D01*
X80174321Y-68639090D01*
X80111150Y-68427904D01*
X80074901Y-68020011D01*
X80071519Y-67839663D01*
X80105487Y-67372625D01*
X80220127Y-67165970D01*
X80312658Y-67143038D01*
X80472543Y-67238898D01*
G37*
X80472543Y-67238898D02*
X80544656Y-67564013D01*
X80553797Y-67856969D01*
X80510664Y-68384150D01*
X80392461Y-68668351D01*
X80215977Y-68674964D01*
X80174321Y-68639090D01*
X80111150Y-68427904D01*
X80074901Y-68020011D01*
X80071519Y-67839663D01*
X80105487Y-67372625D01*
X80220127Y-67165970D01*
X80312658Y-67143038D01*
X80472543Y-67238898D01*
G36*
X79746721Y-67116401D02*
G01*
X79907835Y-67289476D01*
X79910759Y-67320997D01*
X79775964Y-67437686D01*
X79589240Y-67464557D01*
X79337117Y-67558751D01*
X79267721Y-67866456D01*
X79340923Y-68179359D01*
X79600350Y-68268352D01*
X79602637Y-68268355D01*
X79847645Y-68345156D01*
X79870644Y-68469304D01*
X79661955Y-68684098D01*
X79343514Y-68686855D01*
X79143806Y-68562414D01*
X78988897Y-68230570D01*
X78955401Y-67773579D01*
X79040701Y-67349799D01*
X79166965Y-67159949D01*
X79448752Y-67062180D01*
X79746721Y-67116401D01*
G37*
X79746721Y-67116401D02*
X79907835Y-67289476D01*
X79910759Y-67320997D01*
X79775964Y-67437686D01*
X79589240Y-67464557D01*
X79337117Y-67558751D01*
X79267721Y-67866456D01*
X79340923Y-68179359D01*
X79600350Y-68268352D01*
X79602637Y-68268355D01*
X79847645Y-68345156D01*
X79870644Y-68469304D01*
X79661955Y-68684098D01*
X79343514Y-68686855D01*
X79143806Y-68562414D01*
X78988897Y-68230570D01*
X78955401Y-67773579D01*
X79040701Y-67349799D01*
X79166965Y-67159949D01*
X79448752Y-67062180D01*
X79746721Y-67116401D01*
G36*
X78559178Y-67208531D02*
G01*
X78584493Y-67263608D01*
X78506962Y-67426318D01*
X78276371Y-67475438D01*
X77901265Y-67486318D01*
X78270939Y-67664317D01*
X78537291Y-67923228D01*
X78606933Y-68266188D01*
X78486151Y-68572388D01*
X78216169Y-68717225D01*
X77896731Y-68706470D01*
X77774080Y-68650242D01*
X77657991Y-68421549D01*
X77805125Y-68320301D01*
X77981645Y-68348735D01*
X78252061Y-68387930D01*
X78260844Y-68264634D01*
X78010112Y-68000236D01*
X77941455Y-67942486D01*
X77700129Y-67683221D01*
X77708267Y-67446201D01*
X77758027Y-67354059D01*
X78018557Y-67125729D01*
X78330314Y-67072326D01*
X78559178Y-67208531D01*
G37*
X78559178Y-67208531D02*
X78584493Y-67263608D01*
X78506962Y-67426318D01*
X78276371Y-67475438D01*
X77901265Y-67486318D01*
X78270939Y-67664317D01*
X78537291Y-67923228D01*
X78606933Y-68266188D01*
X78486151Y-68572388D01*
X78216169Y-68717225D01*
X77896731Y-68706470D01*
X77774080Y-68650242D01*
X77657991Y-68421549D01*
X77805125Y-68320301D01*
X77981645Y-68348735D01*
X78252061Y-68387930D01*
X78260844Y-68264634D01*
X78010112Y-68000236D01*
X77941455Y-67942486D01*
X77700129Y-67683221D01*
X77708267Y-67446201D01*
X77758027Y-67354059D01*
X78018557Y-67125729D01*
X78330314Y-67072326D01*
X78559178Y-67208531D01*
G36*
X76574084Y-67086931D02*
G01*
X76653577Y-67279076D01*
X76690499Y-67653568D01*
X76687552Y-68096016D01*
X76647436Y-68492026D01*
X76572851Y-68727207D01*
X76534810Y-68750633D01*
X76434142Y-68608015D01*
X76378150Y-68251738D01*
X76374050Y-68107595D01*
X76338396Y-67704923D01*
X76249327Y-67480955D01*
X76213291Y-67464557D01*
X76112623Y-67607175D01*
X76056631Y-67963452D01*
X76052531Y-68107595D01*
X76007116Y-68582371D01*
X75871676Y-68751084D01*
X75677426Y-68643460D01*
X75610758Y-68428703D01*
X75573256Y-68020583D01*
X75570253Y-67858404D01*
X75592924Y-67423105D01*
X75700048Y-67206930D01*
X75950293Y-67108520D01*
X76011426Y-67096185D01*
X76375917Y-67058498D01*
X76574084Y-67086931D01*
G37*
X76574084Y-67086931D02*
X76653577Y-67279076D01*
X76690499Y-67653568D01*
X76687552Y-68096016D01*
X76647436Y-68492026D01*
X76572851Y-68727207D01*
X76534810Y-68750633D01*
X76434142Y-68608015D01*
X76378150Y-68251738D01*
X76374050Y-68107595D01*
X76338396Y-67704923D01*
X76249327Y-67480955D01*
X76213291Y-67464557D01*
X76112623Y-67607175D01*
X76056631Y-67963452D01*
X76052531Y-68107595D01*
X76007116Y-68582371D01*
X75871676Y-68751084D01*
X75677426Y-68643460D01*
X75610758Y-68428703D01*
X75573256Y-68020583D01*
X75570253Y-67858404D01*
X75592924Y-67423105D01*
X75700048Y-67206930D01*
X75950293Y-67108520D01*
X76011426Y-67096185D01*
X76375917Y-67058498D01*
X76574084Y-67086931D01*
G36*
X75037316Y-67113047D02*
G01*
X75278533Y-67414284D01*
X75406496Y-67749388D01*
X75409493Y-67797559D01*
X75311562Y-68040360D01*
X74998107Y-68107595D01*
X74719616Y-68159861D01*
X74690117Y-68274894D01*
X74905751Y-68367113D01*
X75120523Y-68338404D01*
X75361311Y-68312804D01*
X75375731Y-68452434D01*
X75163686Y-68663006D01*
X74819632Y-68711950D01*
X74499977Y-68579733D01*
X74483249Y-68563882D01*
X74315890Y-68230543D01*
X74291056Y-67795831D01*
X74329706Y-67625317D01*
X74605696Y-67625317D01*
X74728030Y-67781405D01*
X74766455Y-67786076D01*
X74922543Y-67663742D01*
X74927215Y-67625317D01*
X74804881Y-67469229D01*
X74766455Y-67464557D01*
X74610367Y-67586891D01*
X74605696Y-67625317D01*
X74329706Y-67625317D01*
X74387455Y-67370552D01*
X74583800Y-67065513D01*
X74787124Y-66982279D01*
X75037316Y-67113047D01*
G37*
X75037316Y-67113047D02*
X75278533Y-67414284D01*
X75406496Y-67749388D01*
X75409493Y-67797559D01*
X75311562Y-68040360D01*
X74998107Y-68107595D01*
X74719616Y-68159861D01*
X74690117Y-68274894D01*
X74905751Y-68367113D01*
X75120523Y-68338404D01*
X75361311Y-68312804D01*
X75375731Y-68452434D01*
X75163686Y-68663006D01*
X74819632Y-68711950D01*
X74499977Y-68579733D01*
X74483249Y-68563882D01*
X74315890Y-68230543D01*
X74291056Y-67795831D01*
X74329706Y-67625317D01*
X74605696Y-67625317D01*
X74728030Y-67781405D01*
X74766455Y-67786076D01*
X74922543Y-67663742D01*
X74927215Y-67625317D01*
X74804881Y-67469229D01*
X74766455Y-67464557D01*
X74610367Y-67586891D01*
X74605696Y-67625317D01*
X74329706Y-67625317D01*
X74387455Y-67370552D01*
X74583800Y-67065513D01*
X74787124Y-66982279D01*
X75037316Y-67113047D01*
G36*
X72274375Y-67189248D02*
G01*
X72393845Y-67311771D01*
X72646051Y-67766915D01*
X72610107Y-68219664D01*
X72510166Y-68439683D01*
X72227531Y-68706494D01*
X71881749Y-68710772D01*
X71582166Y-68461319D01*
X71527416Y-68360589D01*
X71412443Y-67885249D01*
X71415436Y-67866456D01*
X71872784Y-67866456D01*
X71927814Y-68168573D01*
X72033544Y-68268355D01*
X72154391Y-68130780D01*
X72194303Y-67866456D01*
X72139274Y-67564339D01*
X72033544Y-67464557D01*
X71912697Y-67602132D01*
X71872784Y-67866456D01*
X71415436Y-67866456D01*
X71478360Y-67471485D01*
X71676458Y-67178257D01*
X71958032Y-67064525D01*
X72274375Y-67189248D01*
G37*
X72274375Y-67189248D02*
X72393845Y-67311771D01*
X72646051Y-67766915D01*
X72610107Y-68219664D01*
X72510166Y-68439683D01*
X72227531Y-68706494D01*
X71881749Y-68710772D01*
X71582166Y-68461319D01*
X71527416Y-68360589D01*
X71412443Y-67885249D01*
X71415436Y-67866456D01*
X71872784Y-67866456D01*
X71927814Y-68168573D01*
X72033544Y-68268355D01*
X72154391Y-68130780D01*
X72194303Y-67866456D01*
X72139274Y-67564339D01*
X72033544Y-67464557D01*
X71912697Y-67602132D01*
X71872784Y-67866456D01*
X71415436Y-67866456D01*
X71478360Y-67471485D01*
X71676458Y-67178257D01*
X71958032Y-67064525D01*
X72274375Y-67189248D01*
G36*
X73747716Y-67208876D02*
G01*
X73924130Y-67494431D01*
X74034937Y-67937732D01*
X73979689Y-68350088D01*
X73791976Y-68638532D01*
X73505386Y-68710098D01*
X73486513Y-68705657D01*
X73240228Y-68720617D01*
X73133211Y-68983551D01*
X73127669Y-69024599D01*
X73052368Y-69279030D01*
X72957911Y-69301921D01*
X72895061Y-69087733D01*
X72851444Y-68651888D01*
X72837341Y-68161182D01*
X72842450Y-67891427D01*
X73246868Y-67891427D01*
X73280121Y-68067405D01*
X73429465Y-68262751D01*
X73574318Y-68185041D01*
X73641105Y-67875228D01*
X73641139Y-67866456D01*
X73590666Y-67564270D01*
X73493776Y-67464557D01*
X73312268Y-67596795D01*
X73246868Y-67891427D01*
X72842450Y-67891427D01*
X72847886Y-67604501D01*
X72894646Y-67297204D01*
X73000312Y-67167438D01*
X73158860Y-67143038D01*
X73483078Y-67126793D01*
X73600949Y-67107368D01*
X73747716Y-67208876D01*
G37*
X73747716Y-67208876D02*
X73924130Y-67494431D01*
X74034937Y-67937732D01*
X73979689Y-68350088D01*
X73791976Y-68638532D01*
X73505386Y-68710098D01*
X73486513Y-68705657D01*
X73240228Y-68720617D01*
X73133211Y-68983551D01*
X73127669Y-69024599D01*
X73052368Y-69279030D01*
X72957911Y-69301921D01*
X72895061Y-69087733D01*
X72851444Y-68651888D01*
X72837341Y-68161182D01*
X72842450Y-67891427D01*
X73246868Y-67891427D01*
X73280121Y-68067405D01*
X73429465Y-68262751D01*
X73574318Y-68185041D01*
X73641105Y-67875228D01*
X73641139Y-67866456D01*
X73590666Y-67564270D01*
X73493776Y-67464557D01*
X73312268Y-67596795D01*
X73246868Y-67891427D01*
X72842450Y-67891427D01*
X72847886Y-67604501D01*
X72894646Y-67297204D01*
X73000312Y-67167438D01*
X73158860Y-67143038D01*
X73483078Y-67126793D01*
X73600949Y-67107368D01*
X73747716Y-67208876D01*
G36*
X87902827Y-65672370D02*
G01*
X87963772Y-65704251D01*
X88153537Y-65857514D01*
X88221266Y-66108325D01*
X88191106Y-66558786D01*
X88182375Y-66628618D01*
X88153043Y-67247552D01*
X88188803Y-67957828D01*
X88228876Y-68276202D01*
X88312857Y-68983055D01*
X88289012Y-69401891D01*
X88156229Y-69547989D01*
X88136287Y-69548150D01*
X87950915Y-69471743D01*
X87571056Y-69278141D01*
X87108578Y-69025682D01*
X86625009Y-68734464D01*
X86266194Y-68480874D01*
X86116996Y-68329704D01*
X86139684Y-68225458D01*
X86501898Y-68225458D01*
X86630312Y-68357787D01*
X86950868Y-68572335D01*
X87366536Y-68810771D01*
X87780286Y-69014764D01*
X87893729Y-69062180D01*
X87900266Y-68917594D01*
X87897147Y-68520696D01*
X87885247Y-67940523D01*
X87874426Y-67539032D01*
X87836204Y-66679817D01*
X87780494Y-66139198D01*
X87706616Y-65914689D01*
X87613893Y-66003808D01*
X87530324Y-66280082D01*
X87370841Y-66691505D01*
X87098145Y-67197307D01*
X86959842Y-67413142D01*
X86696232Y-67825724D01*
X86530699Y-68134341D01*
X86501898Y-68225458D01*
X86139684Y-68225458D01*
X86164784Y-68110137D01*
X86362325Y-67730696D01*
X86578350Y-67401081D01*
X86900655Y-66873929D01*
X87141555Y-66346311D01*
X87215508Y-66093845D01*
X87339683Y-65680444D01*
X87545557Y-65552048D01*
X87902827Y-65672370D01*
G37*
X87902827Y-65672370D02*
X87963772Y-65704251D01*
X88153537Y-65857514D01*
X88221266Y-66108325D01*
X88191106Y-66558786D01*
X88182375Y-66628618D01*
X88153043Y-67247552D01*
X88188803Y-67957828D01*
X88228876Y-68276202D01*
X88312857Y-68983055D01*
X88289012Y-69401891D01*
X88156229Y-69547989D01*
X88136287Y-69548150D01*
X87950915Y-69471743D01*
X87571056Y-69278141D01*
X87108578Y-69025682D01*
X86625009Y-68734464D01*
X86266194Y-68480874D01*
X86116996Y-68329704D01*
X86139684Y-68225458D01*
X86501898Y-68225458D01*
X86630312Y-68357787D01*
X86950868Y-68572335D01*
X87366536Y-68810771D01*
X87780286Y-69014764D01*
X87893729Y-69062180D01*
X87900266Y-68917594D01*
X87897147Y-68520696D01*
X87885247Y-67940523D01*
X87874426Y-67539032D01*
X87836204Y-66679817D01*
X87780494Y-66139198D01*
X87706616Y-65914689D01*
X87613893Y-66003808D01*
X87530324Y-66280082D01*
X87370841Y-66691505D01*
X87098145Y-67197307D01*
X86959842Y-67413142D01*
X86696232Y-67825724D01*
X86530699Y-68134341D01*
X86501898Y-68225458D01*
X86139684Y-68225458D01*
X86164784Y-68110137D01*
X86362325Y-67730696D01*
X86578350Y-67401081D01*
X86900655Y-66873929D01*
X87141555Y-66346311D01*
X87215508Y-66093845D01*
X87339683Y-65680444D01*
X87545557Y-65552048D01*
X87902827Y-65672370D01*
D10*
%TO.C,J2*%
X73660000Y-78038000D02*
X73660000Y-75378000D01*
X73660000Y-78038000D02*
X116900000Y-78038000D01*
X116900000Y-78038000D02*
X116900000Y-75378000D01*
X73660000Y-75378000D02*
X116900000Y-75378000D01*
X71060000Y-75378000D02*
X72390000Y-75378000D01*
X71060000Y-76708000D02*
X71060000Y-75378000D01*
%TO.C,SW2*%
X66756000Y-121878000D02*
X66756000Y-118478000D01*
X66756000Y-123518000D02*
X66756000Y-122978000D01*
X69586000Y-116318000D02*
X70096000Y-116318000D01*
X70096000Y-116838000D02*
X70096000Y-116318000D01*
X69586000Y-116838000D02*
X70096000Y-116838000D01*
X66756000Y-117378000D02*
X66756000Y-116838000D01*
X69586000Y-124038000D02*
X70096000Y-124038000D01*
X69586000Y-123518000D02*
X70096000Y-123518000D01*
X66756000Y-116838000D02*
X66986000Y-116838000D01*
X63086000Y-124038000D02*
X66986000Y-124038000D01*
X70096000Y-124038000D02*
X70096000Y-123518000D01*
X63086000Y-116318000D02*
X66986000Y-116318000D01*
X63086000Y-124038000D02*
X63086000Y-116318000D01*
X66756000Y-123518000D02*
X66986000Y-123518000D01*
%TO.C,SW1*%
X66756000Y-111464000D02*
X66756000Y-108064000D01*
X66756000Y-113104000D02*
X66756000Y-112564000D01*
X69586000Y-105904000D02*
X70096000Y-105904000D01*
X70096000Y-106424000D02*
X70096000Y-105904000D01*
X69586000Y-106424000D02*
X70096000Y-106424000D01*
X66756000Y-106964000D02*
X66756000Y-106424000D01*
X69586000Y-113624000D02*
X70096000Y-113624000D01*
X69586000Y-113104000D02*
X70096000Y-113104000D01*
X66756000Y-106424000D02*
X66986000Y-106424000D01*
X63086000Y-113624000D02*
X66986000Y-113624000D01*
X70096000Y-113624000D02*
X70096000Y-113104000D01*
X63086000Y-105904000D02*
X66986000Y-105904000D01*
X63086000Y-113624000D02*
X63086000Y-105904000D01*
X66756000Y-113104000D02*
X66986000Y-113104000D01*
%TO.C,J5*%
X152353000Y-78040000D02*
X149853000Y-78040000D01*
X149853000Y-78040000D02*
X149853000Y-76990000D01*
X149853000Y-76990000D02*
X148863000Y-76990000D01*
X152353000Y-71820000D02*
X149853000Y-71820000D01*
X149853000Y-71820000D02*
X149853000Y-72870000D01*
X154323000Y-76870000D02*
X154323000Y-72990000D01*
%TO.C,J3*%
X151578000Y-88646000D02*
X154238000Y-88646000D01*
X151578000Y-88646000D02*
X151578000Y-124266000D01*
X151578000Y-124266000D02*
X154238000Y-124266000D01*
X154238000Y-88646000D02*
X154238000Y-124266000D01*
X154238000Y-86046000D02*
X154238000Y-87376000D01*
X152908000Y-86046000D02*
X154238000Y-86046000D01*
%TO.C,RS3*%
X131472000Y-84296000D02*
X134212000Y-84296000D01*
X134212000Y-84296000D02*
X134212000Y-77756000D01*
X134212000Y-77756000D02*
X131472000Y-77756000D01*
X131472000Y-77756000D02*
X131472000Y-84296000D01*
X132842000Y-85066000D02*
X132842000Y-84296000D01*
X132842000Y-76986000D02*
X132842000Y-77756000D01*
%TO.C,D2*%
X145750000Y-127770000D02*
G75*
G03*
X145750000Y-127770000I-2500000J0D01*
G01*
X144795000Y-125210000D02*
X141705000Y-125210000D01*
X143250462Y-130760000D02*
G75*
G02*
X141705170Y-125210000I-462J2990000D01*
G01*
X143249538Y-130760000D02*
G75*
G03*
X144794830Y-125210000I462J2990000D01*
G01*
%TO.C,RS2*%
X127916000Y-84296000D02*
X130656000Y-84296000D01*
X130656000Y-84296000D02*
X130656000Y-77756000D01*
X130656000Y-77756000D02*
X127916000Y-77756000D01*
X127916000Y-77756000D02*
X127916000Y-84296000D01*
X129286000Y-85066000D02*
X129286000Y-84296000D01*
X129286000Y-76986000D02*
X129286000Y-77756000D01*
%TO.C,D1*%
X132040000Y-93218000D02*
G75*
G03*
X132040000Y-93218000I-2500000J0D01*
G01*
X131085000Y-90658000D02*
X127995000Y-90658000D01*
X129540462Y-96208000D02*
G75*
G02*
X127995170Y-90658000I-462J2990000D01*
G01*
X129539538Y-96208000D02*
G75*
G03*
X131084830Y-90658000I462J2990000D01*
G01*
%TO.C,J4*%
X143704000Y-79502000D02*
X146364000Y-79502000D01*
X143704000Y-79502000D02*
X143704000Y-84642000D01*
X143704000Y-84642000D02*
X146364000Y-84642000D01*
X146364000Y-79502000D02*
X146364000Y-84642000D01*
X146364000Y-76902000D02*
X146364000Y-78232000D01*
X145034000Y-76902000D02*
X146364000Y-76902000D01*
%TO.C,J1*%
X73660000Y-100898000D02*
X73660000Y-98238000D01*
X73660000Y-100898000D02*
X116900000Y-100898000D01*
X116900000Y-100898000D02*
X116900000Y-98238000D01*
X73660000Y-98238000D02*
X116900000Y-98238000D01*
X71060000Y-98238000D02*
X72390000Y-98238000D01*
X71060000Y-99568000D02*
X71060000Y-98238000D01*
%TO.C,RS1*%
X107542000Y-87542000D02*
X107542000Y-90282000D01*
X107542000Y-90282000D02*
X114082000Y-90282000D01*
X114082000Y-90282000D02*
X114082000Y-87542000D01*
X114082000Y-87542000D02*
X107542000Y-87542000D01*
X106772000Y-88912000D02*
X107542000Y-88912000D01*
X114852000Y-88912000D02*
X114082000Y-88912000D01*
%TO.C,RS0*%
X107542000Y-83732000D02*
X107542000Y-86472000D01*
X107542000Y-86472000D02*
X114082000Y-86472000D01*
X114082000Y-86472000D02*
X114082000Y-83732000D01*
X114082000Y-83732000D02*
X107542000Y-83732000D01*
X106772000Y-85102000D02*
X107542000Y-85102000D01*
X114852000Y-85102000D02*
X114082000Y-85102000D01*
%TO.C,J11*%
X141478000Y-107636000D02*
X141478000Y-110296000D01*
X141478000Y-107636000D02*
X123638000Y-107636000D01*
X123638000Y-107636000D02*
X123638000Y-110296000D01*
X141478000Y-110296000D02*
X123638000Y-110296000D01*
X144078000Y-110296000D02*
X142748000Y-110296000D01*
X144078000Y-108966000D02*
X144078000Y-110296000D01*
%TO.C,J9*%
X76902000Y-108712000D02*
X76902000Y-107382000D01*
X76902000Y-107382000D02*
X78232000Y-107382000D01*
X79502000Y-107382000D02*
X94802000Y-107382000D01*
X94802000Y-110042000D02*
X94802000Y-107382000D01*
X79502000Y-110042000D02*
X94802000Y-110042000D01*
X79502000Y-110042000D02*
X79502000Y-107382000D01*
%TO.C,R3*%
X107672000Y-116078000D02*
X106902000Y-116078000D01*
X99592000Y-116078000D02*
X100362000Y-116078000D01*
X106902000Y-114708000D02*
X100362000Y-114708000D01*
X106902000Y-117448000D02*
X106902000Y-114708000D01*
X100362000Y-117448000D02*
X106902000Y-117448000D01*
X100362000Y-114708000D02*
X100362000Y-117448000D01*
%TO.C,R2*%
X107672000Y-119380000D02*
X106902000Y-119380000D01*
X99592000Y-119380000D02*
X100362000Y-119380000D01*
X106902000Y-118010000D02*
X100362000Y-118010000D01*
X106902000Y-120750000D02*
X106902000Y-118010000D01*
X100362000Y-120750000D02*
X106902000Y-120750000D01*
X100362000Y-118010000D02*
X100362000Y-120750000D01*
%TO.C,J2*%
D11*
X69072380Y-77041333D02*
X69786666Y-77041333D01*
X69929523Y-77088952D01*
X70024761Y-77184190D01*
X70072380Y-77327047D01*
X70072380Y-77422285D01*
X69167619Y-76612761D02*
X69120000Y-76565142D01*
X69072380Y-76469904D01*
X69072380Y-76231809D01*
X69120000Y-76136571D01*
X69167619Y-76088952D01*
X69262857Y-76041333D01*
X69358095Y-76041333D01*
X69500952Y-76088952D01*
X70072380Y-76660380D01*
X70072380Y-76041333D01*
%TO.C,SW2*%
X68870761Y-121511333D02*
X68918380Y-121368476D01*
X68918380Y-121130380D01*
X68870761Y-121035142D01*
X68823142Y-120987523D01*
X68727904Y-120939904D01*
X68632666Y-120939904D01*
X68537428Y-120987523D01*
X68489809Y-121035142D01*
X68442190Y-121130380D01*
X68394571Y-121320857D01*
X68346952Y-121416095D01*
X68299333Y-121463714D01*
X68204095Y-121511333D01*
X68108857Y-121511333D01*
X68013619Y-121463714D01*
X67966000Y-121416095D01*
X67918380Y-121320857D01*
X67918380Y-121082761D01*
X67966000Y-120939904D01*
X67918380Y-120606571D02*
X68918380Y-120368476D01*
X68204095Y-120178000D01*
X68918380Y-119987523D01*
X67918380Y-119749428D01*
X68013619Y-119416095D02*
X67966000Y-119368476D01*
X67918380Y-119273238D01*
X67918380Y-119035142D01*
X67966000Y-118939904D01*
X68013619Y-118892285D01*
X68108857Y-118844666D01*
X68204095Y-118844666D01*
X68346952Y-118892285D01*
X68918380Y-119463714D01*
X68918380Y-118844666D01*
%TO.C,SW1*%
X68870761Y-111097333D02*
X68918380Y-110954476D01*
X68918380Y-110716380D01*
X68870761Y-110621142D01*
X68823142Y-110573523D01*
X68727904Y-110525904D01*
X68632666Y-110525904D01*
X68537428Y-110573523D01*
X68489809Y-110621142D01*
X68442190Y-110716380D01*
X68394571Y-110906857D01*
X68346952Y-111002095D01*
X68299333Y-111049714D01*
X68204095Y-111097333D01*
X68108857Y-111097333D01*
X68013619Y-111049714D01*
X67966000Y-111002095D01*
X67918380Y-110906857D01*
X67918380Y-110668761D01*
X67966000Y-110525904D01*
X67918380Y-110192571D02*
X68918380Y-109954476D01*
X68204095Y-109764000D01*
X68918380Y-109573523D01*
X67918380Y-109335428D01*
X68918380Y-108430666D02*
X68918380Y-109002095D01*
X68918380Y-108716380D02*
X67918380Y-108716380D01*
X68061238Y-108811619D01*
X68156476Y-108906857D01*
X68204095Y-109002095D01*
%TO.C,J5*%
X153590666Y-79462380D02*
X153590666Y-80176666D01*
X153543047Y-80319523D01*
X153447809Y-80414761D01*
X153304952Y-80462380D01*
X153209714Y-80462380D01*
X154543047Y-79462380D02*
X154066857Y-79462380D01*
X154019238Y-79938571D01*
X154066857Y-79890952D01*
X154162095Y-79843333D01*
X154400190Y-79843333D01*
X154495428Y-79890952D01*
X154543047Y-79938571D01*
X154590666Y-80033809D01*
X154590666Y-80271904D01*
X154543047Y-80367142D01*
X154495428Y-80414761D01*
X154400190Y-80462380D01*
X154162095Y-80462380D01*
X154066857Y-80414761D01*
X154019238Y-80367142D01*
%TO.C,J3*%
X152574666Y-84058380D02*
X152574666Y-84772666D01*
X152527047Y-84915523D01*
X152431809Y-85010761D01*
X152288952Y-85058380D01*
X152193714Y-85058380D01*
X152955619Y-84058380D02*
X153574666Y-84058380D01*
X153241333Y-84439333D01*
X153384190Y-84439333D01*
X153479428Y-84486952D01*
X153527047Y-84534571D01*
X153574666Y-84629809D01*
X153574666Y-84867904D01*
X153527047Y-84963142D01*
X153479428Y-85010761D01*
X153384190Y-85058380D01*
X153098476Y-85058380D01*
X153003238Y-85010761D01*
X152955619Y-84963142D01*
%TO.C,RS3*%
X133294380Y-81668857D02*
X132818190Y-82002190D01*
X133294380Y-82240285D02*
X132294380Y-82240285D01*
X132294380Y-81859333D01*
X132342000Y-81764095D01*
X132389619Y-81716476D01*
X132484857Y-81668857D01*
X132627714Y-81668857D01*
X132722952Y-81716476D01*
X132770571Y-81764095D01*
X132818190Y-81859333D01*
X132818190Y-82240285D01*
X133246761Y-81287904D02*
X133294380Y-81145047D01*
X133294380Y-80906952D01*
X133246761Y-80811714D01*
X133199142Y-80764095D01*
X133103904Y-80716476D01*
X133008666Y-80716476D01*
X132913428Y-80764095D01*
X132865809Y-80811714D01*
X132818190Y-80906952D01*
X132770571Y-81097428D01*
X132722952Y-81192666D01*
X132675333Y-81240285D01*
X132580095Y-81287904D01*
X132484857Y-81287904D01*
X132389619Y-81240285D01*
X132342000Y-81192666D01*
X132294380Y-81097428D01*
X132294380Y-80859333D01*
X132342000Y-80716476D01*
X132294380Y-80383142D02*
X132294380Y-79764095D01*
X132675333Y-80097428D01*
X132675333Y-79954571D01*
X132722952Y-79859333D01*
X132770571Y-79811714D01*
X132865809Y-79764095D01*
X133103904Y-79764095D01*
X133199142Y-79811714D01*
X133246761Y-79859333D01*
X133294380Y-79954571D01*
X133294380Y-80240285D01*
X133246761Y-80335523D01*
X133199142Y-80383142D01*
%TO.C,D2*%
X136892857Y-128428571D02*
X136892857Y-126928571D01*
X137250000Y-126928571D01*
X137464285Y-127000000D01*
X137607142Y-127142857D01*
X137678571Y-127285714D01*
X137750000Y-127571428D01*
X137750000Y-127785714D01*
X137678571Y-128071428D01*
X137607142Y-128214285D01*
X137464285Y-128357142D01*
X137250000Y-128428571D01*
X136892857Y-128428571D01*
X138321428Y-127071428D02*
X138392857Y-127000000D01*
X138535714Y-126928571D01*
X138892857Y-126928571D01*
X139035714Y-127000000D01*
X139107142Y-127071428D01*
X139178571Y-127214285D01*
X139178571Y-127357142D01*
X139107142Y-127571428D01*
X138250000Y-128428571D01*
X139178571Y-128428571D01*
%TO.C,H1*%
X65786095Y-63554380D02*
X65786095Y-62554380D01*
X65786095Y-63030571D02*
X66357523Y-63030571D01*
X66357523Y-63554380D02*
X66357523Y-62554380D01*
X67357523Y-63554380D02*
X66786095Y-63554380D01*
X67071809Y-63554380D02*
X67071809Y-62554380D01*
X66976571Y-62697238D01*
X66881333Y-62792476D01*
X66786095Y-62840095D01*
%TO.C,RS2*%
X129738380Y-81668857D02*
X129262190Y-82002190D01*
X129738380Y-82240285D02*
X128738380Y-82240285D01*
X128738380Y-81859333D01*
X128786000Y-81764095D01*
X128833619Y-81716476D01*
X128928857Y-81668857D01*
X129071714Y-81668857D01*
X129166952Y-81716476D01*
X129214571Y-81764095D01*
X129262190Y-81859333D01*
X129262190Y-82240285D01*
X129690761Y-81287904D02*
X129738380Y-81145047D01*
X129738380Y-80906952D01*
X129690761Y-80811714D01*
X129643142Y-80764095D01*
X129547904Y-80716476D01*
X129452666Y-80716476D01*
X129357428Y-80764095D01*
X129309809Y-80811714D01*
X129262190Y-80906952D01*
X129214571Y-81097428D01*
X129166952Y-81192666D01*
X129119333Y-81240285D01*
X129024095Y-81287904D01*
X128928857Y-81287904D01*
X128833619Y-81240285D01*
X128786000Y-81192666D01*
X128738380Y-81097428D01*
X128738380Y-80859333D01*
X128786000Y-80716476D01*
X128833619Y-80335523D02*
X128786000Y-80287904D01*
X128738380Y-80192666D01*
X128738380Y-79954571D01*
X128786000Y-79859333D01*
X128833619Y-79811714D01*
X128928857Y-79764095D01*
X129024095Y-79764095D01*
X129166952Y-79811714D01*
X129738380Y-80383142D01*
X129738380Y-79764095D01*
%TO.C,D1*%
X128642857Y-98678571D02*
X128642857Y-97178571D01*
X129000000Y-97178571D01*
X129214285Y-97250000D01*
X129357142Y-97392857D01*
X129428571Y-97535714D01*
X129500000Y-97821428D01*
X129500000Y-98035714D01*
X129428571Y-98321428D01*
X129357142Y-98464285D01*
X129214285Y-98607142D01*
X129000000Y-98678571D01*
X128642857Y-98678571D01*
X130928571Y-98678571D02*
X130071428Y-98678571D01*
X130500000Y-98678571D02*
X130500000Y-97178571D01*
X130357142Y-97392857D01*
X130214285Y-97535714D01*
X130071428Y-97607142D01*
%TO.C,J4*%
X144700666Y-74914380D02*
X144700666Y-75628666D01*
X144653047Y-75771523D01*
X144557809Y-75866761D01*
X144414952Y-75914380D01*
X144319714Y-75914380D01*
X145605428Y-75247714D02*
X145605428Y-75914380D01*
X145367333Y-74866761D02*
X145129238Y-75581047D01*
X145748285Y-75581047D01*
%TO.C,J1*%
X69072380Y-99901333D02*
X69786666Y-99901333D01*
X69929523Y-99948952D01*
X70024761Y-100044190D01*
X70072380Y-100187047D01*
X70072380Y-100282285D01*
X70072380Y-98901333D02*
X70072380Y-99472761D01*
X70072380Y-99187047D02*
X69072380Y-99187047D01*
X69215238Y-99282285D01*
X69310476Y-99377523D01*
X69358095Y-99472761D01*
%TO.C,RS1*%
X110169142Y-89364380D02*
X109835809Y-88888190D01*
X109597714Y-89364380D02*
X109597714Y-88364380D01*
X109978666Y-88364380D01*
X110073904Y-88412000D01*
X110121523Y-88459619D01*
X110169142Y-88554857D01*
X110169142Y-88697714D01*
X110121523Y-88792952D01*
X110073904Y-88840571D01*
X109978666Y-88888190D01*
X109597714Y-88888190D01*
X110550095Y-89316761D02*
X110692952Y-89364380D01*
X110931047Y-89364380D01*
X111026285Y-89316761D01*
X111073904Y-89269142D01*
X111121523Y-89173904D01*
X111121523Y-89078666D01*
X111073904Y-88983428D01*
X111026285Y-88935809D01*
X110931047Y-88888190D01*
X110740571Y-88840571D01*
X110645333Y-88792952D01*
X110597714Y-88745333D01*
X110550095Y-88650095D01*
X110550095Y-88554857D01*
X110597714Y-88459619D01*
X110645333Y-88412000D01*
X110740571Y-88364380D01*
X110978666Y-88364380D01*
X111121523Y-88412000D01*
X112073904Y-89364380D02*
X111502476Y-89364380D01*
X111788190Y-89364380D02*
X111788190Y-88364380D01*
X111692952Y-88507238D01*
X111597714Y-88602476D01*
X111502476Y-88650095D01*
%TO.C,RS0*%
X110169142Y-85554380D02*
X109835809Y-85078190D01*
X109597714Y-85554380D02*
X109597714Y-84554380D01*
X109978666Y-84554380D01*
X110073904Y-84602000D01*
X110121523Y-84649619D01*
X110169142Y-84744857D01*
X110169142Y-84887714D01*
X110121523Y-84982952D01*
X110073904Y-85030571D01*
X109978666Y-85078190D01*
X109597714Y-85078190D01*
X110550095Y-85506761D02*
X110692952Y-85554380D01*
X110931047Y-85554380D01*
X111026285Y-85506761D01*
X111073904Y-85459142D01*
X111121523Y-85363904D01*
X111121523Y-85268666D01*
X111073904Y-85173428D01*
X111026285Y-85125809D01*
X110931047Y-85078190D01*
X110740571Y-85030571D01*
X110645333Y-84982952D01*
X110597714Y-84935333D01*
X110550095Y-84840095D01*
X110550095Y-84744857D01*
X110597714Y-84649619D01*
X110645333Y-84602000D01*
X110740571Y-84554380D01*
X110978666Y-84554380D01*
X111121523Y-84602000D01*
X111740571Y-84554380D02*
X111835809Y-84554380D01*
X111931047Y-84602000D01*
X111978666Y-84649619D01*
X112026285Y-84744857D01*
X112073904Y-84935333D01*
X112073904Y-85173428D01*
X112026285Y-85363904D01*
X111978666Y-85459142D01*
X111931047Y-85506761D01*
X111835809Y-85554380D01*
X111740571Y-85554380D01*
X111645333Y-85506761D01*
X111597714Y-85459142D01*
X111550095Y-85363904D01*
X111502476Y-85173428D01*
X111502476Y-84935333D01*
X111550095Y-84744857D01*
X111597714Y-84649619D01*
X111645333Y-84602000D01*
X111740571Y-84554380D01*
%TO.C,J11*%
X121702380Y-110059523D02*
X122416666Y-110059523D01*
X122559523Y-110107142D01*
X122654761Y-110202380D01*
X122702380Y-110345238D01*
X122702380Y-110440476D01*
X122702380Y-109059523D02*
X122702380Y-109630952D01*
X122702380Y-109345238D02*
X121702380Y-109345238D01*
X121845238Y-109440476D01*
X121940476Y-109535714D01*
X121988095Y-109630952D01*
X122702380Y-108107142D02*
X122702380Y-108678571D01*
X122702380Y-108392857D02*
X121702380Y-108392857D01*
X121845238Y-108488095D01*
X121940476Y-108583333D01*
X121988095Y-108678571D01*
%TO.C,J9*%
X95972380Y-109299333D02*
X96686666Y-109299333D01*
X96829523Y-109346952D01*
X96924761Y-109442190D01*
X96972380Y-109585047D01*
X96972380Y-109680285D01*
X96972380Y-108775523D02*
X96972380Y-108585047D01*
X96924761Y-108489809D01*
X96877142Y-108442190D01*
X96734285Y-108346952D01*
X96543809Y-108299333D01*
X96162857Y-108299333D01*
X96067619Y-108346952D01*
X96020000Y-108394571D01*
X95972380Y-108489809D01*
X95972380Y-108680285D01*
X96020000Y-108775523D01*
X96067619Y-108823142D01*
X96162857Y-108870761D01*
X96400952Y-108870761D01*
X96496190Y-108823142D01*
X96543809Y-108775523D01*
X96591428Y-108680285D01*
X96591428Y-108489809D01*
X96543809Y-108394571D01*
X96496190Y-108346952D01*
X96400952Y-108299333D01*
%TO.C,R3*%
X103465333Y-116530380D02*
X103132000Y-116054190D01*
X102893904Y-116530380D02*
X102893904Y-115530380D01*
X103274857Y-115530380D01*
X103370095Y-115578000D01*
X103417714Y-115625619D01*
X103465333Y-115720857D01*
X103465333Y-115863714D01*
X103417714Y-115958952D01*
X103370095Y-116006571D01*
X103274857Y-116054190D01*
X102893904Y-116054190D01*
X103798666Y-115530380D02*
X104417714Y-115530380D01*
X104084380Y-115911333D01*
X104227238Y-115911333D01*
X104322476Y-115958952D01*
X104370095Y-116006571D01*
X104417714Y-116101809D01*
X104417714Y-116339904D01*
X104370095Y-116435142D01*
X104322476Y-116482761D01*
X104227238Y-116530380D01*
X103941523Y-116530380D01*
X103846285Y-116482761D01*
X103798666Y-116435142D01*
%TO.C,R2*%
X103465333Y-119768380D02*
X103132000Y-119292190D01*
X102893904Y-119768380D02*
X102893904Y-118768380D01*
X103274857Y-118768380D01*
X103370095Y-118816000D01*
X103417714Y-118863619D01*
X103465333Y-118958857D01*
X103465333Y-119101714D01*
X103417714Y-119196952D01*
X103370095Y-119244571D01*
X103274857Y-119292190D01*
X102893904Y-119292190D01*
X103846285Y-118863619D02*
X103893904Y-118816000D01*
X103989142Y-118768380D01*
X104227238Y-118768380D01*
X104322476Y-118816000D01*
X104370095Y-118863619D01*
X104417714Y-118958857D01*
X104417714Y-119054095D01*
X104370095Y-119196952D01*
X103798666Y-119768380D01*
X104417714Y-119768380D01*
%TD*%
M02*
