%TF.GenerationSoftware,KiCad,Pcbnew,5.1.6-c6e7f7d~87~ubuntu18.04.1*%
%TF.CreationDate,2020-12-14T21:37:13-05:00*%
%TF.ProjectId,remote,72656d6f-7465-42e6-9b69-6361645f7063,rev?*%
%TF.SameCoordinates,Original*%
%TF.FileFunction,Paste,Top*%
%TF.FilePolarity,Positive*%
%FSLAX46Y46*%
G04 Gerber Fmt 4.6, Leading zero omitted, Abs format (unit mm)*
G04 Created by KiCad (PCBNEW 5.1.6-c6e7f7d~87~ubuntu18.04.1) date 2020-12-14 21:37:13*
%MOMM*%
%LPD*%
G01*
G04 APERTURE LIST*
G04 APERTURE END LIST*
%TO.C,J5*%
G36*
G01*
X154163001Y-72730000D02*
X152862999Y-72730000D01*
G75*
G02*
X152613000Y-72480001I0J249999D01*
G01*
X152613000Y-71779999D01*
G75*
G02*
X152862999Y-71530000I249999J0D01*
G01*
X154163001Y-71530000D01*
G75*
G02*
X154413000Y-71779999I0J-249999D01*
G01*
X154413000Y-72480001D01*
G75*
G02*
X154163001Y-72730000I-249999J0D01*
G01*
G37*
G36*
G01*
X154163001Y-78330000D02*
X152862999Y-78330000D01*
G75*
G02*
X152613000Y-78080001I0J249999D01*
G01*
X152613000Y-77379999D01*
G75*
G02*
X152862999Y-77130000I249999J0D01*
G01*
X154163001Y-77130000D01*
G75*
G02*
X154413000Y-77379999I0J-249999D01*
G01*
X154413000Y-78080001D01*
G75*
G02*
X154163001Y-78330000I-249999J0D01*
G01*
G37*
G36*
G01*
X150263000Y-73730000D02*
X149013000Y-73730000D01*
G75*
G02*
X148863000Y-73580000I0J150000D01*
G01*
X148863000Y-73280000D01*
G75*
G02*
X149013000Y-73130000I150000J0D01*
G01*
X150263000Y-73130000D01*
G75*
G02*
X150413000Y-73280000I0J-150000D01*
G01*
X150413000Y-73580000D01*
G75*
G02*
X150263000Y-73730000I-150000J0D01*
G01*
G37*
G36*
G01*
X150263000Y-74730000D02*
X149013000Y-74730000D01*
G75*
G02*
X148863000Y-74580000I0J150000D01*
G01*
X148863000Y-74280000D01*
G75*
G02*
X149013000Y-74130000I150000J0D01*
G01*
X150263000Y-74130000D01*
G75*
G02*
X150413000Y-74280000I0J-150000D01*
G01*
X150413000Y-74580000D01*
G75*
G02*
X150263000Y-74730000I-150000J0D01*
G01*
G37*
G36*
G01*
X150263000Y-75730000D02*
X149013000Y-75730000D01*
G75*
G02*
X148863000Y-75580000I0J150000D01*
G01*
X148863000Y-75280000D01*
G75*
G02*
X149013000Y-75130000I150000J0D01*
G01*
X150263000Y-75130000D01*
G75*
G02*
X150413000Y-75280000I0J-150000D01*
G01*
X150413000Y-75580000D01*
G75*
G02*
X150263000Y-75730000I-150000J0D01*
G01*
G37*
G36*
G01*
X150263000Y-76730000D02*
X149013000Y-76730000D01*
G75*
G02*
X148863000Y-76580000I0J150000D01*
G01*
X148863000Y-76280000D01*
G75*
G02*
X149013000Y-76130000I150000J0D01*
G01*
X150263000Y-76130000D01*
G75*
G02*
X150413000Y-76280000I0J-150000D01*
G01*
X150413000Y-76580000D01*
G75*
G02*
X150263000Y-76730000I-150000J0D01*
G01*
G37*
%TD*%
M02*
