%TF.GenerationSoftware,KiCad,Pcbnew,5.1.6-c6e7f7d~87~ubuntu18.04.1*%
%TF.CreationDate,2020-12-14T21:37:13-05:00*%
%TF.ProjectId,remote,72656d6f-7465-42e6-9b69-6361645f7063,rev?*%
%TF.SameCoordinates,Original*%
%TF.FileFunction,Copper,L2,Bot*%
%TF.FilePolarity,Positive*%
%FSLAX46Y46*%
G04 Gerber Fmt 4.6, Leading zero omitted, Abs format (unit mm)*
G04 Created by KiCad (PCBNEW 5.1.6-c6e7f7d~87~ubuntu18.04.1) date 2020-12-14 21:37:13*
%MOMM*%
%LPD*%
G01*
G04 APERTURE LIST*
%TA.AperFunction,ComponentPad*%
%ADD10O,1.700000X1.700000*%
%TD*%
%TA.AperFunction,ComponentPad*%
%ADD11R,1.700000X1.700000*%
%TD*%
%TA.AperFunction,ComponentPad*%
%ADD12C,2.100000*%
%TD*%
%TA.AperFunction,ComponentPad*%
%ADD13C,1.750000*%
%TD*%
%TA.AperFunction,ComponentPad*%
%ADD14O,1.600000X1.600000*%
%TD*%
%TA.AperFunction,ComponentPad*%
%ADD15C,1.600000*%
%TD*%
%TA.AperFunction,ComponentPad*%
%ADD16C,1.800000*%
%TD*%
%TA.AperFunction,ComponentPad*%
%ADD17R,1.800000X1.800000*%
%TD*%
%TA.AperFunction,ViaPad*%
%ADD18C,0.800000*%
%TD*%
%TA.AperFunction,Conductor*%
%ADD19C,0.850000*%
%TD*%
%TA.AperFunction,Conductor*%
%ADD20C,0.800000*%
%TD*%
%TA.AperFunction,Conductor*%
%ADD21C,0.304800*%
%TD*%
G04 APERTURE END LIST*
D10*
%TO.P,J2,18*%
%TO.N,SDA*%
X115570000Y-76708000D03*
%TO.P,J2,17*%
%TO.N,N/C*%
X113030000Y-76708000D03*
%TO.P,J2,16*%
X110490000Y-76708000D03*
%TO.P,J2,15*%
X107950000Y-76708000D03*
%TO.P,J2,14*%
X105410000Y-76708000D03*
%TO.P,J2,13*%
X102870000Y-76708000D03*
%TO.P,J2,12*%
%TO.N,25_LED*%
X100330000Y-76708000D03*
%TO.P,J2,11*%
%TO.N,N/C*%
X97790000Y-76708000D03*
%TO.P,J2,10*%
X95250000Y-76708000D03*
%TO.P,J2,9*%
%TO.N,35_A7*%
X92710000Y-76708000D03*
%TO.P,J2,8*%
%TO.N,34_A6*%
X90170000Y-76708000D03*
%TO.P,J2,7*%
%TO.N,39_A3*%
X87630000Y-76708000D03*
%TO.P,J2,6*%
%TO.N,38_A2*%
X85090000Y-76708000D03*
%TO.P,J2,5*%
%TO.N,37_A1*%
X82550000Y-76708000D03*
%TO.P,J2,4*%
%TO.N,36_A0*%
X80010000Y-76708000D03*
%TO.P,J2,3*%
%TO.N,N/C*%
X77470000Y-76708000D03*
%TO.P,J2,2*%
%TO.N,+3V3*%
X74930000Y-76708000D03*
D11*
%TO.P,J2,1*%
%TO.N,GND*%
X72390000Y-76708000D03*
%TD*%
D12*
%TO.P,SW2,*%
%TO.N,*%
X68276000Y-123678000D03*
D13*
%TO.P,SW2,1*%
%TO.N,36_A0*%
X65786000Y-122428000D03*
%TO.P,SW2,2*%
%TO.N,GND*%
X65786000Y-117928000D03*
D12*
%TO.P,SW2,*%
%TO.N,*%
X68276000Y-116668000D03*
%TD*%
%TO.P,SW1,*%
%TO.N,*%
X68276000Y-113264000D03*
D13*
%TO.P,SW1,1*%
%TO.N,37_A1*%
X65786000Y-112014000D03*
%TO.P,SW1,2*%
%TO.N,GND*%
X65786000Y-107514000D03*
D12*
%TO.P,SW1,*%
%TO.N,*%
X68276000Y-106254000D03*
%TD*%
D10*
%TO.P,J3,15*%
%TO.N,35_A7*%
X152908000Y-122936000D03*
%TO.P,J3,14*%
%TO.N,34_A6*%
X152908000Y-120396000D03*
%TO.P,J3,13*%
%TO.N,39_A3*%
X152908000Y-117856000D03*
%TO.P,J3,12*%
%TO.N,38_A2*%
X152908000Y-115316000D03*
%TO.P,J3,11*%
%TO.N,37_A1*%
X152908000Y-112776000D03*
%TO.P,J3,10*%
%TO.N,36_A0*%
X152908000Y-110236000D03*
%TO.P,J3,9*%
%TO.N,GND*%
X152908000Y-107696000D03*
%TO.P,J3,8*%
%TO.N,SDA*%
X152908000Y-105156000D03*
%TO.P,J3,7*%
%TO.N,SCL*%
X152908000Y-102616000D03*
%TO.P,J3,6*%
%TO.N,GND*%
X152908000Y-100076000D03*
%TO.P,J3,5*%
%TO.N,+3V3*%
X152908000Y-97536000D03*
%TO.P,J3,4*%
%TO.N,TX*%
X152908000Y-94996000D03*
%TO.P,J3,3*%
%TO.N,RX*%
X152908000Y-92456000D03*
%TO.P,J3,2*%
%TO.N,GND*%
X152908000Y-89916000D03*
D11*
%TO.P,J3,1*%
%TO.N,+3V3*%
X152908000Y-87376000D03*
%TD*%
D14*
%TO.P,RS3,2*%
%TO.N,GND*%
X132842000Y-75946000D03*
D15*
%TO.P,RS3,1*%
%TO.N,Net-(D2-Pad1)*%
X132842000Y-86106000D03*
%TD*%
D16*
%TO.P,D2,2*%
%TO.N,25_LED*%
X143250000Y-129040000D03*
D17*
%TO.P,D2,1*%
%TO.N,Net-(D2-Pad1)*%
X143250000Y-126500000D03*
%TD*%
D14*
%TO.P,RS2,2*%
%TO.N,GND*%
X129286000Y-75946000D03*
D15*
%TO.P,RS2,1*%
%TO.N,Net-(D1-Pad1)*%
X129286000Y-86106000D03*
%TD*%
D16*
%TO.P,D1,2*%
%TO.N,39_A3*%
X129540000Y-94488000D03*
D17*
%TO.P,D1,1*%
%TO.N,Net-(D1-Pad1)*%
X129540000Y-91948000D03*
%TD*%
D10*
%TO.P,J4,3*%
%TO.N,38_A2*%
X145034000Y-83312000D03*
%TO.P,J4,2*%
%TO.N,GND*%
X145034000Y-80772000D03*
D11*
%TO.P,J4,1*%
%TO.N,+3V3*%
X145034000Y-78232000D03*
%TD*%
D10*
%TO.P,J1,18*%
%TO.N,N/C*%
X115570000Y-99568000D03*
%TO.P,J1,17*%
X113030000Y-99568000D03*
%TO.P,J1,16*%
X110490000Y-99568000D03*
%TO.P,J1,15*%
X107950000Y-99568000D03*
%TO.P,J1,14*%
X105410000Y-99568000D03*
%TO.P,J1,13*%
X102870000Y-99568000D03*
%TO.P,J1,12*%
X100330000Y-99568000D03*
%TO.P,J1,11*%
X97790000Y-99568000D03*
%TO.P,J1,10*%
X95250000Y-99568000D03*
%TO.P,J1,9*%
%TO.N,SCL*%
X92710000Y-99568000D03*
%TO.P,J1,8*%
%TO.N,N/C*%
X90170000Y-99568000D03*
%TO.P,J1,7*%
X87630000Y-99568000D03*
%TO.P,J1,6*%
%TO.N,TX*%
X85090000Y-99568000D03*
%TO.P,J1,5*%
%TO.N,RX*%
X82550000Y-99568000D03*
%TO.P,J1,4*%
%TO.N,N/C*%
X80010000Y-99568000D03*
%TO.P,J1,3*%
X77470000Y-99568000D03*
%TO.P,J1,2*%
X74930000Y-99568000D03*
D11*
%TO.P,J1,1*%
%TO.N,GND*%
X72390000Y-99568000D03*
%TD*%
D15*
%TO.P,RS1,1*%
%TO.N,+3V3*%
X105732000Y-88912000D03*
D14*
%TO.P,RS1,2*%
%TO.N,37_A1*%
X115892000Y-88912000D03*
%TD*%
D15*
%TO.P,RS0,1*%
%TO.N,+3V3*%
X105732000Y-85102000D03*
D14*
%TO.P,RS0,2*%
%TO.N,36_A0*%
X115892000Y-85102000D03*
%TD*%
D10*
%TO.P,J11,8*%
%TO.N,N/C*%
X124968000Y-108966000D03*
%TO.P,J11,7*%
X127508000Y-108966000D03*
%TO.P,J11,6*%
%TO.N,SDA*%
X130048000Y-108966000D03*
%TO.P,J11,5*%
%TO.N,N/C*%
X132588000Y-108966000D03*
%TO.P,J11,4*%
%TO.N,SCL*%
X135128000Y-108966000D03*
%TO.P,J11,3*%
%TO.N,GND*%
X137668000Y-108966000D03*
%TO.P,J11,2*%
%TO.N,N/C*%
X140208000Y-108966000D03*
D11*
%TO.P,J11,1*%
%TO.N,+3V3*%
X142748000Y-108966000D03*
%TD*%
%TO.P,J9,1*%
%TO.N,+3V3*%
X78232000Y-108712000D03*
D10*
%TO.P,J9,2*%
%TO.N,GND*%
X80772000Y-108712000D03*
%TO.P,J9,3*%
%TO.N,SCL*%
X83312000Y-108712000D03*
%TO.P,J9,4*%
%TO.N,SDA*%
X85852000Y-108712000D03*
%TO.P,J9,5*%
%TO.N,N/C*%
X88392000Y-108712000D03*
%TO.P,J9,6*%
X90932000Y-108712000D03*
%TO.P,J9,7*%
X93472000Y-108712000D03*
%TD*%
D14*
%TO.P,R3,2*%
%TO.N,SDA*%
X108712000Y-116078000D03*
D15*
%TO.P,R3,1*%
%TO.N,+3V3*%
X98552000Y-116078000D03*
%TD*%
D14*
%TO.P,R2,2*%
%TO.N,SCL*%
X108712000Y-119380000D03*
D15*
%TO.P,R2,1*%
%TO.N,+3V3*%
X98552000Y-119380000D03*
%TD*%
D18*
%TO.N,+3V3*%
X142494000Y-105156000D03*
X148336000Y-89154000D03*
X65750000Y-100750000D03*
X65750000Y-97750000D03*
%TO.N,GND*%
X133604000Y-80772000D03*
X146500000Y-95500000D03*
X146500000Y-99000000D03*
X150250000Y-79250000D03*
%TO.N,SDA*%
X129540000Y-113284000D03*
X136500000Y-101500000D03*
X141000000Y-75750000D03*
X141000000Y-98000000D03*
X141000000Y-101500000D03*
%TO.N,SCL*%
X135128000Y-113030000D03*
X140500000Y-71500000D03*
%TO.N,TX*%
X143250000Y-87750000D03*
X134500000Y-87750000D03*
X132000000Y-90250000D03*
%TO.N,RX*%
X145750000Y-89750000D03*
%TO.N,38_A2*%
X132500000Y-117750000D03*
X85000000Y-87000000D03*
X85000000Y-82500000D03*
X149250000Y-116750000D03*
%TO.N,37_A1*%
X147500000Y-121750000D03*
X122500000Y-106500000D03*
X113250000Y-109750000D03*
X119250000Y-122000000D03*
%TO.N,36_A0*%
X141500000Y-124250000D03*
X141500000Y-121500000D03*
X133750000Y-106250000D03*
X139750000Y-105500000D03*
%TO.N,34_A6*%
X90500000Y-84000000D03*
X117000000Y-94500000D03*
X139750000Y-120000000D03*
%TO.N,Net-(D2-Pad1)*%
X145250000Y-121250000D03*
X145250000Y-108250000D03*
X144000000Y-105250000D03*
X145000000Y-98750000D03*
X145250000Y-116750000D03*
X144250000Y-114250000D03*
X142000000Y-86250000D03*
%TO.N,25_LED*%
X122750000Y-121250000D03*
X116250000Y-104500000D03*
X123750000Y-96000000D03*
X120750000Y-92750000D03*
X106000000Y-92750000D03*
%TO.N,39_A3*%
X134000000Y-115750000D03*
X126250000Y-113750000D03*
X110500000Y-113750000D03*
X114250000Y-106750000D03*
%TD*%
D19*
%TO.N,+3V3*%
X142494000Y-108712000D02*
X142748000Y-108966000D01*
X142494000Y-105156000D02*
X142494000Y-108712000D01*
X152908000Y-87376000D02*
X150114000Y-87376000D01*
X150114000Y-87376000D02*
X148336000Y-89154000D01*
X65750000Y-100750000D02*
X65750000Y-97750000D01*
%TO.N,GND*%
X132842000Y-80010000D02*
X132842000Y-75946000D01*
X133604000Y-80772000D02*
X132842000Y-80010000D01*
D20*
X145034000Y-80772000D02*
X146304000Y-80772000D01*
D19*
X146500000Y-95500000D02*
X146500000Y-98494000D01*
X146500000Y-98494000D02*
X146500000Y-99000000D01*
X146500000Y-99000000D02*
X147500000Y-100000000D01*
X152832000Y-100000000D02*
X152908000Y-100076000D01*
X147500000Y-100000000D02*
X152832000Y-100000000D01*
X146304000Y-80772000D02*
X148728000Y-80772000D01*
X148728000Y-80772000D02*
X150250000Y-79250000D01*
D21*
%TO.N,SDA*%
X85852000Y-108712000D02*
X85852000Y-110998000D01*
X85852000Y-110998000D02*
X88138000Y-113284000D01*
X88138000Y-113284000D02*
X106934000Y-113284000D01*
X108712000Y-115062000D02*
X108712000Y-116078000D01*
X106934000Y-113284000D02*
X108712000Y-115062000D01*
X130048000Y-112776000D02*
X130048000Y-108966000D01*
X129540000Y-113284000D02*
X130048000Y-112776000D01*
X152908000Y-105156000D02*
X148156000Y-105156000D01*
X148156000Y-105156000D02*
X144500000Y-101500000D01*
X141000000Y-75750000D02*
X141000000Y-98000000D01*
X144500000Y-101500000D02*
X141000000Y-101500000D01*
X141000000Y-101500000D02*
X136500000Y-101500000D01*
%TO.N,SCL*%
X83820000Y-104394000D02*
X83312000Y-104902000D01*
X92710000Y-99568000D02*
X87884000Y-104394000D01*
X87884000Y-104394000D02*
X83820000Y-104394000D01*
X108712000Y-119380000D02*
X104140000Y-119380000D01*
X104140000Y-119380000D02*
X101854000Y-121666000D01*
X101854000Y-121666000D02*
X85344000Y-121666000D01*
X83312000Y-119634000D02*
X83312000Y-106426000D01*
X83312000Y-104902000D02*
X83312000Y-106426000D01*
X85344000Y-121666000D02*
X83312000Y-119634000D01*
X83312000Y-106426000D02*
X83312000Y-108712000D01*
X135128000Y-113030000D02*
X135128000Y-108966000D01*
X152908000Y-102616000D02*
X148116000Y-102616000D01*
X148116000Y-102616000D02*
X145250000Y-99750000D01*
X135128000Y-101372000D02*
X135128000Y-108966000D01*
X136750000Y-99750000D02*
X135128000Y-101372000D01*
X139250000Y-99750000D02*
X139250000Y-72750000D01*
X139250000Y-72750000D02*
X140500000Y-71500000D01*
X139250000Y-99750000D02*
X136750000Y-99750000D01*
X145250000Y-99750000D02*
X139250000Y-99750000D01*
%TO.N,TX*%
X148496000Y-94996000D02*
X152908000Y-94996000D01*
X148496000Y-94996000D02*
X148246000Y-94996000D01*
X148246000Y-94996000D02*
X144500000Y-91250000D01*
X144500000Y-91250000D02*
X144500000Y-89000000D01*
X144500000Y-89000000D02*
X143250000Y-87750000D01*
X134500000Y-87750000D02*
X132000000Y-90250000D01*
%TO.N,RX*%
X148456000Y-92456000D02*
X152908000Y-92456000D01*
X145750000Y-89750000D02*
X148456000Y-92456000D01*
%TO.N,38_A2*%
X143250000Y-81528000D02*
X145034000Y-83312000D01*
X143250000Y-75750000D02*
X143250000Y-81528000D01*
X143500000Y-75500000D02*
X143250000Y-75750000D01*
X138000000Y-64250000D02*
X143500000Y-69750000D01*
X85090000Y-71660000D02*
X92500000Y-64250000D01*
X85090000Y-76708000D02*
X85090000Y-71660000D01*
X92500000Y-64250000D02*
X138000000Y-64250000D01*
X143500000Y-69750000D02*
X143500000Y-75500000D01*
X152908000Y-115316000D02*
X150934000Y-115316000D01*
X132500000Y-117750000D02*
X128500000Y-117750000D01*
X128500000Y-117750000D02*
X121500000Y-110750000D01*
X121500000Y-110750000D02*
X121500000Y-95250000D01*
X84500000Y-77298000D02*
X85090000Y-76708000D01*
X121500000Y-95250000D02*
X120250000Y-94000000D01*
X120250000Y-94000000D02*
X118250000Y-92000000D01*
X118250000Y-92000000D02*
X114500000Y-92000000D01*
X114500000Y-92000000D02*
X111500000Y-95000000D01*
X111500000Y-95000000D02*
X88250000Y-95000000D01*
X88250000Y-95000000D02*
X85000000Y-91750000D01*
X85000000Y-91750000D02*
X85000000Y-87000000D01*
X85000000Y-76798000D02*
X85090000Y-76708000D01*
X85000000Y-82500000D02*
X85000000Y-76798000D01*
X150934000Y-115316000D02*
X150684000Y-115316000D01*
X150684000Y-115316000D02*
X149250000Y-116750000D01*
%TO.N,37_A1*%
X79750000Y-72000000D02*
X82550000Y-74800000D01*
X65786000Y-112014000D02*
X70750000Y-107050000D01*
X67000000Y-101750000D02*
X67000000Y-74500000D01*
X70750000Y-105500000D02*
X67000000Y-101750000D01*
X82550000Y-74800000D02*
X82550000Y-76708000D01*
X70750000Y-107050000D02*
X70750000Y-105500000D01*
X69500000Y-72000000D02*
X79750000Y-72000000D01*
X67000000Y-74500000D02*
X69500000Y-72000000D01*
X147500000Y-121750000D02*
X147500000Y-116500000D01*
X151224000Y-112776000D02*
X152908000Y-112776000D01*
X147500000Y-116500000D02*
X151224000Y-112776000D01*
X124502401Y-104497599D02*
X122500000Y-106500000D01*
X120142000Y-89662000D02*
X124502401Y-94022401D01*
X124502401Y-94022401D02*
X124502401Y-104497599D01*
X113250000Y-109750000D02*
X113250000Y-116000000D01*
X113250000Y-116000000D02*
X119250000Y-122000000D01*
X120142000Y-89662000D02*
X120142000Y-89642000D01*
X119412000Y-88912000D02*
X115892000Y-88912000D01*
X120142000Y-89642000D02*
X119412000Y-88912000D01*
%TO.N,36_A0*%
X65786000Y-122428000D02*
X67000000Y-121214000D01*
X67000000Y-121214000D02*
X68286000Y-121214000D01*
X68286000Y-121214000D02*
X71750000Y-117750000D01*
X71750000Y-117750000D02*
X71750000Y-104500000D01*
X71750000Y-104500000D02*
X68750000Y-101500000D01*
X68750000Y-101500000D02*
X68750000Y-75500000D01*
X68750000Y-75500000D02*
X70750000Y-73500000D01*
X70750000Y-73500000D02*
X78250000Y-73500000D01*
X80010000Y-75260000D02*
X80010000Y-76708000D01*
X78250000Y-73500000D02*
X80010000Y-75260000D01*
X68286000Y-121214000D02*
X77322000Y-130250000D01*
X77322000Y-130250000D02*
X135750000Y-130250000D01*
X135750000Y-130250000D02*
X141500000Y-124500000D01*
X141500000Y-124500000D02*
X141500000Y-124250000D01*
X141500000Y-121500000D02*
X141500000Y-118750000D01*
X141500000Y-118750000D02*
X150014000Y-110236000D01*
X150236000Y-110236000D02*
X143750000Y-103750000D01*
X150236000Y-110236000D02*
X152908000Y-110236000D01*
X150014000Y-110236000D02*
X150236000Y-110236000D01*
X127250000Y-92960000D02*
X120142000Y-85852000D01*
X127250000Y-97750000D02*
X127250000Y-92960000D01*
X120142000Y-85846000D02*
X119398000Y-85102000D01*
X120142000Y-85852000D02*
X120142000Y-85846000D01*
X115892000Y-85102000D02*
X119398000Y-85102000D01*
X127250000Y-97750000D02*
X127250000Y-103000000D01*
X127250000Y-103000000D02*
X130500000Y-106250000D01*
X130500000Y-106250000D02*
X133750000Y-106250000D01*
X139750000Y-105500000D02*
X141500000Y-103750000D01*
X141500000Y-103750000D02*
X143750000Y-103750000D01*
%TO.N,Net-(D1-Pad1)*%
X129286000Y-91694000D02*
X129540000Y-91948000D01*
X129286000Y-86106000D02*
X129286000Y-91694000D01*
%TO.N,35_A7*%
X79250000Y-85250000D02*
X91250000Y-85250000D01*
X70000000Y-100750000D02*
X70000000Y-94500000D01*
X70000000Y-94500000D02*
X79250000Y-85250000D01*
X105314000Y-122936000D02*
X103500000Y-124750000D01*
X152908000Y-122936000D02*
X105314000Y-122936000D01*
X92710000Y-83790000D02*
X92710000Y-76708000D01*
X103500000Y-124750000D02*
X82750000Y-124750000D01*
X82750000Y-124750000D02*
X73750000Y-115750000D01*
X91250000Y-85250000D02*
X92710000Y-83790000D01*
X73750000Y-115750000D02*
X73750000Y-104500000D01*
X73750000Y-104500000D02*
X70000000Y-100750000D01*
%TO.N,34_A6*%
X90170000Y-76708000D02*
X90170000Y-83670000D01*
X90170000Y-83670000D02*
X90500000Y-84000000D01*
X117000000Y-94500000D02*
X118750000Y-96250000D01*
X118750000Y-96250000D02*
X118750000Y-110250000D01*
X118750000Y-110250000D02*
X128500000Y-120000000D01*
X128500000Y-120000000D02*
X139750000Y-120000000D01*
%TO.N,Net-(D2-Pad1)*%
X145250000Y-121250000D02*
X145250000Y-116750000D01*
X145250000Y-108250000D02*
X144000000Y-107000000D01*
X144000000Y-107000000D02*
X144000000Y-105250000D01*
X144250000Y-114250000D02*
X144250000Y-111750000D01*
X144250000Y-111750000D02*
X145250000Y-110750000D01*
X145250000Y-110750000D02*
X145250000Y-108250000D01*
X142000000Y-86250000D02*
X142000000Y-92250000D01*
X145000000Y-95250000D02*
X145000000Y-98750000D01*
X142000000Y-92250000D02*
X145000000Y-95250000D01*
%TO.N,25_LED*%
X122750000Y-121250000D02*
X122750000Y-118250000D01*
X122750000Y-118250000D02*
X116250000Y-111750000D01*
X116250000Y-111750000D02*
X116250000Y-104500000D01*
X123750000Y-96000000D02*
X123750000Y-95000000D01*
X123750000Y-95000000D02*
X121500000Y-92750000D01*
X121500000Y-92750000D02*
X120750000Y-92750000D01*
X100330000Y-87080000D02*
X100330000Y-76708000D01*
X106000000Y-92750000D02*
X100330000Y-87080000D01*
%TO.N,39_A3*%
X87630000Y-76708000D02*
X87630000Y-71120000D01*
X87630000Y-71120000D02*
X93250000Y-65500000D01*
X132012000Y-94488000D02*
X136500000Y-90000000D01*
X136500000Y-90000000D02*
X136500000Y-67000000D01*
X93250000Y-65500000D02*
X135000000Y-65500000D01*
X136500000Y-67000000D02*
X135000000Y-65500000D01*
X134000000Y-115750000D02*
X128250000Y-115750000D01*
X128250000Y-115750000D02*
X126250000Y-113750000D01*
X110500000Y-113750000D02*
X106750000Y-110000000D01*
X106750000Y-110000000D02*
X110000000Y-106750000D01*
X110000000Y-106750000D02*
X114250000Y-106750000D01*
X129540000Y-94488000D02*
X132012000Y-94488000D01*
%TD*%
M02*
