M48
; DRILL file {KiCad 5.1.6-c6e7f7d~87~ubuntu18.04.1} date Mon Dec 14 21:37:26 2020
; FORMAT={-:-/ absolute / inch / decimal}
; #@! TF.CreationDate,2020-12-14T21:37:26-05:00
; #@! TF.GenerationSoftware,Kicad,Pcbnew,5.1.6-c6e7f7d~87~ubuntu18.04.1
; #@! TF.FileFunction,Plated,1,2,PTH
FMAT,2
INCH
T1C0.0157
T2C0.0315
T3C0.0354
T4C0.0390
T5C0.0394
T6C0.0512
%
G90
G05
T1
X2.5886Y-3.8484
X2.5886Y-3.9665
X3.3465Y-3.248
X3.3465Y-3.4252
X3.563Y-3.3071
X4.1732Y-3.6516
X4.3504Y-4.4783
X4.4587Y-4.3209
X4.498Y-4.2028
X4.5768Y-4.1142
X4.6063Y-3.7205
X4.6949Y-4.8031
X4.7539Y-3.6516
X4.8228Y-4.1929
X4.8327Y-4.7736
X4.872Y-3.7795
X4.9705Y-4.4783
X5.1Y-4.46
X5.1969Y-3.5531
X5.2165Y-4.6358
X5.26Y-3.18
X5.2657Y-4.1831
X5.2756Y-4.5571
X5.2953Y-3.4547
X5.32Y-4.45
X5.374Y-3.9961
X5.502Y-4.1535
X5.502Y-4.7244
X5.5315Y-2.815
X5.5512Y-2.9823
X5.5512Y-3.8583
X5.5512Y-3.9961
X5.5709Y-4.7835
X5.5709Y-4.8917
X5.5906Y-3.3957
X5.61Y-4.14
X5.6398Y-3.4547
X5.6693Y-4.1437
X5.6791Y-4.498
X5.7087Y-3.8878
X5.7185Y-4.2618
X5.7185Y-4.5965
X5.7185Y-4.7736
X5.7382Y-3.5335
X5.7677Y-3.7598
X5.7677Y-3.8976
X5.8071Y-4.7933
X5.84Y-3.51
X5.876Y-4.5965
X5.9154Y-3.1201
T2
X5.09Y-2.99
X5.09Y-3.39
X3.88Y-4.57
X4.28Y-4.57
X3.88Y-4.7
X4.28Y-4.7
X4.1627Y-3.5005
X4.5627Y-3.5005
X4.1627Y-3.3505
X4.5627Y-3.3505
X5.23Y-2.99
X5.23Y-3.39
T3
X5.1Y-3.62
X5.1Y-3.72
X5.6398Y-4.9803
X5.6398Y-5.0803
T4
X2.59Y-4.2328
X2.59Y-4.41
X2.59Y-4.6428
X2.59Y-4.82
T5
X6.02Y-3.44
X6.02Y-3.54
X6.02Y-3.64
X6.02Y-3.74
X6.02Y-3.84
X6.02Y-3.94
X6.02Y-4.04
X6.02Y-4.14
X6.02Y-4.24
X6.02Y-4.34
X6.02Y-4.44
X6.02Y-4.54
X6.02Y-4.64
X6.02Y-4.74
X6.02Y-4.84
X4.92Y-4.29
X5.02Y-4.29
X5.12Y-4.29
X5.22Y-4.29
X5.32Y-4.29
X5.42Y-4.29
X5.52Y-4.29
X5.62Y-4.29
X2.85Y-3.02
X2.95Y-3.02
X3.05Y-3.02
X3.15Y-3.02
X3.25Y-3.02
X3.35Y-3.02
X3.45Y-3.02
X3.55Y-3.02
X3.65Y-3.02
X3.75Y-3.02
X3.85Y-3.02
X3.95Y-3.02
X4.05Y-3.02
X4.15Y-3.02
X4.25Y-3.02
X4.35Y-3.02
X4.45Y-3.02
X4.55Y-3.02
X5.71Y-3.08
X5.71Y-3.18
X5.71Y-3.28
X2.85Y-3.92
X2.95Y-3.92
X3.05Y-3.92
X3.15Y-3.92
X3.25Y-3.92
X3.35Y-3.92
X3.45Y-3.92
X3.55Y-3.92
X3.65Y-3.92
X3.75Y-3.92
X3.85Y-3.92
X3.95Y-3.92
X4.05Y-3.92
X4.15Y-3.92
X4.25Y-3.92
X4.35Y-3.92
X4.45Y-3.92
X4.55Y-3.92
X3.08Y-4.28
X3.18Y-4.28
X3.28Y-4.28
X3.38Y-4.28
X3.48Y-4.28
X3.58Y-4.28
X3.68Y-4.28
T6
X2.688Y-4.1832
X2.688Y-4.4592
X2.688Y-4.5932
X2.688Y-4.8692
T0
M30
